<mxfile host="65bd71144e">
    <diagram id="jUiPcFQMxvJoZrLkocmf" name="Page-1">
        <mxGraphModel dx="2377" dy="2640" grid="1" gridSize="10" guides="1" tooltips="1" connect="1" arrows="1" fold="1" page="1" pageScale="1" pageWidth="850" pageHeight="1100" math="0" shadow="0">
            <root>
                <mxCell id="0"/>
                <mxCell id="1" parent="0"/>
                <mxCell id="16" value="" style="rounded=0;whiteSpace=wrap;html=1;strokeColor=#007FFF;strokeWidth=7;" vertex="1" parent="1">
                    <mxGeometry x="62" y="-3" width="753" height="890" as="geometry"/>
                </mxCell>
                <mxCell id="2" value="" style="shape=image;verticalLabelPosition=bottom;labelBackgroundColor=default;verticalAlign=top;aspect=fixed;imageAspect=0;image=data:image/jpeg,/9j/4AAQSkZJRgABAQAAAQABAAD/4QBoRXhpZgAASUkqAAgAAAADABIBAwABAAAAAQAAADEBAgAQAAAAMgAAAGmHBAABAAAAQgAAAAAAAABTaG90d2VsbCAwLjMyLjYAAgACoAkAAQAAACQBAAADoAkAAQAAACQBAAAAAAAA/+EJ9Gh0dHA6Ly9ucy5hZG9iZS5jb20veGFwLzEuMC8APD94cGFja2V0IGJlZ2luPSLvu78iIGlkPSJXNU0wTXBDZWhpSHpyZVN6TlRjemtjOWQiPz4gPHg6eG1wbWV0YSB4bWxuczp4PSJhZG9iZTpuczptZXRhLyIgeDp4bXB0az0iWE1QIENvcmUgNC40LjAtRXhpdjIiPiA8cmRmOlJERiB4bWxuczpyZGY9Imh0dHA6Ly93d3cudzMub3JnLzE5OTkvMDIvMjItcmRmLXN5bnRheC1ucyMiPiA8cmRmOkRlc2NyaXB0aW9uIHJkZjphYm91dD0iIiB4bWxuczpleGlmPSJodHRwOi8vbnMuYWRvYmUuY29tL2V4aWYvMS4wLyIgeG1sbnM6dGlmZj0iaHR0cDovL25zLmFkb2JlLmNvbS90aWZmLzEuMC8iIGV4aWY6UGl4ZWxYRGltZW5zaW9uPSIyOTIiIGV4aWY6UGl4ZWxZRGltZW5zaW9uPSIyOTIiIHRpZmY6SW1hZ2VXaWR0aD0iMjkyIiB0aWZmOkltYWdlTGVuZ3RoPSIyOTIiIHRpZmY6T3JpZW50YXRpb249IjEiLz4gPC9yZGY6UkRGPiA8L3g6eG1wbWV0YT4gICAgICAgICAgICAgICAgICAgICAgICAgICAgICAgICAgICAgICAgICAgICAgICAgICAgICAgICAgICAgICAgICAgICAgICAgICAgICAgICAgICAgICAgICAgICAgICAgICAgICAgICAgICAgICAgICAgICAgICAgICAgICAgICAgICAgICAgICAgICAgICAgICAgICAgICAgICAgICAgICAgICAgICAgICAgICAgICAgICAgICAgICAgICAgICAgICAgICAgICAgICAgICAgICAgICAgICAgICAgICAgICAgICAgICAgICAgICAgICAgICAgICAgICAgICAgICAgICAgICAgICAgICAgICAgICAgICAgICAgICAgICAgICAgICAgICAgICAgICAgICAgICAgICAgICAgICAgICAgICAgICAgICAgICAgICAgICAgICAgICAgICAgICAgICAgICAgICAgICAgICAgICAgICAgICAgICAgICAgICAgICAgICAgICAgICAgICAgICAgICAgICAgICAgICAgICAgICAgICAgICAgICAgICAgICAgICAgICAgICAgICAgICAgICAgICAgICAgICAgICAgICAgICAgICAgICAgICAgICAgICAgICAgICAgICAgICAgICAgICAgICAgICAgICAgICAgICAgICAgICAgICAgICAgICAgICAgICAgICAgICAgICAgICAgICAgICAgICAgICAgICAgICAgICAgICAgICAgICAgICAgICAgICAgICAgICAgICAgICAgICAgICAgICAgICAgICAgICAgICAgICAgICAgICAgICAgICAgICAgICAgICAgICAgICAgICAgICAgICAgICAgICAgICAgICAgICAgICAgICAgICAgICAgICAgICAgICAgICAgICAgICAgICAgICAgICAgICAgICAgICAgICAgICAgICAgICAgICAgICAgICAgICAgICAgICAgICAgICAgICAgICAgICAgICAgICAgICAgICAgICAgICAgICAgICAgICAgICAgICAgICAgICAgICAgICAgICAgICAgICAgICAgICAgICAgICAgICAgICAgICAgICAgICAgICAgICAgICAgICAgICAgICAgICAgICAgICAgICAgICAgICAgICAgICAgICAgICAgICAgICAgICAgICAgICAgICAgICAgICAgICAgICAgICAgICAgICAgICAgICAgICAgICAgICAgICAgICAgICAgICAgICAgICAgICAgICAgICAgICAgICAgICAgICAgICAgICAgICAgICAgICAgICAgICAgICAgICAgICAgICAgICAgICAgICAgICAgICAgICAgICAgICAgICAgICAgICAgICAgICAgICAgICAgICAgICAgICAgICAgICAgICAgICAgICAgICAgICAgICAgICAgICAgICAgICAgICAgICAgICAgICAgICAgICAgICAgICAgICAgICAgICAgICAgICAgICAgICAgICAgICAgICAgICAgICAgICAgICAgICAgICAgICAgICAgICAgICAgICAgICAgICAgICAgICAgICAgICAgICAgICAgICAgICAgICAgICAgICAgICAgICAgICAgICAgICAgICAgICAgICAgICAgICAgICAgICAgICAgICAgICAgICAgICAgICAgICAgICAgICAgICAgICAgICAgICAgICAgICAgICAgICAgICAgICAgICAgICAgICAgICAgICAgICAgICAgICAgICAgICAgICAgICAgICAgICAgICAgICAgICAgICAgICAgICAgICAgICAgICAgICAgICAgICAgICAgICAgICAgICAgICAgICAgICAgICAgICAgICAgICAgICAgICAgICAgICAgICAgICAgICAgICAgICAgICAgICAgICAgICAgICAgICAgICAgICAgICAgICAgICAgICAgICAgICAgICAgICAgICAgICAgICAgICAgICAgICAgICAgICAgICAgICAgICAgICAgICAgICAgICAgICAgICAgICAgICAgICAgICAgICAgICAgICAgICAgICAgICAgICAgICAgICAgICAgICAgICAgICAgICAgICAgICAgICAgICAgICAgICAgICAgICAgICAgICAgICAgICAgICAgICAgICAgICAgICAgICAgICAgICAgICAgICAgICAgICAgICAgICAgICAgICAgICAgICAgICAgICAgICAgICAgICAgICAgICAgICAgICAgICAgICAgICAgICAgICAgICAgICAgICAgICAgICAgICAgICAgICAgICAgICAgICAgICAgICAgICAgICAgICAgICAgICAgICAgICAgICAgICAgICAgICAgICAgICAgICAgICAgICAgICAgICAgICAgICAgICAgICAgICAgICAgICAgICAgICAgICAgICAgICAgICAgICAgICAgICAgICAgICAgICAgICAgICAgICAgICAgICAgICAgICAgICAgICAgICAgICAgICAgICAgICAgICAgICAgICAgICAgICAgICAgICAgICAgICAgICAgICAgICAgICAgICAgICAgICAgICAgICAgICAgICAgICAgICAgICAgICAgICAgICAgICAgICAgICAgICAgICAgICAgICAgICA8P3hwYWNrZXQgZW5kPSJ3Ij8+/9sAQwADAgIDAgIDAwMDBAMDBAUIBQUEBAUKBwcGCAwKDAwLCgsLDQ4SEA0OEQ4LCxAWEBETFBUVFQwPFxgWFBgSFBUU/9sAQwEDBAQFBAUJBQUJFA0LDRQUFBQUFBQUFBQUFBQUFBQUFBQUFBQUFBQUFBQUFBQUFBQUFBQUFBQUFBQUFBQUFBQU/8AAEQgBJAEkAwEiAAIRAQMRAf/EAB8AAAEFAQEBAQEBAAAAAAAAAAABAgMEBQYHCAkKC//EALUQAAIBAwMCBAMFBQQEAAABfQECAwAEEQUSITFBBhNRYQcicRQygZGhCCNCscEVUtHwJDNicoIJChYXGBkaJSYnKCkqNDU2Nzg5OkNERUZHSElKU1RVVldYWVpjZGVmZ2hpanN0dXZ3eHl6g4SFhoeIiYqSk5SVlpeYmZqio6Slpqeoqaqys7S1tre4ubrCw8TFxsfIycrS09TV1tfY2drh4uPk5ebn6Onq8fLz9PX29/j5+v/EAB8BAAMBAQEBAQEBAQEAAAAAAAABAgMEBQYHCAkKC//EALURAAIBAgQEAwQHBQQEAAECdwABAgMRBAUhMQYSQVEHYXETIjKBCBRCkaGxwQkjM1LwFWJy0QoWJDThJfEXGBkaJicoKSo1Njc4OTpDREVGR0hJSlNUVVZXWFlaY2RlZmdoaWpzdHV2d3h5eoKDhIWGh4iJipKTlJWWl5iZmqKjpKWmp6ipqrKztLW2t7i5usLDxMXGx8jJytLT1NXW19jZ2uLj5OXm5+jp6vLz9PX29/j5+v/aAAwDAQACEQMRAD8A/Qy0lfUbgxRsMr8zEnpWm2nOFOZcfSuf8CSGe6vHPK7VGe1de/zfSvVlLoWYzadMHXa+UPX1qZ9MI4EpU+h61au8iMhThjwD6VktpWsPL8l6mCOB1qOYuKJ00x3J/eH64qvPok7THy5mx3BFJ/YuvKD/AKUlVJdO8RoSqzIc/wAWar2g/ZolfQpghHnjd3BBpiaDNsO6f5u1VHsPFCfxB/cGq81t4qA4jJo9pMr2aLM2jXoHyyq340yPR7pQS8kf0rOkPitP+WEhx/smqcl14pyf3En/AHyav2jD2aNt9LmH/LRaiNlIn/LQfrXN3eoeJowcwNn3Q1ly654iCsDCf++TV+0YeyR2ZVwceZ+tGx/75rzybxD4hQ58k/8AfJpkninxEgz5R/74NHtWP2SPQmWVD9+hI55D9/rXkesfE/VdHiLzquR2Kmum8A+Lb7xhoC6hLILUvK8agIeinGfof60e1YeyO3MUgGd/HrUot5iMF8YryS1+J+pX/iXWNNthGYdPkRTcqu4vuXIGO3Uc+9bkPibXSAGXBHBAU0+YXs0d99jnPSSg6dcyEYcD3zXGx+JtZUAGI5/3ae3irV4RuEfPXkUvaMPZI7F9IvVGQVP/AAOm/wBi3pBZlUEer155qvxh1DQbaRphCcKWVG7kepq58IPjRcfEj7baXEUOn6vagvJARkOvJ4/I/lT55kyppHdf2PeqpO5ScfdZsYqvFpd8QQUUf8Cph8V3w+VIVJHYimv4p1EDP2ZSfalzzD2aLH9k3w7qP+BVIdLvQowVJx61mv4y1JP+XYH2Apn/AAmuo/8APl+lHPMPZGidPvh6fnUiabeev61mx+MtSf8A5cR+VTL4t1PP/Hpj/gJo55h7I0lsL5e4/OporW7B5I/Osv8A4SrUT/y4gn/cNPTxNqfX7Fgf7po9qw9mjfhWdMDcM/Wrtvdyxn5ua5QeJNV3Z+xDH0qdNe1ZufsY556VPNcPZo7aPVWRR8pNTx69jrFI2PQ1w/8AbWr4z9gGPWszXviBqOgWEss+nh1QblAGOazlGIezR6cfFMUbY8iRvXBqQeJID/ywlB9MLXmPw58WT+M9Gl1O6jWCZ5CPKXoq9q61SGIIOB6msfYxD2aOoh1+3lTOGTBxhuDRXMvJ5bYAJ75FFYeyRnYw/hr5kkN6w6BlyPwrqm1OOGVopFIfPeuX+FmPIv8AJP30/lXV3Uohv2yqsSBjcK6p/EUIUkugSgxGO5qS2tjEpYscnke1XVlMkSkYUjsBxTJDkk+tSBC0jAdage5YVLJUEi5Q1ZYxr18cVC+oMO5oaPiqVxwaYEsuqMFIzVR9XYDqPyqC5OV45rPmVqoB2qa44Tjn8qxZfEYXAchc+oFT3cW4c1j3dtHJlSMkc5qzUvnWkcY4P4CobjVE8tvkHTrxWLK5hHHaqV3dMYj834UcoHC/E26jmEuFAJHpW/8ACO5VPC0W84RJWbA7gkf/AK643xzO0u7gEetbnw4fyfDseSR85JqI/EW/hMX9n/xCV1bxVp90EW6ttQSF2ZcmVUjRc/8Ajp/I+lfR+n6lbvGn7mI/8Br5G8Gzrovxt8U2+4qly6XK9h8wbP5GZfyr6M03UisS5OG7it5GENj0NLy2Y/6mP8hVTV7q3Nu4MUa4HHyViRXjFAxOATUGtX3l27BiQeRk9qxNDxf4sanb2kjyugMaHJXH3s8Y/Mj86rfs6zCX4r3qRxRvHDp8AupXB3q4V8hccciaMflWR8T5PtOo2dsfn8ybc/0AJ/morp/2WrX7Q3ijWCu03V2Y1f8A2QWXj6bI/wBK1hsZy95n0jFe2816HeFN556Dk+9bBnhSPJhjx7KK42KUJcJt6ds1eurxgpAY4NZCsX7vUYBnEaD/AICKzH1OLd/q0/74rJnuXJIz0qnM0jDg4qjU6y21OADlVBPsKsf2lEOiqfwFcdbyugAY7j61cjnb1o5QOkOrJ/zzA/4CKT+11/55j9KxFn3AAmnbzRymZs/2uPT8MCl/tQsOBj8qyE5qVOtAjT+0tIpziuf8U6GdbsJYs8Fa2Ivu1MgBXnp6VAHlHgm5uvAmovZzqVtXY4OOOtetW+qW15EkiToAQOMjr6VlazY213A++FDhcgkYIrw/W55R440uGOZ0gW4U7Vcjp6juKk3S5z6Q8hpAGLYz0zRToXMkaseeO1FKxi9znfhdJl75DxwDXV6nzqJxzwK5X4ZR4kvm/wBlf8/ofyrqLw5vz9OaU/iMzVt+Yh9KH6UWhzAtK/8AF9anqBTnbAqq1w3QAGp5vlyTyKpscO7D04qyx4cueRzVaeLeTxSxszSKc/wjinmUZI6nFMgz5YeOOazroc4HBFbEr/J90iqFwPk3YHFaxLMi4jOOlZs0aoWJHOK2LkHaGA688VlXEbMz544zVgc/f4CkgVzuoXGxW7cV0OoHbGR6Vx2szYU80GpxfiaUzAg10fgk7PD9vngMxz+DGuT1uTezD3Nbnh28Fto1ohbgsc/i5rJFHlur6i9j8Z4pui3NuyNj/YCt/KE/nX0HpesJKq4fI65zXzX8WdObSPE+l6isvmRzzv8AOAd0e4FSMenz4/EV6Sdat9N0uKX7YNrIH3uwVemcZNay2MVuew6n420/w3py319cGNN/lR7F3NK390L3xx0rE0/4raJ4rn1G10+7zd2jATW7LskXgdc9hkfmK+cJPFl74j8UHUJL9Y9LhmMFvKymRdylAcEcDp1re8HT29n4tTWbxjHLcqtld3ceY1ijPKEt/E7OAMHjBHaouaF74la2lrq08mebO2Zzg9S2SP0Q/wDfQr2/9njQ20P4a2IlwslwxnbPBAHynP1KZ/4EPWvlXxrfxan46v8ATreY3kD3625K4OVQAMBjjGVbpxzX2j4XiTSNBsLBcf6PAkbY9cDP61uvhMjoGYLICTgj1pLi5yOpqvNL5uH9earPPngmszUkeTPNRh91NB3U9E5oAcnWrkS/LUCREc4NW40+UfSgAjUhhwcVP3oCnHSkVTnoaAJY6mQc1EgqdOMUASoxqwpyBVdOtSr1rIyKOski1lwcZWvCdQjYeO9OZj/y1yfzr3TWyBbHJxwa8D1e4ki8e6SsSb/NuhG+eww5z+YX8xUGsT6es/lt1B4IHQ0U23/1Qx0ooMXuYnw16X/+7H/N66S6B/tCUd8Cud+GqYi1DPov8nrptQG3U5iPSnP4yTRsh+6zTn4BzUdg/wDo340s8mM5NZdRlWYBs5NVJHRMgkdKdPNyee9Z93cDb61oUHnhbgMPuhcUG5RjxgH61m3N6FXA4NZcmplXyDmqJOjlk3DnpVaQbxtPSs6HUxLGATzmp3vUxgEfnWoBcRgRYHOKxtQIRc55IxitCe/XaRxWJf3cco64IplGBqjbQw9q4PXZTzXa6tINrHPauD1p/vfSg1OO1KTfIfrXo/w30K3u/D8lzKvmfMyKMZwRz/WvNL0/vK9n+D8Il8JMD/z8yfySoQpHgf7Qegy21s8I4JDeSw9fl5H4lfyr4u0HX9Sv9JMt5dSuQ7Bt0jYOM5P6Gv0a/aeso7HwBb32F8yO+hXdjnaySAj8W2flXwF4Z8N7dM1JdhkgS/uLZHxw2McA+uGrScfdOZ/Ee4Z/4R34OeGreIL9svJhPtI/h4Yknt99R+FeoftSWEnhD9nvwPo8cNvaX1+ov51hP7xisYbczfVhj6V5ndappXirV/CdrFOLaxtrdI7prjhIufm/9AH5iuw+Pfie3+J3xHs7Lw+s+p6HplnHZCSMEea+TkIPQjgY61y0lJr3jN1JOXKeIfslWNz4n8eTT3MslxBBx+9J6lsZ+uGJr9F9LjMeFGSp6Zr4S/ZMsf8AhHPiUuhzW721/LqtyJLeT70aQwv8je+5QPqa/QCwsjGoB+8Miu9/CaR0CWTaAKqSSZYVFc3mXcZHykiqhussOazOo1oDvOKuRJg1l2dyAea0o5geQRUmRfiXcBUwTiq8E44HWrcZyD70AOHAFLQAcdDTlTmgAUHPSpR0pvtThQaksdTDpUMXWpyfkrJmZjeIX/0WT6V4jLEJvHVix/5Z3CkV7R4ifFrJ9K8ZjO/xra/9dR/Oh7GsT6VtuIE+lFQI2yNBkdPX3orMwe5l/DViyaiPTaP0euk1J9upS/Sua+FrZTUT6lP5PW/rbbNRk/3RSn8Yol+xlH2fqOtQXtx1Ge9U7S6xFjIzmoL66wSQRyaooZc3QRTkgH61jXV+cHmkvLotkGsG/v8AYrYI496oCa51AK7FmyPrWXLqm1sDoe9Yeo6sFyd3v1rBuNfEQyZBj61qB3K6sqHhv1oOs8n5v1rg4NUkuULopIzwc02bWjAMSNtx2zTA7yTV9y8MD681QuNTUq3IJ+tY+hWGoeJFEtugFsDjzmOB/wDXrXuPAF3OC0d4jPj+IYBoAwNT1INGfmGPrXH6vfqM8jp61ua14X1+0uWhNoZAPuukg2mubvPBviS6Py6fI3+66moNbnM3VyGk4r3P4NsG8IOw6fam/wDQY68gl+HfiYSHOkz9f7y16t8N7K78P+G3t72L7Nceez7Sf4dqf4H8qIkyF+NngBPil4FuPDp1BtMMs0U63EcQkKlDnoa8k0D9mM6B4Um8Pt4kt7/T5rlbppLjTiJg4V87WR+MhwPqor17WvEAgDHccY6muUh8Vvf30drbRNcTtkgKewPJ+ldBnymFY/s929lkW8OhSSEBWa9triUEjvhZx/IV1egeCPFvhso2iXvhDR3QHbNa+HneVcL1DyzNySeOK6vS9P1QIskqIuR9zPNbEc8sXEiYA44FQRyniPwy/Zak8D/FZ/G994sm1i+llllmje0VA8ko+dsj1OTX0XZhQqfKQMD+VZkF9E/oB6E9a0ra6ViOy5/pTGeZ6jrCpe3ShxhZWHB9zVMaz8w+b9a57WdM1watfOmm3LxNO5QhDgjccHpWa9trUTZewnjH+0CKg3R6VY6oHxkmtq3vwcYYdPWvKrHVZ7YDzFIOM8n867Pw9pup6xAJlXyIicZmPUe1UZnZ214c9a07W73kcj86wU8N39om6OeGVh/CnB+nNJb38tvMUljaNwcENUgdiH4FHme/61k2moLOvLc+matpJ3zQBbDHcKmBzVWOUHoQani+9+NAFiMVKQdp4psNOkfGfTFTI1Ob8St/oz/SvH7Y58aWp/6aDP51634lf/Rn+leRWv8AyOMJ/wCmi/zqHsWfSscKyxIcjp/WiktjiFc8UVmYPcwfhY+DqCdchD+r1v69JjUGGedgrmvhddCJ76MoSSEO/HGMt/jW74gfOqyEcjYOlVP4hRKyTbcY5zUN7NTYGyD6iql5PnNMZnajc7GY5rkdXv8AYrnOOK3NVmypxXGa1MWVhVmhymuaw6Fvm7VztrNcapewoGPl55q1r9wBOELgFugPeo/D48q5TnnNAztruaDSLBYgAW2jn3xXI20b+IdctLfexWeXaRjAAB5q54pu2+7nivUfDt1a6b4c0lxBEkgtYnLeXlmJQEnNUZHY2FnDpltb2NvGqRxKMbe/HerhCZIAAx6Vx6+K4xKDnB7jPQVqW2sJLjDcs20DPU+n1qyZIv6naefbSMAC4XiuMiv/ACiMNuIbBx611f8AaCjlWBHTk9c9qxfEn2ZLF2ijCOpGCvfNG5JIdUR4gepxWBrGreWrsPSs19SdHK7sc1z/AIk1JxE4BxkdaCzn/E+rPcTkBtoPbd1ru/hB4ehg0dtTkQS3FzIQSedkY4wPc9a5v4YRW13q2pSXVvFO0UceBJGrDljz1r0S11SCxiWKJBEiHhEGBk+34j86cQOpjj2gA1HcxKVc47VlWmtrcjIYMOmQcjNaC3ayqoGCG6e9UQc9PIYZSASDnpV2z1LCgM2PrT7uxinZ3DfMK5m6uWt5GXPQkUFm/qGohVJzXn/izxA0e5VcDI9avajqsnkvz2rz6/nN1qcCyZZfOUHnqCelTKQRNbwNpP8Awlfiu3huJD9mQ+fKFPJUdF/GvoKzCMcfKiKMCNRgCuQh/szRf9RaRQMq7fMWJd2BxyatWXiBPMKiQH2FK4HXrweP0qvrNrHPpzy4CyR4IOOtVbbVEaPdvGMbs57Zxn86vR3aOoRtpVuzd6NwMOyUMwO4bexBrTucwqmG4IoutOVZBNF8qDqo7GnFDLCQwJYH06VIEMd40ZrUs7nzcc84rHeIh+nSr9jhSKANuNSRTnOUwT0ogOYxTZB8pqDU5fxO2LeT0xXk9nz4sg/66L/OvUvFTYt5PpXlunc+KbY/9NBn86mRZ9Ixf6tfpRRD/qk+g/lRWZyvc474aLI19eEN8gC5/wA/gfyrpvEDbNQkx/dFYXwtgO6/kzx8nH4v/iPzrW8St/xM5eO3StJ/EVEpW8xy/wBKpXsmAxB5Ip9s4/ecmqF9KRn6UjUxdQn6/SuR1OXO/JxxW/qU/Lc9q5XUZdwYE9qsOU47WVDOWADFeh703SAFuo8HPNJqbgOeR0xTdLcIVbIyKgsteKpMl+e9bGqeL4rPQbCBJMSLaxLwfRAKpWvh/UPFt89vYwmUKPnl+7GmezZ6muY8f/BHxUuZbS8tbmPao8qJyCvt82BRcg4jUfjFdWniLVIL6Rha2uHSEREB0B2szv1Az2FZ/iX42T2PinQ4fC2tW17YypH/AGleWsM6CFnPKh32ksqFcjawyeprmLjSLPSx4vi1LVBbeINKXz7fTZE3+eyjDqu3IYnn8WP92te/TxL+0D4etJdKsrDR78Ik11LaQraxxbPMImnkyqRlixycENheea4JX5viKtH4me7/AA4+M0vivU7m1zDItvbiYXkeFJXdGACOADh/QV6Jq/iW2utDcKf3u9BgHJ+8a+KvhTa6r4p8VXcdncCO/t7F45PssSDzmEiLuJHynkqcjj0r6V0H4TeMLOPzryVZdyljEZRuB9x2r0aLlYytFmpPqChyMk4NY+uXImi61jajqNzpd3Jb3aGKeP76NwR7/T3rPu9d8yMgnGDg59f8mtJMs6LwVrdvpM2pvO+wSKigk46Ma5b4ifGH/hGobQwq08tzci1iCn+MqzAn8Iz+Rq5L8KPFniXTjd2Ri01ZBkSXEjIXHb5Rzj3rxr4nfDjxt4Thj1C+tXa0spd8l1FLvjjLjykYZ/668Z55HrWUuZx90qKUtGdtp3x903UdTtNO1nXT4dlnby/tck5WBQB95GQMSR0xkHPGBVjwP+1UJPEOuWAeW/0Sxm2W+ozs2ZoyxVZCG+Ybhg/NzzzzXkHjxND0TVLIaetv4lXWI0NrKsYM8TeWOFwhHmB5WG3qdma09d8K+NfhhqF1e+LNBhstO1yGBmtpmCSeasYUGORRlQRhirAAnOKy5OWPNzGbclL4T7d0jxVBfxRTF08mWMOCo4wRmsDWdUX7XMVIKFjtPqM14/8ADPwX4t1jStK+yXMk0QgiO7O1EG0YFej+KPC2ueHbIT3UQnRQA8kJ3Y9zjpXTCT5RWGXd9vt25rjr25C6lb722gyqc59DUUmvZBAbI9QazjDd69dra6fE097NkRxR9T75qZSK5TufFHjpYjItvKHYEk7TgkYz1PvXj2s/HXUtO0i5vhavfXkTNssIpzG6rtGS7dBycY9eK0fFHwN+JVvZTTrHbzOEJFvDch3bnoc8ZrgX0nUPhpoul6g1hcWXjc6xFO9tfRo8XliQFJIkP3iG3Kw6EDIrnk5S3Il7seY77Qf2m7VbWZtK+1tqywM66WwZY0mYBVDOzYYAgk4A5719A/B74oSeO9KlupzbxyWsqRSvZTM0TZXJ4YkZ+hP1r5n8cWvinxdpMWv6Z4Ysp9Iiv3bUbuztVhLSyxCNn3dFCqDg9B35rtPgZoVrpdtrkPh3VZJNCj1BktJbkjMwC43Y+nOKcOaEgheceZn2CWhbTkKyhs9e3T1HaktQGjLevNcn4XSVdNXynN8M481QVx9M9a6y2ysADZDd93WurcRXlT5iPepLUYY0k/8ArT9adb8Z+tBqa1vIQtSSPlDVa3kAXqKe75Q1AHLeKzmF68v07/kZ4v8Arqv869N8UHML/SvNtMXPiWL/AK6L/OpkOJ9Gxf6tfoKKfAAIU57CisTB7nMfCsktqKDphT+P+Qfyq/4mYnWJv92qnwozjUDjj93z/wB91a8Sf8hqb/crWfxDiYtu23zKzdQmIB+laCEDfz2rL1L7v4UGpymqTfe+tcvqU3LfSui1MH5uD1NcxqQODxVlnL6kcnNFj8oo1Ec02y4DfSoA9i+Gc8Vn4QMsfMjzyGQgZbIJwKoeI/Ey2UErSSqQoJJ+lcR4c1W/0q3uJrZi0SSjdGenIrz74m+MjfMIJrjyYgMtFGOW+tXflM+VHZprXhjxzEzavo2n6q0L5XzoFdx7huT/AOPCrVvD8N3uPsV54Y09fMHMZMSsydQdu/cwB44zXiXhrTdUlt7+6tGmsPDdt5d5dz6fKouzkknYD8xVdse4gYAJzXXS/DzwrHDo3jK08R2uvWUlh9q1hNTuRLMbrOViVBj5/wB5ydpwFOelHPb4onPLmke5aDY+HND1HR7bRbG0sdNdZZES2iEatNuX5Wzz03HHqBXoMFwl0m9XJHTJ6n3r5I+HnxR/4Tz4qudSjsNE09rMta6do9t5ccJVlwd3G5sI2cAd+K+gdH1+ZodlrMly4GFYKVLe5z3rWMuozg/2mI4NOk0e6RQLmdJkkC8bkXy9p/8AHjXkHg2+S+8W6Rb3L5tnvI1fJ4xvXk+3Fdp8fZdQudds47190qW5kVQcgBieP/HBXlemDytWt5OgRgM5xz2/KsJ/EdUPhPs3V9Q+zKVjURovGwdgO1efeJfGVlZjy7pIJ4pG/wBTMu5XxtbkfULj6Vl3HivVNMsFtNTijaaNMLMxwQAO/vXiPjnxANQuQ8twZZhKhRACFADh2/AhWFbuWhja/vHsZ0bwLaedqx8PWcbRSF2uxI8KKx5ODuwp59q2NB0j4b+Ir46tNpMV9f2WZPtNzez3aRerMWfYMH14rxT4cx6Z43isNN+KWsah4W0i6ytqYrU7Zk8sEb3O4nnGAykY6bRVn4k3kXg/w+ng9PEEet2El3NPe22lRhIpokfbAsrp1BUISFPBI9isy5DldWpfc+q/BN1awaMyw7TIZ5UfaoGCHIA9sjoK6a5iTUYHiKrLHIhUAjIwev8A9avnn4F+MbXWPA6TfPpmoQzNbXFtKS6KR93n1AwDXpWt69qtp4WvprMRLJHbvI869wBnCj8Tz7VovhN1G58x+Lr+PT/EeqQWrk2sF3LHGfVA5A/QCvWf2dTDc2eq3r7RcM6xjcMlUx1X+teE6nES5yDknJzya774Vz39lZzXNhkx2xBlQfxZ6fyP5VyqXvHSvhPorVNaW3TJHHvXnuv3vhXxZJPZ67p9lqCQFWeSXAkjwd6gNgMOvZhXK+LfiNMlsciON2BBZjgr+FeF/wBry6l4weWys28RahbPFDa2co3J57q8jSkH22gZ46VdSqloZcp9Jp4Q+Gt3ZfYp9FkawZl3Ri8u1iOBg4zLhueMgn6muhsvCHg3wV4YgtvDFhFpWnteo9yqMWZcjBJ3ksB64z9a88tfh9rfjnwbq8I8YTap4k067iEnhFFRIpXLjPzKQCoBYliCq4xk4rH1zX9K+Hl9pfhSHw8dV1u1vYkvNQOoboIQQFeOEK4LEdgQCBjIFRzCvJ6SPrPS5I1t41hZPKVRsWPoeP1rVP8ArIgV+9nPtXn3hi9NrOLaC9N3bj7ol+Z1HYE9z716DAZJYleTauRwBWqEVpv9Z6c0RvwRRcffpidaZqWY5SAKnaUGI8iqSvg0pfKnHNAGH4kf9w/0rzvSP+RjjP8A00U/rXdeJJSIJPpXn2kzf8T9B33D+dZSHE+lIuY1+gooteYFPqKKzMHucz8JPmOouzH+BQg78vWp4mXGrSn/AGcVl/CNVDaiScHKf+z1ueJICdSk4P3RVz+IcTmo4dxYe9ZurW5VSRW/bw/f+pqlqttuibAzQann+pxnB4rmNSj5b6V3Gp2uB0NchqiYd/SrKRxmoJzUFqMKw71c1QbRmqlnyWJ64qBm7oTiPSNR3HguO1eYeOreKScybVbj0rtjcSRWEyo2ATyK7uH4FaN4q0mxuJ7i6E01vHIzLOVCsVBIA/Grexgz5Zs7Cz1yW5g1Bb+9tVtjt0Wyu0gFzIN6LKdybWKfJ8jYJxkE9at/DrS7DXZZ4/Fl9qnhyO3lj/cXGmSzmeJRwkb7Sqt3yGAycVr+Ovh74v8AC3ivU9N0vwZqerafayt9kv4po1Ew27s8uDkHuepqgfD/AI6vIQs/g/W8D+OV4HJx0JxJXC3OD1LlBNe6er6FqGgah8W9Pm0zS4tJ0zTtGkgsrUlWl8oSj/WsCQZS8zOeT1Ar2PSXjmhlZY4427bAOa+bvhN4C8S6/wDECCTV9Hv9E0uzsJ907mNTK7PAwUYJz/q2496+ldG8L/8ACOWgjW7luvmVWMp3AfMfSu2i5SiRKPKeI/H7B8U2hPU6eh/8fkrx+KPdcwkdN4/HkV7L8f4yni+1U4O3TowR6fM5H04IP4ivHEDfbolH97IA/ClI0ifQXjRIpXuPMA4U8kdBXzn8TYo7LTmmRAHS5tgpPGzdOik++ctx/tV9GWGkL4r8Ytps8jJbzxTMXjbHbjrWN8Y/2d4x4K1G+0Rr7UdRtmiuILLeC8zLMjkA/wDAeKpxbj7oM8Xm1vxHqGkNeXOoXmqpp8Xk6daWbBliiY7pN6MMhsEKAOmMCvRvhTb+GNAtYPEt3aXuq+JREzLbX8f2ewtJSWYO+9yZsEI4IAyVAwCcnymDw744jnZh4C1m3VuuEjYt9TvGfrirFxp3jpYEhbwRrssEZ3LD5CFSe3y78f8AAutccXNL3iPYpn0X8HLG0sfCKzZWa51KeW7kZ1Gd7OTg8Dn5R2716F4qAm8N6vHlQv8AZ0zbVGP+WbGvP/hB8P8AU7rwdpV/rUt5pWpSq0ktiWG6H5yVUj1xXomuWZtfC+uPLKX2WUy7yPSJhXpR+EnY+O9TiBcnpk9K9J+DKrHoWtk45eIf+h15zqf3813fwzmMPhzVSpwfMjP/AKHn+YrnfxHQhnjnT4JlQhARjJryDSr6fRfiJqNrp19Nos13PCVvLUKkh2wRFowx6Me3c7R/er6k0D4WWnjbw/a3011dRTSbkxCwAwDjvXjnxZ+DupeEfE8sGn+GtV8U2N7HFdNeW6hmgkA2bd2/GcIufrWVZNrmJi+Z2MTSNO0afx7d2djqUejTzMwW78SS+XKzHOfMk2ndz3DDNelaR8OvDGiaLpeiW81vr3ii/vYpLzWLYv8AZ7dIyX8uDf1PyK7Nk52Y7153a3nj7TkBt/A+vnaMASQoxH47q1fBMPjjxT8Q9ITUvDWs6ZbyM8U9/eQp5VrGUbJVSW+cttGcdzURk7oXsvM+s9DngDuYYIoyOgjXAHtjtXWWpMlrEW4Nch4b8HS6QCFu5rhW6rKQQD6Dbx+VdlBGYoI4yMFc8V2GRTn6ikFLP1FRqxB6UzUfS9Q2OOKTrS4O08UAcv4kB+zv9K880r/kY0/z/FXpPiRP3D/SvOtMTHiBPr/7NXPIs+mrVB9mj+YD5RwTRUlnEDaxn270UHM9zj/g+xkl1JdhYBV5A6HD11uvR7tUlJOcoK5n4MLtj1RvUxD/ANDrr9Yh3anIRyNgqZ/GSYENuOcd6r6hbgRkYrZtIGDNkZ5qHUrfKk4rQs8/1a24fjHFcHrMG0HHWvT9Xtgyue4Fefa5BtJOOcVZcTzzVlGCKz7H5pGHoK1dZTaWPrWXpUbtPgDgioNRVZStxEx+UjHv1r6H8MnyvD9gkQOwQRjJ6/dFfOeq272ksjcjLDrXt3hrxmLfQrGEwAmOFEJ+igVqZyOlv/3mQRnjqcVzl1ocspyhwDyavS+O434+yKagbxsn/PqKfKRZjtN06SzK4XPHXFazyxW0fm3H+rRwzD8P8awZPG2Pu24FVr3xJLqtlPB5QTOw5HYb1qhHiPxVvH8S+L76+UbYjtRFP8KgYA/CvMvs5iuI2PBD9fTFe76/4XzHI5X5sZY49a8y1fRHglK7QMcisZGsT0n4V6ibvxLZzH5pBbuvH+6K9wMm9CAMjuDXzj8KLuSw10zj5jFEV2mvboPHflAr9kBJHU9K2h8JEzSubRZsfIFH+yKrjTCjbgWOOxFUz43bH/HuufrSx+ONvW2U/jTFZmrv2IQcLgc1yPxN8QJaeAruxtjm8v28sv2WMHcfzAI/GteXxirsWW1XBGCDXOeLbT+2lScoE+QAJ/DTkI+cdXsGVmwMLnjNbfgO6FjFcwSYKS5yK2PFOgG0G4IzAsQQBnHvXO2sD2dyVQE5IAwK5pHUj6Q+FN0i+FLVCwG1mKgnr85rsLmRJIxyhIHevPfAOpjRtEto3txJsUkH6muyfxnG6hVtUwOM4roXwnO/iHeWxPC5B9AMVLbxlZQxXGO4xUMXjBcY+zr+VOXxgoP/AB7r+VHKI6SwkjVw8h+RRkirEt19rLSqu1MkKO5HauesNem1i7itYo0VHyXI64reCCKEAdAcCoEUrn79QFvmGKsXByzH1qBAM9RQakicmphE23NJFGc9DVnHyUAcx4kT9w/0rzewT/ifj/eP8hXpXiP/AFL15xZjGuAj1b+lc8hxPpm14t4/oKKit5D5CY9BRUGT3Oa+CpzDqmem6L+b12+oR/6c/H8IriPgsx8vVFAGA0R/9Dru7w7r2Q99opP4yIlO1h+ZuO9NvYVKEEVdtE596bqGBGTtOfpVlHEaxbqgfjtXnfiCNRuIHavR9YSRi5K4HPU1wHiBWWN8AHAraJcTynxCNuTVLw4DJqNuh6PIF/M1a8SSff6ZB59qr+FDv1ex/wCviL/0KpNTv/GHgZ30q5kWCR2C5XAx3rP0TSzbW8ZO5XZQSCc84r6CsrWJ4o/MRSNo4YZBp0+iWMrhzbRKO+F61oYcx4a1uVJyG+uKiaNRySRXu50bTcDdGg9ttRPomkspHkIfwqw5jwl22kEDcPbmtbw1bf2hqQg2kmRdu0DnrXqb6HpqNxBHj6Vbs7qy06F1t7SEzn5d+0AqKmQcxw3izwxHHfCCFd6xjEhHIPt+FcBrvw9a4VnWDLY7Cvb5I1lJLKCTySe9MWzizjGc9iKoOY+cPDWgSaXqtysqeUcYAIwTXUCAY75r2a58PWN8q+ZAm4c7lXBqW18N6euA8KYHtTiKUjxI24z97FJ5B7Gvd/8AhG9KBOIY8+4qCbw/pytkW8X/AHzVE8x4rFaiRgpx1HeuvuNHT+yo0RC85xlcZwPWu9sdP0ixufMks4ZCRwPKBGRUV86Xk7SpCkQPG1RiocveKPItU8EtdxkFAcdOOtcDrvgKfTrq3maDEJkwXxwOe5r6UW0jYAbRU8elWs6MksKSq4wVYfd96Uoj5jxiytIbaNE3HCgKQKufuzwuQK9dtPCGnKvzIv4iri+GNJX7ybh6YAphzHjKKig9c0YUnrXsk3hrRsfLBz9KLTRtJtZA7WiuB2YU3NhzHA+D7Z4Zp7xV3qi7RgZ5rp4VdrZWkyOSea372W1kVo7aGO2jwDhU61k3ylrcBePm7VmIyJ2IJqOBC5H1p0/BPrUtgu9sGmal6OP0FSlMRmrdtbfLT5LcBDUcxkcR4jT91J9K83tl261x1y39K9R8TRYikwOOa8wjQrrmQfX+QrKRrE+k7ZwLaH5f4B29qKrWzP8AZof9wfyorIze5z3wUU+TqzDu8Q/9D/xFd7dcXs3ptHNcN8E2C6fqR6YuEz7fLXc3ZH2qXHpVP4yIklimWqG4bzmmf+BCy/iDg1NZt1xx71UZN6SJhg26Q8DjljijqUc7rm02x7HvmvNfEDt8w4CgY5r0rWIy4UEc8hvbFedeIYdyvxySeK3iXE8a8aotrcrLkiOX5W9Af8iqXhVwNYtEBIIljb/x7NXfiIMwQoOWaUFQOpwH6VQ8M4XVIGHPzjkdqRqfV1vf/wCjxem0fypZdTIGMmsrTZDJZxEnJCD+VOcM5x74rQ5xZ74yucSN1pyXEmzhiaqf608OAoJHyjrjrTHgJBCuwpgW1ldyw3HNERbPWs2O6NvcC2myd/3GX19DV+NiAM4J9R0oAvxyFQM81OsgHPrVESjA5H50ef8A7QqiTQ+0jnmk+1D1NUftK00z80Byl03rA/e4qJ7x271RebJpn2hh2oEXvOLHmpEZO+c1nrMc5NWI5Qcc0Fl3IHQ1LFLsqj5pHTmnCY46UEl83YGckioxfbjjJ4rPmm2jcSPYU0MzjnjjOB1oKNA3hDY5pHuiQM5FZU8coXfC5VxzsPIb8aS2vPtEe4DDBvLdPRh1AoJL7zNnipZMm1j9eapDIfg8etW3b/Rl9s1JRj3H3qm0774+tRXHLVLYf60UGp0sB+WnTf6s1HbfcqSX/V1kZHIeJf8AUyfQ15WzbdabH+1/SvWPES5SQ+1eST4XWjjqS38hUSNYn0dZndZ25/6Zr/Kim6cCbC2OP+Wa/wAqKgbOf+Cp3aLqbnjdchT+CCu1un/0qT6VwvwV3HRdTXB2m6GDjr8grtbp/wDS5sHtVP4jniXLJsg1X1USRKXhXzMgBlqXTzlTUk/eh7lHNaq0bxD5wMDlGOCPY1wniG18xHZH5Ubl28jB7Zr0q/tll3blVxjoeK5LV9HMqsEG0Y+6KuIHz94v017i6eYjkLhBjgetYfh+IQ6jAoHHmDr9a9Z8ReHSwbK8Y9K89l019NvwQvIbIOOlWbo990dkFonX7oH6VOwH7wjIccrnpnFcdo2tMbSFmbCgDJPTpXTQatFKnJGD3zVGNjP8PmRrRtxJk3yh89m3HNae0nJByPWs8Wk0d9NcWmxoJwPMjU7WBHcZ9asyXsuAPslz5x6L5DY/77xirEU9UcLLaBTmbzlIx1I3HNWizKSAenFQRWsouftV2CZxkRJnd5I75I6k09yEGFXaOw64oAmVyepx9aJJwp4IP0qk9wRxUXnZOO5PSgDUjl3danHQVjRXZQ8nirtvd7+9AFsoM0bBSg7hS0AN2CnxDDU3NPTk0ATqRnrTutV2JVsEEGmiRgDzTAbcyjzkXGRnGPept4EjDIJAqrKjSR4CnfnhsVGLv7MpF1GwZejqpfI+goAuKS3Rhkds1naeCNR1Rt37rzFK+zbAGP55plzrUskfl2NnPJKfuvLGYYlB6t8w+b6UunWq6dbGND5zFi3mkYLsfvEjsM9KQGupyoNWm5tvwrI8yRiqwo7uxwAFP5mtBoZbW1KSOGkByxB6e1SBnTtyKm00EzZx3qvKGkk4zjNXtOgZWzQBvW/3ae/3DTLfheetPP3TWQHLeIf9TL9DXkl0VXW1OOm/P6V6/wCIUzDJ9DXj2ojZrWB1O4fjgVEjWJ9G6ZJnT7f/AK5r/IUUmlKzadbFVyPLXkfQUUDZgfBN1Oh3q5G77Z0zz91K6q4OLyX6VxPwShb7Lqcwf5GnRFXPQheT/wCPKfwrsbt/9Mk+lJ/Gcxp6ceGqWcjd1qvp/KGpJT89MZWuU4rPmtRJn6VozHdxVY4yaoDn73QUulwyj8a5TX/hwb60ne33GdOQvA49q9HJyTxS7iqnCjJ4z7VYcx8928WoeH7koyyLhjwfmArRuPFNwcs5QN/swof/AGWvW7vRLa7cs0S5/wB2s+fwhYOhyI4z/uZqjVSPLx4+vrQZQg/8AxVWb4q6om7EiZz0Maf/ABNeiXfgywCH5oz9UrAv/CdmhOEQ8YzimUcZL8X9XC/66Mf9s1rKvvjRqkIOZoif+uKf41v6p4ZtQDhAD9K4bxB4bhy5ULQTErXvx61aN2EfksT38ha7r4c+L9Q8VeH5r68CmdZ2RVUYGFWNh/OvFLnQUM4U4xntXsHwlsks/Dd2kZJ2XLHn3jj/AMDUIcjtPtWzC59hz1qzZ3xJGOa88+IvjFfAvh661V7SS98plUQQuoLE477fcfnXj9l+1/ZG7lUeG7xVhO0gXOQD6cJWpmfYVjOZUB6j1FW8H5f9rp7/AErwPwx8fptd0SW8s9Aazki73sw4HrgBDj3p0n7U8Hh2K4/tvRbmeWPbvuLJSi4b7oAJcn6gc0XJ5j3gjmpIZvLcYH514F4S/av0bxp4z0zw9b6Jc2y30hRblp08pQFLZwUyR8te1WdyTtA9emMCpKGaxr+ox3LLGUVVyB8tZj+KtWjUfOn/AHxXpz+H7Oawt5HiQySRqx47kZrKuPDFmDjYAfpS5jU4VPFuresf/flalXxZq/8Az0Uj0MYrtYvDNmoXbAGJPOa0B4VsGUhoox9BRzBeJ5w/iXUmJLeWc/8ATJf8aavijUkOA6D22V6SPC1jGM+TGw+lMl8OWO5SIU/Cp5hcyOS0XVtU1KQBmIj7sExXWnRpTYB2P+sPLN3rU0mx0+zDGSMMB91QMc0/UL5psHARUGFjXpiocnzEcxzS6eV7ZNTwW+w9Kukhf8aZkE8VYh8an0pzg7DwaRGxUpOUqAOb11R5D/SvGNXOzxAmP77f+givbddjBgk57V4lr48vXU/32/8AQRUyNYn0doJJ0e0IBwYl/kKKb4cy2h2RDAjyl/kKKBs534Jrjw/fOAMG8I/8dSumvCBeyDPIFc58FsL4cvWHQXjDHv5cdb96CdRm460n8RzGtY/LCaV+aS0GIRnjikdj6UyyGTvVeTjkc1ZJLKQQKrSDFUBH5mKY820ZBpJAaif7hqyCGW7KkmqF5fkDIPNTTDrWddJ1qi4lK5v2bOeKx7+8ODzWhdJ1rHu49zUwMa/k3g5rjtdTIk/Gu2vLXg81zetWJKMcE8elSy4nl14u246d69E+Hl6tnpN0GON8m7n02CuH1W38qZs8fWpLS5u7ZNsYPkMgBx2OKyjI1M79p/UDq3w3utOsJSLp7iOVmX+FEJZv0VRXx58ONWuV8PXkVvdvDOt5IkskRCzyKF4BfklcDpjFfU3xalFt4Yny2ZJmWMbzyAMyP+apj8a+bPhJ4Uni0rXb5rcmKy1CBZ9ikEFxIMH3Iib866HHS5zP4j6B0PS49L8N+HZ5JhM91A5uIbhcs2TkFSFwPxrR+KUNt4Y+F95dukEM92Yo7co7XFw0XVnlmxsAz91V6DFJ4s1rRdc03QdN0PT75ngjX7TGsTSAkAfMpUdD1xXA/Eltf+IOsWujpaT/AGK3iFhbWzRsrlj1OMcc/dz2xWFNahJHEfsq31z4j+MOg373J/0TUg0qSOMFGR1xz/vE1+mVpaunlqTucHBx6jrX5b/CHwxrXhTxP4imdSJ9I1F7aZo3BKyo/I46gBWH4j1r9N/hX4ptviH4Xg1OOVRcIqx3cbDBUgdfrwc/jXSTGR6fHdEafbqTysagH8KoT3ZJ68ioZpHWBFHQenSqUruWzzXOWXBfMpJBNTjVnAArILsvODT423Yzxmq5QNhdVZlOaT7cTWeKeinrg0WAurdtnrQ13u4yM/WquDQifPmgC0ZNwpUpoQGnoMVAEgHFSY+SmpT6b2AxtaT/AEd8+leI+KUC64h/2j/6CK921eLfA+fSvDvGMYj1hD23n+QrNmsT6G8KhR4esCWAzEp5PsKKr+GiD4e03JA/cLRUjZifBnnw3ff9fjf+i466K8b/AImElYHwaUr4Zuzjg3j4P/AI63pTuv5STjHrVP4jmRr2uWhA9qHHan242wj1xTCCTnB5yf8AGmBEQeeKgkXqannnS3VnlZYlT72T+prD0nxpoviDUXstO1GO5ulzlUHXHXB7/UUgL7pwfaq8igAmpdTuotOsrm6nO2KGIysxPGB6muf8Ia5d+INK+23dqIVmdjCEQqfL/hznvjFWBfnj5PFUbm2bBODitV2DHhHbHU4zVdyJmOA2AemKscTBmtsjkVn3Fthsba6OQRlsLx6bqjey3nOASPSjmKOTuLLd2FY+paYzRtwMYr0I6aJBnbVS90YGFsAGjmNT558UacbeRtwGT2Ndz8PPB0OseGhcSAqzyOoPXjaAKzPiFZLDMxxyM16T8Eo1m8AWpYDc08qjPs1QhSPmj4tWE1x471HTLK0N0La3eLcUJUM2EJYdsBGXP+0PWsDw18HfGfwv0G8k0mwtNRh8T2SC7s5YGuDGQS6JhNjKSHbLncATjmvZNb0SZfjh4i04gS219HHMVxyqiTdMwPf5J849Vr3KO906/jwjxlegilXHHoPSuuc7LlMY/wAx8ueEoPFXhiBEf4e2Go3A/wBZI+nXEgb16vEP0NaviG68feOrex0iw8FJ4WC3ClbvTLP7A0RJX5y5dyAB1OM8cDFfR/8AY9keVjRP9kP0pX+y6fFl7iKEDrvcMcegFY6AfCOrfAHxJ8DPEUqwTNq41d3uxfQZaORiSJAwYckdzXo37Mutan4f+IH9nXmnzHT9WjeSWIKAiFSAZB/32c+leufFzx14ZutFfSZILm9umfzYJ40IFtIOjr/Lb3615z8LrDUNU+J3hq3uPLtLuGOS8uFhbcrRs6rGhI6ZjLsR/s1alzRsPl5T6hlUsBu6nrkY/SoHh46Vfa33EKFPB6VbFjlOAK5xnONHw1QB8OBWxeWnl5YcAHkVRWMSMcoVYdiKvmAkgAc4q4qYXHeq1vgnhTkHHTvVziOMuxxj1qDUi8sjk0bKkVhIAex5qQABN2PlH8XagzI46mCZxTSBHzjnGQvcj1/UU4XCKEJBBc4GaBEqIBUipzT/ACgvfmnYI6jpQBmaon7l/pXhvj2MpqkPHWQfzr3vUIv3bZ64rwz4kQlNQiPbzP61JrE9w8LFv+Eb0zaiEeQvLGineEomPhfSsAn/AEdaKljZmfB1QfCcwzybt/5JWu8Za+m4P38VjfBw48LMTx/pUnX6JV7/AISKxXxFLZm4Tz1kBKbhx9ab+IxidQg+VQOeO1ZniDWrPw5pk+oXr7beMZK5wWOOFX1JPOK01cbFdzgBTnFeN+L9ZfxPLeXMTh0aZtJ0u3zlZJMASyn2AHB9amUjJ7h4X0nTtQ0e/wDE/ie6d7PULiSddNkO2JyGOz5QcyHp0/Gtb4feDGbxNqHimWwGlR3K+XZ2SrtwnZiv8ORisrW/Bet+DLhNStZ9O1e0tI1SK01DCiNQOSgJ2kj1HNdb4B+KOneNLVA7R2OoMSWs3kGXx1dc8kd6yiIpfEt5NVutH8LW7FJNRk86bH8MCfeBPoSDz7V01ppqWkVtBbxYEYY8nARB/gMV57pWo33ib4h69NphiN8D9jt55FyltCh+dmHdmIBGPU1Xg8NXfh34x6XZWeq3uppND51z9pfJVSHBDdsnap/EetXzDPTIbcROwAaWVmOCRgqM+lU9Rmh0yO7vL1xFbQDLTOMgDucVDrGu69a+J7SxstEa90+UZlvS+0Lmm/FK3ZPh3rjbdg+zg8nOPm55q+YrmM/SvF+ga1qQhsNVinuGHyx5ZCR6gGr2t+ItH8NSRJqV8lu8q7kEm5sj1968ruL7TdSi8IWz6LLoiwTxPNqtxAI1cKoGFYf3jzz1rqfiReJY/Enw5PLYPrJ+yyBrWKEOX4fnB6nn9ajmA6XRvGGg6/ffZNP1KK6uSudkYdcj24qlq/jvw3aTS2UuqRR3EbGNkkJG0g4wTV/wXq9rqeoOIvC9xoTRxkpPcW6xhgewI615pY6/4a0TUfGMetwx3Ltfysga2DEjJH3j780cwGT8SBFcHzonWSJwWV1PBHrXVfBDxhotp4VtdOk1GKK9NxNtj3lQ2WPc8Z+leaX+hXS+CPKkVoPOZzErnBUZ4B9ARXY/BXXtG07QNM0fXdGFtK87CG7kgVoy4kPG71q+Y0fwnUa94PvbH4yaN4oSJTpEdlcRX0u8fuvkwMg/eyUiz+NemWel6Lq1hDMYYmjkUOjIMZU9DmuJ+K9/K2nW+jW8ojutWl8gMSFEcedrH2GBTvhBqcsVle+G7iXdLo8rBiTnfD1Tn0pOXMZnZ23hvQbppmhG8wuYXVJc7WHY+lUta0jR9OsZpFgjWNELtIx3YA6n6cGvMdP8WXPhb4ieIJZ2YeHZr3yLplOfKdwSj57Dggn2NP8AjZ4qudUsdQ0nTP3sNnGJdRuojwitgLGCO53Hj2NTGVh8xw3xNgtbpvMhVDGfm3Yxwelbf7P/AISk/tjVPEjiNocQW1qisGZhEgBDf3eWl/8AHa5vx7MLfRbWaT7wgRTjoSVGK6z4A3EugXVjpd1Mrw61bieLn7soY7h9cKT+Bq+Y1ex6XrfirR/DV5Hb6pfRwSsMr5g6jpmt3RNY0/XrMS2F5HeQDH+pIOCenToK8y+IV7FZ/FDRp5dMfVozZtm1gi8xid5P3TWh8Hvs11rviS4t4hpsk7oF0p/kaMDrIR2zke3NRzGJ3erz20L2sE5VZbmbaig8sQOg9aparJHpen3N1IdkEIG55OQAe/4V538Rb288Qa/qN/p1wUg8MRq8YzzJKT8+foAa7fxLqUGvfDa/vrfDQz2LsqH+FiBkH6HI/Cr5h8xPa2m5Ini2vCFBWRDkPkdR9abb6naz3t3aQzpNeWmPNjVegPTPvXn/AIK1rUfAOl6U2reZeeHL6NHjusEtaSMoJDe3Petbw3cRnxl47uYGE0YgjlRkO4H5eMEUcwuY6DVvFOh+GQYdR1GK3nPzsjuWZR7gdKuaZq2m+ItOludOuI7qBSA0ifwEe3UZ965T4aaDpM/hWXxVqtvFe3NyZbiaWaPzNihj8oHrXSeENf8ADmtR6jBoAjUxhZJlWAx5zjn8wajmHzDtP1mx1maS/t5hJYxROGuB8sYIZcjB64wenpUNt4m0q5tZNXF1G2nWw2fa/KIVieMD2BI5ryHwlqEmrWWk+Hb6WXTNEubiQzXR/wCXhg3EYPYcj65r1X4laXDpfwz1O3tokt4oIkRYlGFHzpgfXA/SjmL5i3qPi7TdDNoL/UobaKdA8RfJ3jGcgVZ0fxx4d168W0sdShuriQE7Y0IYhep5qOLS7S88D2rTW0U7ppoKmRckfu+MH8Ky/hDYWI8AaVcrbQifZIpn8tN4BLrjOfTH50cxB2N5Bw4IIwO9eJfFK3CSBh2kH869f1PXreANuYLnoCQK8Y+JGt295IFWQZypwPT1rQ3ie3eDDv8AC2mEZP7hen0oqT4f7X8IaYwYEGFcHPtRWZm9zB+EiZ8NygdFuW/9BT/Cupk061lJEttCQcl2ZMs3pyKwvAUf9m2N9YtHtaGQyEE5JVlGDgc10zYDEZH4VpP4hGPd2T2NuyrJ5McgKHn7oI6j2rxrwD4dmn8XXlvpGpl/sRIkv5Yy3kZPIjXoW9TXuer2013pF3DbBRcSLtTexVOe5A5rxfTvgf400S/uLrT/ABBZ2ZuGJkWB5Bzn3SokTJI7/XND8L+FNPkv9VQ6neMuyOS+k8+eVz0CIDjrVX4X+EX0TRdRvLqBLO+1N3nEcaD9whztTHY88gVjWXwx8SW12L2afT9R1Af8vN7LIxH+6PLwK2H0LxuFJEulfjO+f/RdHKHs0N8P6JqXw30JbKw02PW767md7q4WURxpk5U88t7gVseDtCOk3N1q+rzR3evX3E8sfCRJ2jQdgvTPfFYbaD43IHzaSf8AtvJ/8bqN/D/jzGVbTMegupf/AI3RGJfs0ej/ANpR/wB4YrA8dwnxD4R1LTrUxtczxbF3nA65rkzoHjo/eGmjPrO//wAbpf8AhH/HeOG0zHb/AEqX/wCN1fKT7NGbc6D4t8R6HYaFqb6dY6ZD5fmzwuZJWCYCqB26dq1fGGl6yPFmi6toUdrL/Z8DR7LqQqGz0Hy1A3hnx8WyH0z/AMC5f/jdMfw18QA3/MNI9ftcv/xuo5SuVG54d1jxZJqscWs2ulQWDqfOe1lYuCOmM+tZWk+D08rxbFq0Vv5WqXck8DjDOqkcc9uTUB8M+P8A+7pf/gZL/wDG6RvDXxAMRBGlhfe+k/T93V8oWR534i03V9K0GXT5popJ7RilrcMd4kjHAVgOnGK3Phv4V1/xl4S0qwuBaWOj2981xJIjt5zEHIC96frPwu8d6tnKaVgnqbxv/iK7z4aaR4l8DeGYtNudNtLiZJpJS1vd7UYMcgHKc1Mog37pg6zoUPiPxtfXespFLY26vBYwCQ9dxDFu4z71Y03wjF4W8ZWOp6DBH/ZskflXlvLNngDAIJ61gX/w++Itzq95cwrpMVvNdSzrG99JlVZiQvEfYHFaMXhn4gxxBPs+nY/6/W/rHVKIJI3tF8MKNU8T/wBqJby2Op3KyRJ1yuxxk+h+fNZWoeBoNL+HF/oemt5t9cgFrqduXOcjJPoOKhPhr4gg/wDHvYEe143/AMRSTeE/H1xGQbbTgfe7b/4inywCyPMfiTpktyumWr7PIhjCzDdjJAxXeeFPhgt54C8PapoMMdvrsUxny8h/eKHfIyen8P1yaydX+D3xA1RixTS17/8AH7J/Ly69Q8AxeI/B/hXT9Lu9MguLi2V9zwXnytl2bumehFZuJbSMHxVb65c+M9L17SY7SWSC3aN4rmX5QxDZ/nVvQdE1i21bVvEeoy2f9rXNr9mgtLY/ukAHBJ/4COawIvBHxCilyI9MMYbobxs4/wC+K1v+Ea8eAf8AHvYfheNj/wBAq+UiyJPDvwq0OTS4X122F9rEp33E7SttDM53AY4IAY4z2FQ6N4U1bS/Bev8Ah93ja2kEo047+Srq2N3pz/Onr4c8eZz5FgB6fbW/+Ip39hePAciKwTnH/H2x4/74o5QsjpvDukRReDbDSNSSKcR23lvCSCucAHn27VieBvAy+DtX1kxS+fYXkSrEshyy4Ygqfwquvh7x4D/qtPPv9sbn/wAcp48P+PO0Onj/ALfG/wDiKjlD2aKkfhnxJ4KnuIfDb2WoaLNIZUsr5drRZPIDD37GtPwV4X1ay1XWtT1d7ZJb9FBgsuAuwHAz3yTVc6B47zzBp5P/AF+N/wDEVIuieOwnFvp2f+vxv/iKOUOVDNB+Gxl+Hz6FqrKl0Ll5o2i5Mb7lw24fTNOuNA8R678Ob3RNRFudUCCNLjzBiQK3ysffAqSPSPHiL/qNOz/1+t/8RUiab457wWGf+vtv/iKOUOVHTxaXMvhWOxypnW0WEDoA3lsD+Ga5Tw9p914N8D2Vreqv2i3BLhDwQWNW103xqF5trA/9vR/+IrP1bwx4y1W2aJobBQfW5/8AsKOUuKPP7VdR8ceKYtNhlaGEON7BskKBgmva/D/w+0Dw9ZrHDp9tM45eeeESSSH1BPSuT+GfgXWPCmv3dxqcVuEmi/dvDKWIbP0r1EkkknqaYpNEUUH2ZBHEgRB/CoAA/LiiplJI4BP0ooMmZ2t+G7X+0bPUIWltLxSUMsD7S6joreoqQ7/m/ePwfaiiue7BFmwdpY2DsWxwM06bCjoKKK1uYjQ/T5V/Kq7zsJwMDGemKKKdyidJW3HpjPpU+M0UVF2MWRQsBI4PrWcksjYy560UUXYF5gcA5OapajK8O0o20kc8Ciii7Agt7qbYxL5Puo/wqK41GdIQQyg7uuwf4UUVVyCK81u5gj+TYDjrtqzo95Ldx7pSrkjPKiiii4F8lgThiB6CoHkcP980UU7gSGV/KJ3c+u0f4VS+2S/3h/3yP8KKKV2BQl1y4SXaBHgMR93rV6LU5ZHwVXHtn/GiipuyjUhHmyR7icEA4q3Lapk9cfWiildkkfkAdzUgjGBRRRdgTrAhUcU0wJnpRRRdmhEyYY8mniJSBRRRcBfs6HtSGBM9KKKLsA8lagmXEigEgUUUXZZXuVARjjkdDRbZZVJY8gUUVd2YFjywvQkZ5oooqAP/2Q==;rotation=90;" vertex="1" parent="1">
                    <mxGeometry x="83" y="386" width="325" height="325" as="geometry"/>
                </mxCell>
                <mxCell id="3" value="" style="shape=image;verticalLabelPosition=bottom;labelBackgroundColor=default;verticalAlign=top;aspect=fixed;imageAspect=0;image=data:image/jpeg,/9j/4AAQSkZJRgABAQAAAQABAAD/4QBoRXhpZgAASUkqAAgAAAADABIBAwABAAAAAQAAADEBAgAQAAAAMgAAAGmHBAABAAAAQgAAAAAAAABTaG90d2VsbCAwLjMyLjYAAgACoAkAAQAAAAUBAAADoAkAAQAAAPcAAAAAAAAA/+EJ9Gh0dHA6Ly9ucy5hZG9iZS5jb20veGFwLzEuMC8APD94cGFja2V0IGJlZ2luPSLvu78iIGlkPSJXNU0wTXBDZWhpSHpyZVN6TlRjemtjOWQiPz4gPHg6eG1wbWV0YSB4bWxuczp4PSJhZG9iZTpuczptZXRhLyIgeDp4bXB0az0iWE1QIENvcmUgNC40LjAtRXhpdjIiPiA8cmRmOlJERiB4bWxuczpyZGY9Imh0dHA6Ly93d3cudzMub3JnLzE5OTkvMDIvMjItcmRmLXN5bnRheC1ucyMiPiA8cmRmOkRlc2NyaXB0aW9uIHJkZjphYm91dD0iIiB4bWxuczpleGlmPSJodHRwOi8vbnMuYWRvYmUuY29tL2V4aWYvMS4wLyIgeG1sbnM6dGlmZj0iaHR0cDovL25zLmFkb2JlLmNvbS90aWZmLzEuMC8iIGV4aWY6UGl4ZWxYRGltZW5zaW9uPSIyNjEiIGV4aWY6UGl4ZWxZRGltZW5zaW9uPSIyNDciIHRpZmY6SW1hZ2VXaWR0aD0iMjYxIiB0aWZmOkltYWdlTGVuZ3RoPSIyNDciIHRpZmY6T3JpZW50YXRpb249IjEiLz4gPC9yZGY6UkRGPiA8L3g6eG1wbWV0YT4gICAgICAgICAgICAgICAgICAgICAgICAgICAgICAgICAgICAgICAgICAgICAgICAgICAgICAgICAgICAgICAgICAgICAgICAgICAgICAgICAgICAgICAgICAgICAgICAgICAgICAgICAgICAgICAgICAgICAgICAgICAgICAgICAgICAgICAgICAgICAgICAgICAgICAgICAgICAgICAgICAgICAgICAgICAgICAgICAgICAgICAgICAgICAgICAgICAgICAgICAgICAgICAgICAgICAgICAgICAgICAgICAgICAgICAgICAgICAgICAgICAgICAgICAgICAgICAgICAgICAgICAgICAgICAgICAgICAgICAgICAgICAgICAgICAgICAgICAgICAgICAgICAgICAgICAgICAgICAgICAgICAgICAgICAgICAgICAgICAgICAgICAgICAgICAgICAgICAgICAgICAgICAgICAgICAgICAgICAgICAgICAgICAgICAgICAgICAgICAgICAgICAgICAgICAgICAgICAgICAgICAgICAgICAgICAgICAgICAgICAgICAgICAgICAgICAgICAgICAgICAgICAgICAgICAgICAgICAgICAgICAgICAgICAgICAgICAgICAgICAgICAgICAgICAgICAgICAgICAgICAgICAgICAgICAgICAgICAgICAgICAgICAgICAgICAgICAgICAgICAgICAgICAgICAgICAgICAgICAgICAgICAgICAgICAgICAgICAgICAgICAgICAgICAgICAgICAgICAgICAgICAgICAgICAgICAgICAgICAgICAgICAgICAgICAgICAgICAgICAgICAgICAgICAgICAgICAgICAgICAgICAgICAgICAgICAgICAgICAgICAgICAgICAgICAgICAgICAgICAgICAgICAgICAgICAgICAgICAgICAgICAgICAgICAgICAgICAgICAgICAgICAgICAgICAgICAgICAgICAgICAgICAgICAgICAgICAgICAgICAgICAgICAgICAgICAgICAgICAgICAgICAgICAgICAgICAgICAgICAgICAgICAgICAgICAgICAgICAgICAgICAgICAgICAgICAgICAgICAgICAgICAgICAgICAgICAgICAgICAgICAgICAgICAgICAgICAgICAgICAgICAgICAgICAgICAgICAgICAgICAgICAgICAgICAgICAgICAgICAgICAgICAgICAgICAgICAgICAgICAgICAgICAgICAgICAgICAgICAgICAgICAgICAgICAgICAgICAgICAgICAgICAgICAgICAgICAgICAgICAgICAgICAgICAgICAgICAgICAgICAgICAgICAgICAgICAgICAgICAgICAgICAgICAgICAgICAgICAgICAgICAgICAgICAgICAgICAgICAgICAgICAgICAgICAgICAgICAgICAgICAgICAgICAgICAgICAgICAgICAgICAgICAgICAgICAgICAgICAgICAgICAgICAgICAgICAgICAgICAgICAgICAgICAgICAgICAgICAgICAgICAgICAgICAgICAgICAgICAgICAgICAgICAgICAgICAgICAgICAgICAgICAgICAgICAgICAgICAgICAgICAgICAgICAgICAgICAgICAgICAgICAgICAgICAgICAgICAgICAgICAgICAgICAgICAgICAgICAgICAgICAgICAgICAgICAgICAgICAgICAgICAgICAgICAgICAgICAgICAgICAgICAgICAgICAgICAgICAgICAgICAgICAgICAgICAgICAgICAgICAgICAgICAgICAgICAgICAgICAgICAgICAgICAgICAgICAgICAgICAgICAgICAgICAgICAgICAgICAgICAgICAgICAgICAgICAgICAgICAgICAgICAgICAgICAgICAgICAgICAgICAgICAgICAgICAgICAgICAgICAgICAgICAgICAgICAgICAgICAgICAgICAgICAgICAgICAgICAgICAgICAgICAgICAgICAgICAgICAgICAgICAgICAgICAgICAgICAgICAgICAgICAgICAgICAgICAgICAgICAgICAgICAgICAgICAgICAgICAgICAgICAgICAgICAgICAgICAgICAgICAgICAgICAgICAgICAgICAgICAgICAgICAgICAgICAgICAgICAgICAgICAgICAgICAgICAgICAgICAgICAgICAgICAgICAgICAgICAgICAgICAgICAgICAgICAgICAgICAgICAgICAgICAgICAgICAgICAgICAgICAgICAgICAgICAgICAgICAgICAgICAgICAgICAgICAgICAgICAgICAgICAgICAgICAgICAgICAgICAgICAgICAgICAgICAgICAgICAgICAgICAgICAgICAgICAgICAgICAgICAgICAgICAgICAgICAgICAgICAgICAgICAgICAgICAgICAgICAgICAgICAgICAgICAgICAgICAgICAgICAgICAgICAgICAgICAgICAgICAgICAgICAgICAgICAgICAgICAgICAgICAgICAgICAgICAgICAgICAgICAgICAgICAgICAgICAgICAgICAgICAgICAgICA8P3hwYWNrZXQgZW5kPSJ3Ij8+/9sAQwADAgIDAgIDAwMDBAMDBAUIBQUEBAUKBwcGCAwKDAwLCgsLDQ4SEA0OEQ4LCxAWEBETFBUVFQwPFxgWFBgSFBUU/9sAQwEDBAQFBAUJBQUJFA0LDRQUFBQUFBQUFBQUFBQUFBQUFBQUFBQUFBQUFBQUFBQUFBQUFBQUFBQUFBQUFBQUFBQU/8AAEQgA9wEFAwEiAAIRAQMRAf/EAB8AAAEFAQEBAQEBAAAAAAAAAAABAgMEBQYHCAkKC//EALUQAAIBAwMCBAMFBQQEAAABfQECAwAEEQUSITFBBhNRYQcicRQygZGhCCNCscEVUtHwJDNicoIJChYXGBkaJSYnKCkqNDU2Nzg5OkNERUZHSElKU1RVVldYWVpjZGVmZ2hpanN0dXZ3eHl6g4SFhoeIiYqSk5SVlpeYmZqio6Slpqeoqaqys7S1tre4ubrCw8TFxsfIycrS09TV1tfY2drh4uPk5ebn6Onq8fLz9PX29/j5+v/EAB8BAAMBAQEBAQEBAQEAAAAAAAABAgMEBQYHCAkKC//EALURAAIBAgQEAwQHBQQEAAECdwABAgMRBAUhMQYSQVEHYXETIjKBCBRCkaGxwQkjM1LwFWJy0QoWJDThJfEXGBkaJicoKSo1Njc4OTpDREVGR0hJSlNUVVZXWFlaY2RlZmdoaWpzdHV2d3h5eoKDhIWGh4iJipKTlJWWl5iZmqKjpKWmp6ipqrKztLW2t7i5usLDxMXGx8jJytLT1NXW19jZ2uLj5OXm5+jp6vLz9PX29/j5+v/aAAwDAQACEQMRAD8A5c0AZpQM1YsLG41O8itbWFp7hzhVQdW9fpX8vUacqkuSn8R+xylGMeaRXbCEDK7t23a2cn6Yrr/Dfwp8R+KLfz4bVbOxf7t3dkqP+Ajqfxr1nwL8IdO8LQQ32rxrfayxysZAMUP+yoPDN/tGu8luZpn3qSGP8QPNfqWV8IQlDnxju+x8fjM7tLloHldh+z1YwR51DVriaT/p3jCD/wAerZh+CXg2Fdsq3sj+rXQUfpXeRaXcXCZSIMPQjFEnhu//AIbYn8RX3FLIcBSjyqimfPyx+KltI4UfBfwSfux3X43ppv8AwpLwd/zzvP8AwMP/AMTXay6Pfp1tn/AA1XaxnTrC/wD3xW39i4H/AJ8Ij69iP5zlv+FI+Df+ed3/AOBLf40z/hSvgz0u/wDwLP8A8RXTG3/3V+qmgxr3Cn6DFH9i4H/nwg+vYj+c5f8A4Ul4M/vXX/gZQfgh4NHWS7X/ALeQa6XYv90flShFHRQPwqP7GwH/AD5iL69iP5zmf+FHeD/+fi9/8Cl/+IpB8D/B56TXTf8Ab4g/pXT7F/uj8qCoPUA0f2NgP+fMSPr+I/nOcb4L+DrYMRa3twvql5moh8KvBUX/ADDrqT63Tiutt7u5syTA2B/czx+VX119tvz2lvJ9Bitf7HwX/PqIfXsR/OcF/wAK08E/9Aq5/wDAp6S1+HHge8u2thpc8RVeXa8eu0vNVe53IkEEH+1EuaomBSSSoJPU460f2PhP+fUSfrmI/nMo/CfwKvWzDfS8ej/hVvgT/oHj/wACZf8AGtQIV6cfSk8kehqv7LwX/PtfcivrmI/nMv8A4Vr4DXrpqn/t5l/xpyfDjwMvXS4z/wBtZP8AGr5gz2/Sg24P3Rn/AIDR/ZeD/wCfa+4n65iP5yofAHgZuujwH6s9O/4QfwR/0A7b/vlqtrA5+6M/nUi2so6IzfVav+zcL/z7X3C+tVf5n95T/wCEJ8E/9AG2/wC/D0P4M8Fj/mAWv/gO1aA0mc/dgI+tTQ6BcSf8s1H+9R/ZuF/59r7g+uVf5n95hv4G8FXC7f7EiX/ajidf61kXfwY8I6uhaxmnsnbo6XAcfka7J/DdwBjbF+dULzQL6IBzCJMf3azlleCmuV019yNI4zEQ95TPHfFPwR1vQopJtPZdZhT73kf62P8A3l6flXnhI3MvRlO0gggj6g19Lw+I7/RyAQ0qp/yzlHzj6E9KpeKfAOjfEzTmv7EJp+soPnfAG9v7sg9f9qvhM24Spyj7XA6PsfQYLPJ83JV2PnXFJVzVNJudFv5rK8iaGeJijxt1XHRge4NVcV+U1qU6M5U6itI+0p1I1I80RtFFFcxoFfQ3we+Hy+GNHi1q9jH9q3SK0asvMEI6AejH2ryH4Y+GU8V+M7C0lUvaI3n3A65VBnH0JAH419PzvJe3f2eM7cY4HC8dOK/VOEsrjPmxdTp8J8dnWNlFxoQFtoJ9TlKIpwepboPrW/aaXDZxYKiU/wB5+lWbe3hsLVyG2r/y0kP8X4VloZ9bkJBMdqOgx1r9ZR8d5lyfVLW3ODJvHooqumvWwODFNj1VatQaXawfcXd/vDNWBBGBgRoB7KK05SCrD4jsB1lkh+q5q5D4hsZfvXaH/roNv8qYIIG6wxn6qKc+n2E33reNP9ziq5SC/BqOmyPmW4s2HowzWhbQeHr1trLpsp/66qv9K5p9C0phnyCx9FcitLSvA+hao5Ba+s9y7g5ZWRfqetHKB0y+DvC1yu8W9ln0F0oqpdfD/wAOpH8sKM3+zcChPg1YzOVhv7lcfeJKkH6VQ1D4SwWD4TV5nb1EQFQBWuPA+iQ7cW7/AIXGay5vC+kx/cjLf9tDUsngswfc1Gb8BVSXw7MvTUZB9Ca05QsRv4Y03f8A6uT/AL+VD/wjth/zzf8A76ofQLtD/wAf7t9RUX9kXn/P8361PIgsSf2BYjqjHPq1N/sOx/uN/wB9VEdIuj/y/GmjRZl630tRZAT/ANjWKf8ALDd9WoGlWi9YV/76qv8A2JJ/z9y0v9gKOtxKfrTAlFlaBuI4f+BAUpWyj/hi/IVAdBhbrLIfqxpf+EftB94OfqaAHm9sous0X/AaifWLSPoxP+6KP7Jt0fHkhl9Sxp0dnbYysQB9DTuBC2uW56bz/wABpjatu6W7n8K0BEi9EUfQUMwXoMfSi4GQ+tToNzWeR7E0tr4otfM8uffan/a6VqvIcYycelUruytdRXy7iBGX++vDfnSAZqemWOuwYkAZT0uI+orz7VbC/wDCOpxzxtu38Rvj5JE9G9DXRXVte+E5DPbSG804nDL/ABIPUela1yLTXNMeGQfabO4Xrno3r9amRZwXxJ8L2/xC8JprmnJH/alqoZsDlk7xEd2HrXz6ckkYKsvY19F+CdUm0bxLdaXcNlJWdRz/AMtV/oe/rXj/AMUNCTw343v7aBSlrIyz2+4fwOMkfQEkfhX5NxflkYcuMhuz7PJcVd+wkclRRRX5UfZHsv7N9mo1TW7w/eiijhU/Vxn/ANBr3Lw7ZiSa6uSoIQbVBHevGP2cwGsNfYfeWWLnv/HXu+hJ5emEjgs7civ6G4bhy5bTPzPNJf7XIbcKdQvVts4ij+d29/StDaqqBGdgHZeKrWCZgmn7zSsfqKkB29a+rjE8YlprvTWkwGLcKveqz6lEG4Dv7heK0JLuMUvmVRGrwj7ySD/gNOOq2gGfN2n0KmmIuopz7103hO/axuUYrv3jDKe4965ODVrN0x56KfcVv6Re2Fs0TvcieZm+S2hbG7/gXaqIkdp/bT6dcXFghyI2LI4POxugPvWfrF9JOjHzV3/Wn2Ng04lnuWj+1XLhiqDcFx0xzVHVdJ8pndhs/wB8j+lKyGZM1171mzPVi5XHVh/wGqMhqwGOKifinuahc1mUMphANLmmZrEBzqB2FNkoc03OaADNI/3d3am5qNrpE+R2FACO+enH0qDZ++3Y4202fUbYDIlUn0UVGdTgXrvb6LWoFrNMeqz6ko+7BK/6Ux76VvuWr/jQBZeo3Y+pqldaubEqby1lgj/57dQPqKuth1VgQQ3TbQAjAOjIw3IwwVPIIrltHH9kard6Rybcr9pty3UL/d+tdO5xXI+KLg2XinQJdxH2h5IG57heK5yzgtU15dP+Lt5DnASSGVADxgqufzzSftG2Krq2j3ITLSQuhbPJ2Of/AIquO8aXePjRqLRktsdE6+mzFd9+0bGBYaFIAMmSYA+gKoT+tfK8SQ58tqM9nK3y4mJ4hRRRX8+H6Ye5/s3gf2d4j/66xf8As9e8aP8A8glP9968J/ZvH/Es8R/9d4v/AEF69z0U77HGeNz8V/RnD3/ItpH5hmX++SLEHy2Vvjj5c8UdaIP+PO3/AOBUV9RE8kinBmaGHJUSt82Ktb1C7YgUX06Cq/W6tf8Af/8AZakyS3U0yBxkc9QD9aXKuctGjH3UGo6OlAFhbO3f/l1i/wC+RTDpFjJuVrSNlbqVOM0gkx04pwlkYYA3D2pgMTwxaId9jLc6bN6RvuFRy3Wr6E0klyf7Rsx1mRyxH+8vb8KvwFnjyUZT6kE1etVmhkEiq6sOmBjFPmAz7bU7S/jVkYqP75+4Pr3qS8t2gCkMrr6iq+t+HDNvv9Nj+y3wGXjC4jlX0YdFP0rLsdcjmDwSMYpIvvxyjBX6etMk0GDD7wxUb/L1p7XAl6yoPxFRGaM9ZFP4ioKGPxTH4pXlT/non5ioftEJ/wCW6f8AfVZAS9aimPkIpfhm/hHJq15ttBaoyTR3l9IMpCn3UH96T0+gqFE8slz88zdCedv0oAqvDczdSLVPU8mmCwt4VwytM3q5yatZb1b8hUcq46cflQBXCIDkRID/ALoqQEL0QD6CkYY74+mDQ71qApYnuaa8p9T+dLUUjBulAEF5Gl7byxyZYOmMNyCaxPBmovqnhqxunGGda365X4dP/wAUXpn+63/oTUAdI9cR4/JGueEW7PqL/wDopq7d64f4g/LrPgr/ALCLf+inrCRZ4P4onVvitrUqN/y3b9OlesftDASaB4ff/pu//or/AOsK8Y1Obz/iHrDlQP8ASZf/AEKvavj4N/gvQZcf8t15+sXNfL57/wAi+qexlv8AvMTweiiiv55P0094/ZvH/En149zPEp+ux69u0Q4s3/66NXi37NwH9ga2cc/ak5/7ZV7R4f8AnsXbt5r1/RnD3/ItpH5hmX++SLNoc2UOefv06m2f/Hon+84p24elfURPJGR83Fv/AL1P/jpkf/H1b/7/AP7LT/46ZAUyaZII9znFKxADMxwFqjDbyavMxfK2qdD60AD3k94dtrGQn95qmi0vUe90YvqxX+VWNQ1S00WFUB3v/DCnV/qe1c+/i6735jWCAejrupcwG8ltrK8R61Io9POb/GppNP8AEMQ3Jrcc30nYf+y1zS+OdTjOCbVx6m2U/wBKtW/xH1WIYFvYyD0+yYqeYDTz4lijRDqUjc54kHWqGpeHtT1CZJriJZZh/wAtMDd+dA+JuqD71pYj/dgIqsvxDvrgsJrCBWX7pVWwaOYCJ/BdyG/49z+YqP8A4RW5/wCeDfpU3/CcTH/l0h/77NM/4TaX/n2h/wC+zRzAQ/8ACLXB/wCXc/pQPDFwOkY/4FUx8ZzDpawH/gZpD4vuZesMI/4EakCaDStQtFIgkMYJySFAyfWlOmamB812SPYmqj+KLwjGyPHptb/GoR4kvx0Cf9+2oAujR789blx/wM0w+Hpj1u8/8CNUn8Q6l/z0X/vgVUfXdQf/AJbsv0WgDSn8N3iJm3uArem81QfVtR0aXy9TtneNPvOi/OfoOlVT4xvrGba7i4T+4w2H8xW7pXiS18QQGGWNX2nD20vUj1XNAFq3v4bqFJ4nV4T0cdfxFOxu6VzV5af8IdqkdxbyGTR7ptrKw5i/wro1fIJXlW6GtQCuU+G4B8Eaf/wP/wBDeur/AIq5H4agnwdaDJwGlwP+2r1nIDpHeuJ+IpP9ueCj2/tF+P8AtlXauK4X4jkpq/gxsnH9ov8A+imrGRZ85NKZfF+pMSSzzynJPP3693+OKl/hzoUnbz4v/RVeBWj7/E1ye++U/jvr6C+LpE/wj0iTGdj2z/mjZr57OffwNX/Cetl/+8xPAqKKK/nU/Tz6A/ZyAHhnWH/6fP8A2lXsfhtx/Zf/AG1evIf2dAF8Fak+Pv3zf+il/wDr1674bT/iV/8AbV6/pDIfcy2l/hPyzMP95kXLX/j1T/fanYptt/x5p/vPTq+gPNIEYeenzfOG4FT1UZPKbzRy1Wc04kFfUjttgF5Z2VcVY1C7XQtLJUKSBtAYdTUDJ5t9aoeU355rF8eSP/o8e44zvxmr5gMM3TzOzs7MX+8Sev1ock9DioLcEnaozUup+Zptk1w6EKPuLxlvzrMCJmCr0BT1JxWdf+IdO08MJrlWb+6hya868Q+LNU1GYRh0toz92NG5/E1ykk8pfftbf/e4z+dZcwHqF78SbaIbbWzaU/7ZrBufiVeyhxElvCD02/Pj86xfCvhLXPGtwPscJS2X795LxEv49TXrug/CTRdFjRruJNSuD995vuD6LQB5xZeOfEOoFRarNdH0t7bzB+YxW7ZTePJvm/smWRPQxop/9Cr1+3tooY2SKKNEXsAFX8qyZ/iF4bivGtJNZtWnXqi7m/UVQHIWV34ki3fbvDdyq/8APSBgf0rZtb03SZMdxbN6TpiuyjaKZPMiMcqHpJGd35g0+RFl++of/eGasDktoPYUeV7CuhutGhk/1f7p/wAxUFvoPnP5fnRof7znigDFdKrzKa6xPDMJ+/qMFNPhiynBVNThy3TdxQBwV5H8zDHFZEs8ttdLLE3lzR8oc549DXZeIPDl5pR8xoxNF/fj5FcJdXCmYovOeDQB6JLdx+JPCVxN1LRMzKeSHXrT/CGp/wBseHbS5BJDr1zWP4Hb/iUX8I+Y4L8++7P51W+Csxf4eaeWJY5kTJOejcUucDt5JFjVnY4VVZia5L4bRyDwNpkrZHmh5PwZ9w/StPx1qf8AY3g7VblRmQwNDGvcyP8AKmPxq3olmNL0DTtP2hRBbrGcDHO2jmLJZG29VLfSuB+KL41Dwiw6DUX/APRT16IOOnFecfFFgreGXI6am+Pb5HpTA+btLJOtXBzzufn8a+hfiQpm+CGnt1/49W/CvnrT1KazN/wOvojxj/pP7Pto46iO3YH23V4GZx5sHV/wnpYH/eIHgVFFFfzi9z9TR9Dfs/8A7rwHeOfuG9lY+3yJXo+n+LtK0XQ1nu7xIkZ9wx8x/KvN/gn+5+F2oyfwtPPj/vhK4rQ/tPiHxJJaQWr38m393bq20Z9XP8Ce45r+kcmjy5fS/wAJ+WY7/eZHp9v8bUknngh0aS4iRvl2S4f/AL4xn9a7Hw/40sdckMWy4sbgfeguozGx+hbIrntK8ILY2yreXlxPI3WGzJtoE+irhm/GtuK3a2QJDNOEHRZJDIP1r2zzToyAydBRFymDyfWqFveyEE8Ej7w/wq8j7h5g4FMgQMEv7Lj/AJaVjeLVE84XAJETY46VrP8A8fNoe/m9axPEl0ttr9hbPyLi3l6/3t3SqAht4rLRNHuNX1BxHaW46Hq7eleQ/GPU9evprfU1kW50OZd0P2Q5SP8A3u9dR8cNdUHSPDkQCqEWaYdmZumfWuR03UmsmKSL51qRgxv8wI+lTIDgfshmUt5z8+1dl8O/hjJ4nuRe3ztHpMTY6Ya4b+6PQe9W9P8AAS69r9rHYMF02b5psHBjH9K9xtLOCytY7eCNUt4l2KgXHy+mPSsQHWVjb6ZZRW1pEsUEX3UVQP5VKykDA4xT++e9HWrA5H4qXd3pngHVZbNvLl2ITIg+ZAW+Yg9sVzvwe8J2I0dLthi5mhW4Y45+90Br0q8sYNUs57O6UNa3MfluhGQR6EVxnhuN/Czf2c8bOIh5SyDg7frVAdmRFbSK8Kqij7yKMA/hVuVNny96y5rkXYhjtbc26fxs7bmP0NbEzAvVgVwcVBKoYcgH61ZcYpmAewqQI7O0tbiUxznYT9xu341V8Wx6L4d0o3d/dfZ2AxHGPndz/dA/rVoxA4yAcVhReFYb3xPca1qsp1EQhVs7abpEPQjvVAUNH1bUtO8Mz3uszG0s7hP9GsXGZG/289vpXkOl6vL9tuLacETRH5S/JZfWvU/i3pFx9ghvLuRiS+VjB4B+leRakjPqljfKQC6tFLnvUyA9F8C6zHZWmt3N1KsUCIoBY9Pl/wDrmuN8MfFO08F+ALKyiU3GpSPIyRHomX+XJ9657xpqM1tof2WFtkM7Ym5wWrgpCZY4FAZsqM5746VyVKsi4nXa58S9e8Q3Akvb1/JjZZltY1CoWU5X247elPsfip4rvLoJHq1xLcH7sSqrg/hXHwwPeXMdpDG0ssjqkcY6szdBXs/hDwLLba2/hrSZjbXFiqSa5r0ahpo2P3ba3/u+7jmsYylI25Tb8NeMvF7ssGu6da20T/IZ5riO2mQepVmFaHxF0661Ox0GaxtZNQjt7/fKYBvYLs64GK7HR/Cuh6DCFtNMtY3/AOesv72Zv95zyfzrUiiRcukZQnqYwBmusg+JbY7NXlJGSrMpAyGH1Br6D1Vxdfs5x7eNltF97/rrWV+0F4Js7b7D4is7eK3nkkMF0YxtExHRjjoT61oWMovP2b2Zv4bVlOfUS8flXmY+P+y1f8J24WX7+B4TRRRX81vc/VVsfQvwhDR/CO6IG8PLdFVHU/5xVf8AZ502VdH1bULqCW3vGvmt2jnXDqqKuMZ9dwq98GpvI+E5mCglHumxit/wn4qh1nWNaUOGMlwsjMTwrFBlT78D8hX9KZV/uNL/AAn5Vjv94kcd+0R8brf4HeFLXUZIvtdxdyNFbQZOJW27sH04rjv2WP2mNS+Omoa7pWr6XBaXunwx3cU9mxeOWJmKbTno24ofoT6V638U/hL4c+Mnhd9E8R2rXFsG86CeF9ktvLjG+NupGOMVl/Br4E+FvgXpl9a+Ho55Zbwg3V7eTLLLKBnCkr8qgbm4HqfWvYPPkejqwjdG6ANWpbAKzREZ9qx2DSSpGoyScn2X1rStZ1l12WAOM+TvoIFmBju7RQSf3tcn8SZzZ+IdBlIxt35rsbgbL+y/661xHxdBXUdJYkn92xpgeW/E6+fVPHZncgjZGq49VqARFOpNU/ERLa9bknJ25ya1hCZSoH3mbbisrgei/DjQP7O06S4bar3J3qAP4fT6Vj+NvjPZ+GtQNjYQpq00JYTylyqxt6DHWu/srRLezijGVMabBjtXxh4+S+8LarqsDhxNaCYmL++y9wf4j71hiJyhHmNon014W+NnhvWx9n1LULPQtTX5Tb3l5GglP+xlj+tegJKkgJWRCh+6wYEN9CK/OzWoNNvfhtrHiPQ9atLbxbpcq2esQXKpKt3HJhoprVmG0SKoYSDHBHFfR/7Gur3mo+HtV0m9e51C0tba2urW6uUBKvLv3ovsMLwfWuDD491pcsjWVKPKfQ2w5pJLSG5ffLEJH/vd6chylG/d0r2jnJUS3gClI1yvQgDiuX+I/jL/AIQ3w5LfRIJLt2EECNyN56k+wro81w/xd8MSeLPCFzHA/lXNpItwjHoc9V+lOp8IHidx8dPEmgF9TvdWBtIzmRZ4FZSfRVWu38M/tYeEdWmhi1SDUPDzGXyHuNQhBt0fb0JU5Ue7Zr5H+JEk12ot2VrpLK7xeW7yFWXc21DkdgVOfrUVp4QN94d0jXfBPhC902HTEFtruoax5k0VxKWyWVmHlq2OAoOMV8+8ZKMuU6OT3T9Jop4rqIPDKkqFVbdGcj5uhB7ipLdhBd287ciN9p+nrXDfAqxu9P8Ag54Qi1BSt2tlld3URM7lAfoCAPTAruCARg8j0r3Y+/HmOeRz3xrkV9Dtyhyvn4zXhV6rGKxYjIWXpXsvxYkz4VssnOZa8enJNvb55/e0SIMjxzA82lQuiE+VId7dhu6VxLSmC1ifGCU2gj1r3PR9Eg8QaF4htJxkC2aVGx90joR6EV4jqFu/9iWMygmPzCrvjhc/dz9a46kTaJ2vwD06LVPiNazTrvWzjNyA4z84G0fkWFevfBW3b+w9cubg+Zez67dtNu+8GEu0DPsoB/GvKPgLdx6f4gmvJ28uB8Wxdj0DHOfzAr3CKKPwjr9y0gEel6tO0zMq8Q3B/wBYD9cDDVrSiFzhP2pPiXr3wu+HTah4fs45Lm4l+zSXzIXW0G375Qd/bpXln7C3xN8X/ELV/GVvrmoXGsaZapFNDc3DFxHKxw0ak9gATgf3fevq67toL21e2uY47m2lTy2jlUSRyL/dIPBHtUOlaTpui2z2+m6baabbu/mNFaQLErNjG4hQATgDmukDA+KXhm98XfD7WdM06JZ9Rki8y1jkOA8oO5RntkVxXhC0uV/ZzurW9iMd3Fb3CPE4GMpK3OR9K2/jz41vPA/w2vtVsj5G2eCOS5B5Xcdgx6NWZ8OphqnwP1MqxcyQ3ZJc5ySuSfzya4sbHmw84/3TSh/GieBUUUV/M0l7zP1hbH0R8If+SRSL3ZroVH8INEjsNW8U2Wobohf3MV1BM/qE2kqexJq78F7UTfDCCNjhWnuBn23V6I3hSDUvDltcxRlLq3DRqV4OPXNf0jlX+40v8J+YY7+PIrLDqFqdjot5GDlJ0OCT71cs4rqeRla1aEquVY4IJrMS9vrVwm5ZEXrkYNSvq94Y9oAFeqeYaErQ6JbPNK/mTsMAdePSuf0K8mfWTcygBpTjjsvp9Pan3BluzmUFj6tzU+iWX+mocHC9RQB0t4/+n6f/ANda4z4vfPfaUv8AsP8A+hV2U4zqWn55/e1yvxGiFxr2hwkBg+/k/wC/QB4t4mtWttehRxh1XkVq6dze2uefnU1q/FvSfsni+1dFASW1V8gYrLt/3Jil/wCeZVjUge25r50/ab8L32ofDufXtJUHUNF1p3dwuXeBpcMvrtx26V9FQnzIVdWB3LxWSNAjvbfVrK+QvDc3ExJUdUY5H61nOPtIcsiz4y8LfDT/AIRzxBqdxcaZpC2bwyTT6ZrKQzoq7TtI3yDy8b+N3Svbf2U7VNKfWUtJdPubGeBMNYThyJN38YAGB9K6XUf2cPB2oao2oumqG6ki8iV1uiDIn+0dvI4HWum8D/C/w38P4z/YVi1oxGHLOXOPbNeRQwM4T5jf2i5TsVDCPcwwKajBulSyEmPaTmo405A+VWP3VCnJ/M17pgLWL4pYjwzqpycCHdW0zY+8pFZut2L6npF9ZxELJNCyAnpVgfH/AMTfhUfC/wATPFt1dXsdr4evtOS9guJk3K5Mx3R+vDNnHpWtpd/8MvC2hxvfaxLf6jqEyiFJ2dnyEz5vkRjkKeAx5FfUes+FdM8TQRf2ppi3LqMR+dG2APf8hTNJ8H6Xo+37LpVnahQQqJaoCM9cECvIq4FVZ8yN4yLHhe4S48P6bDEwaGGyt0VuSw+X0NajfI1Ja2vk3O9Y2DEDeCo27R0AHoKWf5peK9SlHkXKYSOM+Ko3+HbYDoJ2wK8dulaJIckY31698QZTeeHI3A+VryUofb0ryXWI8RRf9dKkg7fwGw8jXE/vWL4rjfhj4Ui8aeCdd0iUgSSFGikI+5Iu7b9B0rsfAY2z6mD0NjLxWN+zvJtg1VD/AHU/TpUFnF+F9Lm0/wAMMLiJo7rzjG0bDlSnc17V4S8Z2et6Qml668bSsgjEknAnA6E/7XvVDxx4cNvd/a4o8wXJJm2jkSnqfoa5y205o8YUHByOO9XED1eHQLuxkH2G/c238MdyA2Poa1ho8kkMRlvAHb7yxKBj8a87sby7toRHHO8aj+FXIFS3upahdIInupzEfujJAH1qizy39unxbbaf8M9N8L2ZH2vUdWgd1U7vLWM5JY/xcsDXZ/A6FW+D2o2x5KC4Tn/rlXgPxr0i+8VeOoYpYXGn6aFijz/E7fMz/kBzX0L8DoivgzW4AuFWdwu7vmLmsa38NmtP+Ij58ooor+YK/wDFl6n6xD4UfTHwW+X4aWWf+e9x/wCh165oEoTSovQ15H8Hvk+GFk//AE1l/wDQ2r0/Rptul29f0nlX+40v8J+WYz+PILnw7LKq3G5ZRJ8xUcECs+XTCOAhB9hXQ2dwTZxEk52etNklDnIAzXqnEc4mlTTdMr9a07W1W0j4wW9e9WXk96iklRF3NwKCCG4k239j/wBda57xh++8UaH/ALCvWwXae9tp3G1A+UT/ABqpq9uJtatZWUfu4nAOOhoA5v4s6PJPPYXu3cttaKjY71wLRsYZgoyNnSvf7zTI9WtpIJ1Vla1QdM8+teQX2kSaTez2sybdvy5x94eoqAOz8L3i3mkwgNllVee9b1pOYGzjcuMY9q4PQpH0O78p8/Z2+6ew+tdtG64JzlW6EUFlyS8kY8AbcYx2qN71/U/nUdRdadyDP8X+IR4Z8L6pqyx+Y9rC0sakZycbcH8a8e8AeHtf+J93Lqeq6zdxwfMy+RIyBR/s4PHVfyNez61o8Wv6NeaZcE+RdQvGT3yxyK5D4YWx8N6Ha6VcsUubceXISfvH/JNIs7G2tpdOtUje7lvYlG1ZJTlyfcnmrgTbUNzCiR73kjKvyu05zV9wNq8D7tWBHHfzRR7RzQb2RhwcVBjFHl4rUkeZ3PUk9qq398um2E9y/IhTcM9z6VYrkvG+o+Zs0uB92ZMy89T6VkIr+L4ntfAmhLJ/rHJlbPqx3Y/KvLdWj3xJ/wBda9m+LEK2+g6XCDkLhc+4TivINQH7pP8AfqAOq+H8bSatdw5G2W0dAax/gbaHTdS12zm+WaMmNvTKt2rY+HvGvcf88GqPwdYvN4j8Wi2fZe2mpExZ6MD1Q+ufWgD0tvLuomSRN0L9mGawpfCSRSFrdyUboH61Y0/U/tg2tuimT70bHkVppNuILcEd6CzIg8OsPvKB+NZnjzSjD4O1WaCeSC5jjyHjGSPxrq/NU9jXP+Pn8zwTrank/ZmegDwLx1cBfEEwKhx5UfUZ6oufzr134Gky6PrEZOVEq8HpynNeJ+P5SdXt5QSPNtIn4PX5K9e+AF408WqoeMLASPc7s1zVPhZotzwm6j8ueVAANsjCina8hh1e+jBIKXMqnHs1FfzXiaX76XqfrFD+HE+lPhSAnwp0tcDJMrn/AL7evQ9K/wCQRb/7teffDVPK+FukZ/ihdh/329d/pxMWkQ5/u1/ReWR/2Ol/hPy3Ffx5l62kxa2/+7R5lQwP/otsvdVXNN8yvVOIPOYbvMH5VHEBdvvcZgTse9R3U3yFUPLfKD71If3SJEOCOuO9AA+6S6tchV/edhVfUPnvR7LUhffeWi997f8AoNR3n/HxnvtoA6K2UmTaOP3SdK5z4ieHzd2q6hCoLwfK+B1X1FdNYKftTf8AXBKvTWqXEMkLgGNhjB6YoA8i1CNXgiDLhSvJ9aseHtYaFhZXhCAfclP9TV7xJpR0sfZ2Yt5fygnuvrXLXEsM5MNw/lqThJPQ/wB1v8aCz0Lvu7UYHoK8+0rxje6M5tNbDgLJsUv/AKwe5PRhXcWN/BqMfm2syTr6o2f0NQQWU6571Q1DQYLyc3EQ8ubOTxgZ9av9KmXnrzQWQ2mn+RbW8Um3fFu5A4qy7CmbwRTSjuQFVmZV5CjNWBG6Z6cfSgtt5Klj6CrE0BgiZ52EIXq0hCn8hXM6r4sVFaPTlLH/AJ7t/hQBZ17WU0mBlRg1y/QDkLXLeHdObWPEEcj/AL8I/msx7n0qqDLcOxfLyP8AnXa+DtMFvJkLtIXJIHU0AUPi782lWKjgrJtP1ryHUButmI7NxXr3xaKmwt8nH73NeRXXzWr4/vVBB0vw/wDl8QRZ7xODU3gV9njzxnGevn5/D0qp4Kk8vxBbc/eR6l8LHy/ir4uQcBxG+B77c0FnW69A0YGoQDNzH88oHWRfQ+prSsJI72xFyjZjP3T602QZrC8NXZtpNV0ZyR9iuCI+f+WbLwaAOheZWXgEVgeKVLeGdchJ3k2MrLnnIrXaRY13E4H90cms/VYnudM1F3Ty1kt3iRc5wu3qaAPnDx4waLw/cgYWXTk/9Cx/KvUv2dpt9zqyesMTn/vp68t8YjzfBnhS5PDeVJD+XQfhXf8A7N9wP7T1FctzZpnn/b/+vXM9i1uedeJU2eK9bjdQCt3Lxj/bairPxCUReO9fGB/x+yfzor+acyTWMqrzZ+pYf+FE+g/AXyfC7Ql7/Zf/AGd67gPs0pF7+VXF+Ck8r4aaEp6/Y1rsZmH9nJx/yyr+k8BHlwtL/Cfmdf8AizLcLDyIuP8AlktRO9Bfy0QdtlI5HoK7TjIkGbmIY4zuxUkj5OT19ajRh9qTj+BqdjNbgCAfbbc98t/6BUd44+0M3bbToztuYJDyA3ze1JeJ+9rIDqbL5Lp/+uCVfllCJyKyYJ1W7lY5x5S0PdmdiSSgH3iTwK1Ao+LNPW/sHlIHmxrkgnHHpmvEfEFx5/8Ao0JDGTkkcgj0rqfH3jW68RajH4b8Pl5lZ/LmdM/O390N2HvT4vCFt4Z8PNYgHUNWA3y3Kjds/wBlfQVkWcg2pLbAWN5DHf2iLs2ynDp/ut2/CrdnBhzLpF9u29YJj5cyfl1rGvY2juHLDHOaWMYII4I6H0oA7GDxdq+nMy3cJk/66pj9RWlb/EQBcyW6b/8ApnICP1FcnZa1fWK7Y7mRY/8Anmxyv5VpjxFcOMMlu31t1/wqAOki8fRMcR2qs3ozg/0qSHxdrN1I8enQtA/rAuP/AB41zUWt3DNkQ26H1ECj+lPm1S6n+/cSsv8AcPyj8hVgaGp208bl9Su0M56wxyq0n+FZKTJFKqhCIi3JJ5puAKVY/OZU2hnbkAjNAGxYae63Bcr8v8JFd7ptr9htgxPzvXKaLqiaLeR6fq0YSKQZt52GP+Ak/wBaseOvGDaJEIEjeKV1/dyMvyfgRQBx/wAUtb+3XsVorZSM5JU964KZ/wDR3qS+vZLiUyytud/eq0j749tQQb3hKbHiGx/4HVjw7Nv+MXikIcqIkVj6H5Kp+FJYra+k1CYhLWygkmlZvf7oHuak+EEM2oX2veIrpCDfzhI93OVVsn9Rigs9KzmuT877L8VZoeovNKEh/u7lbH8mFdXXG6t+7+KWhOOPM06fKjofn/8ArCgDrFUI2VAU+opsuJIZFPO+PZT6ZQB82+JImn+F2jzOo/0W+lhJH/Av8K7H9nKUDxDcp62LZ98PxXPX8HnfC7XoOc2WqO/0+b/69an7O9wB4qjUcFraVD71zz3N4GH8VY1g+IniBdp/4+if/HVoqz8ZVMHxK1rODvdH/ONaK/nfNaX+3VfVn6Lhan7mPoe6eFDt+HGhKev2OKutvv3dh6fJXIeECLn4d+Hyhyv2VFz/ALo2n9a6/VPlsdp67a/oTA+/h4f4T87rfxZFiQg9QKg8zNOmf5tveoq7znH27A3XPP7pqc5xUVt/x8f7sT5p+8Gggd6+9Kz+eMHiTbnNM3imOcpwcduKkDntW+KUuh6nLbXGnOkyoFdWPyjb1we9c/4j+LV1q+nGxs4vsDzt80ueV/Gup13TIdXtAmoaY+pRxZxPAQJ4c9cA15Zr3hixgSUWWvRWqnpHqsDwkfjzQB0+n+LdB8Caa0Olzi/1adf9JvI1yF/2Vz0HtWjoXxCFlC0i24N1J99pOfzrym08NfZpTnV9Hk5z8t6p5/Fa3JLfehVtX0gE91vk/wAagsi8Z+Kle+aeCzREb/WIpwF+g7ViwePbHH7yOVG9Ixu/nVy98Pyywuz6lpLe39oR5/nXET6BPcSskCl5FbnZkmgDvIPG+kN0uCv1Sr8PjTRSf+P1fyryw+ENb/hgnP8AvRmkTwf4ix/x6Sf98UAeuReMdHdtv25M/SpJfG+i24yL5ZG9IQTXkkfhHxCBkWrg+u01Yg8Ga65y9pIp+hoA9EvfijpdpHmKKa4k9AKXRfiFe3F/9o+yQ28S/dV/mrjrLwHcW0a3F/cW1gm7b/pTsh/VDXQ2ljZ20SBtZsEPqpkP/slAG/4r8ZX3ia3ijuW3mMbQyqAQPT6VkT+OdTbSI9IvJzJaxtlCy5fHpuqKWCyH3tXtR9I5T/7JVK606wuVCNqitjp5NrMcfmlUBI0ocAryB0NLCk90/lQqu49WY4CfU02x02REMVnZatqmOgFsYkP/AAJ+a6Cx+HOuaxsTVHTRNPY7jBane7j/AGj3/GpIMEi68VzJ4Z0LP2IFZNS1Jxw390j2/ur3717FpGlW2h6XBY2gIghUgE9SSck/nzVfQtCsvDmnraWMCwxgne+BukY9ST3NaMhPrQWDnFcZ4lPl/ELwnJ0LxXUee+Pl4/Wuz61xXjd/L8W+D3HB+0TJke68/wAhVAdhmkoqPzKAPE0KpoPxItGAYR3MrgEcCqP7Pc2PHFqnqkuf++aj1bUkgHxHZW+SeVYUx3Ytz+dWP2cLBrjxw7lSVtrZ5SR6t0Fc8i0HxwRE+JV+Wwd8EDcj1SiofjbN9q+I+qFCrCLZDkf7KL/jRX4Fms6f16rr1P0LC/wI+h6p8DdYGteBJbFj+806cqFPXYxyPwr0q9dbm2ibBwV5r5h+FXjX/hDfFEb3EhGn3eILoDoAOj/X3r6Wd8woySAwnkMnII9q/XeHMdDG4GCT96J8nmeG+r13L+YszlTKSpyrdDTN4quJQihD2p2/d0r6s8YkiYRzuzMQmzbmnb8DJ4X1HNVpGDjGOPSs2fTpPMzb6jdWg/uK67fybNAG7TWfFYH9n6rGcLrcgHq0EZ/pSPBrX/QYgH/XSxA/k1AG+gGaJGEow43j/a5rEji1wnC6rZAepsT/APF0j2+vSf6vV9OX62Tf/F1AGmdPtZeXs7dz/tRKf6VXv4dK02OSW8gsbOJfvNIioE+mQSax7nRtcuC63HiGSJW6LaWixsPxai28H6dBIs1wj38y9Jb2QzY/Bs1IGRPq3/CQI1v4c0a1WMnbJqt1aqI1HqgIy341r+HfCtn4dtVWNBLcMcNcyjaZG9RjoK2AoUKAAAowAOwqTqc98Y/CgBd7f3j+dJnFG4elG4elBYu9h/Efzo3sf4j+dR5pfxNADZwJFCuN65zhuRmopLg2/WGPZ/sqM1JvBqMjd15+tBA+G4gum2wOmfQcH9akLGJs5IX1HNUbiygvDmWFZH/56YwfzqlLou5f9H1HULP/AGUnDD/x/NHMBsfNgDJwOgxQBjopHaslPD1wIfNfxJqa7zu2RmNio/FKqzaDMW48QasPo6f/ABFAG80eOgx3pwhcjLIdvqVx/WuYbwszL+81rWG+l0yfyWoj4IsMbZbjUJx6S38gH86OYDodSvrbSIWnvrhLWFerzOqL/U159b3U3xA8aWWo2qSJoGlhzDJKu03MvqB2Fb8XgTQhIXNgkjnr5+5wfzrdijWCJY41Eca9EQYA/CjmAXzfc1i+LPEEPhrRbi7kcLKEZIVb+KT/AApfEHirTvDVk1zdzhAv8AAZvyrwHx143uvFl75twTHapzFag5UVlKZcTCvtTmayeCQ/Pcz+fcEHkn0r3j9nvQl8M+FdR8S3oKC6O4FuMQJ0b8a8i+H3w/vfiJ4hWFVeHT4W33V10Cp/dU92r2D43+MrXQdEg8IaSEjkMKR3EcRwI4F+6nHQn+Id+9eRmGMhgaEq0zqw+HnXqRpwPFNdv5dc1m+v5iRJczvKQp4wcY/QUVVBK9CR9KK/nypinUm5Nbn6dCjyxUR2NwIPPavW/hP8Vo7COLQtduWFtn/Rr08+T/sN6r/tda8kBxRJ82M8kHI9j6125ZmlbKq3taWxli8JDGR5Zbn1rqM0+mQrP5El9Zsu4mDDTJ9PWqlh4t0+6j3Q3UV0i/fCnY4/3o2+YfhXhfgT4t6t4MaK3cnUNOUYFs7Heo/6Zsa9Rj8RfD/4jopuhDDe/wATznyJ4/8AgS9a/c8tz7B5jCKT5ZH57isur4R2kuaJ0T+O9AQ4OpW6t6NmqM3xR8NW8eRfqw/uheawb74FabqMpl03XrpA3TIS5T8xzVZf2fJxJlteAP8A15H/ABr6DmPNNef4yaBEFAFw49BGKzJvjfpp+eHT7p/Y4FRx/s9xlfm1yY/9crcf41MP2d7Zfv61efjAv+NZ88hmfN8dFIUR6SPxc1Vb45XjL8mlwD6yGt//AIZ+0wddavz9Yo6Y37P+ip9/W9Q/76j/APiaLyA5t/jbqjDAsrbHpvNR/wDC7dYzn7Pa59dr/wCNdWfgT4fA3Nq9+B/11j/+JpP+FF+Gv+gpqH/f9P8A4movIDjf+Fza9/zztf8Av21V2+L/AIgTrJD/AN813i/A3wsn39Qvv/AlP/iakPwN8Jnrf3p/7e1/+JpgeeP8XvELdJoh9IxTP+Fu+Iv+e8X/AH7FehH4KeDE27tQuB/2+rT1+C3gpvu3ly//AG/KKC+ZHnX/AAt3xF/z3i/79ij/AIXF4hj/AOWtu31jr0IfBzwMZGjN5cCT+79vXH505/gn4LH/AC+3H/gwWgOZHnn/AAufX/8Aph/3wKlT4z68Ootz/wBsxXff8KS8Ff8AP5cf+DBf8aYfgl4KP/MQuU/7icZoIOLT42auPvW9s/0GKUfHLUwcixtgf96uzf4E+EX+5qOoD63a/wDxNN/4UV4Q/wCgre/+BkNUByP/AAvTUc5/s+3z0++acvxwnP39Ki/CQ11qfAXwm/3dUvh9bpP/AImpR+z94YPXUdQX6XSf/E1IHM2/xugiiQSaXJ5o67X4NWf+F46bIMtYXMR9Aa2/+GffDP8A0ENQ/wDApP8A4mkP7PvhpeV1O/B/2p0/+JpAYFx8cbAJm3sJpD6HiuZ1r4y6zfROtmsVgh6Mq72H4mvQ/wDhnrw1/wBBPUP+/wBH/wDE08fAfwbafvLm8vXA6LLeKgP5LQB8+3uoz6hcNPdXDXNw33iWDE/QYrtvBPwS1vxfJDLeJ/ZWmO+d78TSj/YTp+derQ33w5+H5V7WG0a6TvCrTSf99HmuN8Z/H7UL15bbRIBYQyHabqQ7p2Hqo/hrysbmOFwMf3szrw+Fq15e5E6vxT4r0P4PeG49F0SKAX4XekQO7yT/AM9JD/E315r59vL2fUbye5uJjcXM7GSSRupPck96jupZbqd5ppHlmkbe8jsSzN6knqfegn8ulfjOc51UzSpbaB+g4DARwsbLcSiiivlT1gzRnNFFAAeQQeQevvQRkAHkDoKKKuM5Qd4uwnFS0aLFrf3WnsGtrmW2Yd4ZCp/Stg+N9XbrqN4frcN/jRRX0+F4gzKnGyqnkYjLsNKV3Ea/jG/k+9dXTfWdj/WpIPFYR83T3lxHt/huWU/zoor24cRZg/t/gefLK8N/KRnxGx/5bz/9/DTZdcEnWSU/VjRRXowz/H/zfgcP1Ch2GHWI2GCZCPQk0o1G2brkfQUUV1LP8d/MvuJ+oUOwNfwN1JP1Wj7db+//AHzRRXo/2tifL7iPqFDsI17bv94lvqtAuoB0BFFFP+18T5fcR9QodgN1ARgrx6YpDcwH76IPotFFL+1sT5fcX9Qodhv2u2/uf+O00X1svRcfRaKK5P7bxndfcX9QodgOoWp9f++BTv7Rt/f8qKK43n+O/mX3FfUKHYj/ALRt/wC435CmvqMf+3RRXmy4izD+f8Dq/s3DfyiSal/dVv8AvqnJq88bb2QS87sOxIxRRXFU4hzD+f8AA6VleF/lFvNbllnZ1t44A/8ADHyB9M1HJq9ywALA49RRRXi1s/zGbs6rOuGXYaO0Sm7tIxLsWJ7k5poGM4HUYPuKKK8atWqVtZyuepGMY/CrBRRRXOaBRRRQB//Z;" vertex="1" parent="1">
                    <mxGeometry x="570" y="445" width="221.9" height="210" as="geometry"/>
                </mxCell>
                <mxCell id="4" value="" style="shape=image;verticalLabelPosition=bottom;labelBackgroundColor=default;verticalAlign=top;aspect=fixed;imageAspect=0;image=data:image/jpeg,/9j/4AAQSkZJRgABAQAAAQABAAD/4QBoRXhpZgAASUkqAAgAAAADABIBAwABAAAAAQAAADEBAgAQAAAAMgAAAGmHBAABAAAAQgAAAAAAAABTaG90d2VsbCAwLjMyLjYAAgACoAkAAQAAAAUBAAADoAkAAQAAAPcAAAAAAAAA/+EJ9Gh0dHA6Ly9ucy5hZG9iZS5jb20veGFwLzEuMC8APD94cGFja2V0IGJlZ2luPSLvu78iIGlkPSJXNU0wTXBDZWhpSHpyZVN6TlRjemtjOWQiPz4gPHg6eG1wbWV0YSB4bWxuczp4PSJhZG9iZTpuczptZXRhLyIgeDp4bXB0az0iWE1QIENvcmUgNC40LjAtRXhpdjIiPiA8cmRmOlJERiB4bWxuczpyZGY9Imh0dHA6Ly93d3cudzMub3JnLzE5OTkvMDIvMjItcmRmLXN5bnRheC1ucyMiPiA8cmRmOkRlc2NyaXB0aW9uIHJkZjphYm91dD0iIiB4bWxuczpleGlmPSJodHRwOi8vbnMuYWRvYmUuY29tL2V4aWYvMS4wLyIgeG1sbnM6dGlmZj0iaHR0cDovL25zLmFkb2JlLmNvbS90aWZmLzEuMC8iIGV4aWY6UGl4ZWxYRGltZW5zaW9uPSIyNjEiIGV4aWY6UGl4ZWxZRGltZW5zaW9uPSIyNDciIHRpZmY6SW1hZ2VXaWR0aD0iMjYxIiB0aWZmOkltYWdlTGVuZ3RoPSIyNDciIHRpZmY6T3JpZW50YXRpb249IjEiLz4gPC9yZGY6UkRGPiA8L3g6eG1wbWV0YT4gICAgICAgICAgICAgICAgICAgICAgICAgICAgICAgICAgICAgICAgICAgICAgICAgICAgICAgICAgICAgICAgICAgICAgICAgICAgICAgICAgICAgICAgICAgICAgICAgICAgICAgICAgICAgICAgICAgICAgICAgICAgICAgICAgICAgICAgICAgICAgICAgICAgICAgICAgICAgICAgICAgICAgICAgICAgICAgICAgICAgICAgICAgICAgICAgICAgICAgICAgICAgICAgICAgICAgICAgICAgICAgICAgICAgICAgICAgICAgICAgICAgICAgICAgICAgICAgICAgICAgICAgICAgICAgICAgICAgICAgICAgICAgICAgICAgICAgICAgICAgICAgICAgICAgICAgICAgICAgICAgICAgICAgICAgICAgICAgICAgICAgICAgICAgICAgICAgICAgICAgICAgICAgICAgICAgICAgICAgICAgICAgICAgICAgICAgICAgICAgICAgICAgICAgICAgICAgICAgICAgICAgICAgICAgICAgICAgICAgICAgICAgICAgICAgICAgICAgICAgICAgICAgICAgICAgICAgICAgICAgICAgICAgICAgICAgICAgICAgICAgICAgICAgICAgICAgICAgICAgICAgICAgICAgICAgICAgICAgICAgICAgICAgICAgICAgICAgICAgICAgICAgICAgICAgICAgICAgICAgICAgICAgICAgICAgICAgICAgICAgICAgICAgICAgICAgICAgICAgICAgICAgICAgICAgICAgICAgICAgICAgICAgICAgICAgICAgICAgICAgICAgICAgICAgICAgICAgICAgICAgICAgICAgICAgICAgICAgICAgICAgICAgICAgICAgICAgICAgICAgICAgICAgICAgICAgICAgICAgICAgICAgICAgICAgICAgICAgICAgICAgICAgICAgICAgICAgICAgICAgICAgICAgICAgICAgICAgICAgICAgICAgICAgICAgICAgICAgICAgICAgICAgICAgICAgICAgICAgICAgICAgICAgICAgICAgICAgICAgICAgICAgICAgICAgICAgICAgICAgICAgICAgICAgICAgICAgICAgICAgICAgICAgICAgICAgICAgICAgICAgICAgICAgICAgICAgICAgICAgICAgICAgICAgICAgICAgICAgICAgICAgICAgICAgICAgICAgICAgICAgICAgICAgICAgICAgICAgICAgICAgICAgICAgICAgICAgICAgICAgICAgICAgICAgICAgICAgICAgICAgICAgICAgICAgICAgICAgICAgICAgICAgICAgICAgICAgICAgICAgICAgICAgICAgICAgICAgICAgICAgICAgICAgICAgICAgICAgICAgICAgICAgICAgICAgICAgICAgICAgICAgICAgICAgICAgICAgICAgICAgICAgICAgICAgICAgICAgICAgICAgICAgICAgICAgICAgICAgICAgICAgICAgICAgICAgICAgICAgICAgICAgICAgICAgICAgICAgICAgICAgICAgICAgICAgICAgICAgICAgICAgICAgICAgICAgICAgICAgICAgICAgICAgICAgICAgICAgICAgICAgICAgICAgICAgICAgICAgICAgICAgICAgICAgICAgICAgICAgICAgICAgICAgICAgICAgICAgICAgICAgICAgICAgICAgICAgICAgICAgICAgICAgICAgICAgICAgICAgICAgICAgICAgICAgICAgICAgICAgICAgICAgICAgICAgICAgICAgICAgICAgICAgICAgICAgICAgICAgICAgICAgICAgICAgICAgICAgICAgICAgICAgICAgICAgICAgICAgICAgICAgICAgICAgICAgICAgICAgICAgICAgICAgICAgICAgICAgICAgICAgICAgICAgICAgICAgICAgICAgICAgICAgICAgICAgICAgICAgICAgICAgICAgICAgICAgICAgICAgICAgICAgICAgICAgICAgICAgICAgICAgICAgICAgICAgICAgICAgICAgICAgICAgICAgICAgICAgICAgICAgICAgICAgICAgICAgICAgICAgICAgICAgICAgICAgICAgICAgICAgICAgICAgICAgICAgICAgICAgICAgICAgICAgICAgICAgICAgICAgICAgICAgICAgICAgICAgICAgICAgICAgICAgICAgICAgICAgICAgICAgICAgICAgICAgICAgICAgICAgICAgICAgICAgICAgICAgICAgICAgICAgICAgICAgICAgICAgICAgICAgICAgICAgICAgICAgICAgICAgICAgICAgICAgICAgICAgICAgICAgICAgICAgICAgICAgICAgICAgICAgICAgICAgICAgICAgICAgICAgICAgICAgICAgICAgICAgICAgICAgICAgICAgICAgICAgICAgICAgICAgICAgICAgICAgICAgICAgICAgICAgICAgICAgICAgICAgICAgICAgICAgICAgICAgICAgICAgICAgICAgICAgICAgICAgICAgICAgICAgICAgICAgICA8P3hwYWNrZXQgZW5kPSJ3Ij8+/9sAQwADAgIDAgIDAwMDBAMDBAUIBQUEBAUKBwcGCAwKDAwLCgsLDQ4SEA0OEQ4LCxAWEBETFBUVFQwPFxgWFBgSFBUU/9sAQwEDBAQFBAUJBQUJFA0LDRQUFBQUFBQUFBQUFBQUFBQUFBQUFBQUFBQUFBQUFBQUFBQUFBQUFBQUFBQUFBQUFBQU/8AAEQgA9wEFAwEiAAIRAQMRAf/EAB8AAAEFAQEBAQEBAAAAAAAAAAABAgMEBQYHCAkKC//EALUQAAIBAwMCBAMFBQQEAAABfQECAwAEEQUSITFBBhNRYQcicRQygZGhCCNCscEVUtHwJDNicoIJChYXGBkaJSYnKCkqNDU2Nzg5OkNERUZHSElKU1RVVldYWVpjZGVmZ2hpanN0dXZ3eHl6g4SFhoeIiYqSk5SVlpeYmZqio6Slpqeoqaqys7S1tre4ubrCw8TFxsfIycrS09TV1tfY2drh4uPk5ebn6Onq8fLz9PX29/j5+v/EAB8BAAMBAQEBAQEBAQEAAAAAAAABAgMEBQYHCAkKC//EALURAAIBAgQEAwQHBQQEAAECdwABAgMRBAUhMQYSQVEHYXETIjKBCBRCkaGxwQkjM1LwFWJy0QoWJDThJfEXGBkaJicoKSo1Njc4OTpDREVGR0hJSlNUVVZXWFlaY2RlZmdoaWpzdHV2d3h5eoKDhIWGh4iJipKTlJWWl5iZmqKjpKWmp6ipqrKztLW2t7i5usLDxMXGx8jJytLT1NXW19jZ2uLj5OXm5+jp6vLz9PX29/j5+v/aAAwDAQACEQMRAD8A5c0AZpQM1YsLG41O8itbWFp7hzhVQdW9fpX8vUacqkuSn8R+xylGMeaRXbCEDK7t23a2cn6Yrr/Dfwp8R+KLfz4bVbOxf7t3dkqP+Ajqfxr1nwL8IdO8LQQ32rxrfayxysZAMUP+yoPDN/tGu8luZpn3qSGP8QPNfqWV8IQlDnxju+x8fjM7tLloHldh+z1YwR51DVriaT/p3jCD/wAerZh+CXg2Fdsq3sj+rXQUfpXeRaXcXCZSIMPQjFEnhu//AIbYn8RX3FLIcBSjyqimfPyx+KltI4UfBfwSfux3X43ppv8AwpLwd/zzvP8AwMP/AMTXay6Pfp1tn/AA1XaxnTrC/wD3xW39i4H/AJ8Ij69iP5zlv+FI+Df+ed3/AOBLf40z/hSvgz0u/wDwLP8A8RXTG3/3V+qmgxr3Cn6DFH9i4H/nwg+vYj+c5f8A4Ul4M/vXX/gZQfgh4NHWS7X/ALeQa6XYv90flShFHRQPwqP7GwH/AD5iL69iP5zmf+FHeD/+fi9/8Cl/+IpB8D/B56TXTf8Ab4g/pXT7F/uj8qCoPUA0f2NgP+fMSPr+I/nOcb4L+DrYMRa3twvql5moh8KvBUX/ADDrqT63Tiutt7u5syTA2B/czx+VX119tvz2lvJ9Bitf7HwX/PqIfXsR/OcF/wAK08E/9Aq5/wDAp6S1+HHge8u2thpc8RVeXa8eu0vNVe53IkEEH+1EuaomBSSSoJPU460f2PhP+fUSfrmI/nMo/CfwKvWzDfS8ej/hVvgT/oHj/wACZf8AGtQIV6cfSk8kehqv7LwX/PtfcivrmI/nMv8A4Vr4DXrpqn/t5l/xpyfDjwMvXS4z/wBtZP8AGr5gz2/Sg24P3Rn/AIDR/ZeD/wCfa+4n65iP5yofAHgZuujwH6s9O/4QfwR/0A7b/vlqtrA5+6M/nUi2so6IzfVav+zcL/z7X3C+tVf5n95T/wCEJ8E/9AG2/wC/D0P4M8Fj/mAWv/gO1aA0mc/dgI+tTQ6BcSf8s1H+9R/ZuF/59r7g+uVf5n95hv4G8FXC7f7EiX/ajidf61kXfwY8I6uhaxmnsnbo6XAcfka7J/DdwBjbF+dULzQL6IBzCJMf3azlleCmuV019yNI4zEQ95TPHfFPwR1vQopJtPZdZhT73kf62P8A3l6flXnhI3MvRlO0gggj6g19Lw+I7/RyAQ0qp/yzlHzj6E9KpeKfAOjfEzTmv7EJp+soPnfAG9v7sg9f9qvhM24Spyj7XA6PsfQYLPJ83JV2PnXFJVzVNJudFv5rK8iaGeJijxt1XHRge4NVcV+U1qU6M5U6itI+0p1I1I80RtFFFcxoFfQ3we+Hy+GNHi1q9jH9q3SK0asvMEI6AejH2ryH4Y+GU8V+M7C0lUvaI3n3A65VBnH0JAH419PzvJe3f2eM7cY4HC8dOK/VOEsrjPmxdTp8J8dnWNlFxoQFtoJ9TlKIpwepboPrW/aaXDZxYKiU/wB5+lWbe3hsLVyG2r/y0kP8X4VloZ9bkJBMdqOgx1r9ZR8d5lyfVLW3ODJvHooqumvWwODFNj1VatQaXawfcXd/vDNWBBGBgRoB7KK05SCrD4jsB1lkh+q5q5D4hsZfvXaH/roNv8qYIIG6wxn6qKc+n2E33reNP9ziq5SC/BqOmyPmW4s2HowzWhbQeHr1trLpsp/66qv9K5p9C0phnyCx9FcitLSvA+hao5Ba+s9y7g5ZWRfqetHKB0y+DvC1yu8W9ln0F0oqpdfD/wAOpH8sKM3+zcChPg1YzOVhv7lcfeJKkH6VQ1D4SwWD4TV5nb1EQFQBWuPA+iQ7cW7/AIXGay5vC+kx/cjLf9tDUsngswfc1Gb8BVSXw7MvTUZB9Ca05QsRv4Y03f8A6uT/AL+VD/wjth/zzf8A76ofQLtD/wAf7t9RUX9kXn/P8361PIgsSf2BYjqjHPq1N/sOx/uN/wB9VEdIuj/y/GmjRZl630tRZAT/ANjWKf8ALDd9WoGlWi9YV/76qv8A2JJ/z9y0v9gKOtxKfrTAlFlaBuI4f+BAUpWyj/hi/IVAdBhbrLIfqxpf+EftB94OfqaAHm9sous0X/AaifWLSPoxP+6KP7Jt0fHkhl9Sxp0dnbYysQB9DTuBC2uW56bz/wABpjatu6W7n8K0BEi9EUfQUMwXoMfSi4GQ+tToNzWeR7E0tr4otfM8uffan/a6VqvIcYycelUruytdRXy7iBGX++vDfnSAZqemWOuwYkAZT0uI+orz7VbC/wDCOpxzxtu38Rvj5JE9G9DXRXVte+E5DPbSG804nDL/ABIPUela1yLTXNMeGQfabO4Xrno3r9amRZwXxJ8L2/xC8JprmnJH/alqoZsDlk7xEd2HrXz6ckkYKsvY19F+CdUm0bxLdaXcNlJWdRz/AMtV/oe/rXj/AMUNCTw343v7aBSlrIyz2+4fwOMkfQEkfhX5NxflkYcuMhuz7PJcVd+wkclRRRX5UfZHsv7N9mo1TW7w/eiijhU/Vxn/ANBr3Lw7ZiSa6uSoIQbVBHevGP2cwGsNfYfeWWLnv/HXu+hJ5emEjgs7civ6G4bhy5bTPzPNJf7XIbcKdQvVts4ij+d29/StDaqqBGdgHZeKrWCZgmn7zSsfqKkB29a+rjE8YlprvTWkwGLcKveqz6lEG4Dv7heK0JLuMUvmVRGrwj7ySD/gNOOq2gGfN2n0KmmIuopz7103hO/axuUYrv3jDKe4965ODVrN0x56KfcVv6Re2Fs0TvcieZm+S2hbG7/gXaqIkdp/bT6dcXFghyI2LI4POxugPvWfrF9JOjHzV3/Wn2Ng04lnuWj+1XLhiqDcFx0xzVHVdJ8pndhs/wB8j+lKyGZM1171mzPVi5XHVh/wGqMhqwGOKifinuahc1mUMphANLmmZrEBzqB2FNkoc03OaADNI/3d3am5qNrpE+R2FACO+enH0qDZ++3Y4202fUbYDIlUn0UVGdTgXrvb6LWoFrNMeqz6ko+7BK/6Ux76VvuWr/jQBZeo3Y+pqldaubEqby1lgj/57dQPqKuth1VgQQ3TbQAjAOjIw3IwwVPIIrltHH9kard6Rybcr9pty3UL/d+tdO5xXI+KLg2XinQJdxH2h5IG57heK5yzgtU15dP+Lt5DnASSGVADxgqufzzSftG2Krq2j3ITLSQuhbPJ2Of/AIquO8aXePjRqLRktsdE6+mzFd9+0bGBYaFIAMmSYA+gKoT+tfK8SQ58tqM9nK3y4mJ4hRRRX8+H6Ye5/s3gf2d4j/66xf8As9e8aP8A8glP9968J/ZvH/Es8R/9d4v/AEF69z0U77HGeNz8V/RnD3/ItpH5hmX++SLEHy2Vvjj5c8UdaIP+PO3/AOBUV9RE8kinBmaGHJUSt82Ktb1C7YgUX06Cq/W6tf8Af/8AZakyS3U0yBxkc9QD9aXKuctGjH3UGo6OlAFhbO3f/l1i/wC+RTDpFjJuVrSNlbqVOM0gkx04pwlkYYA3D2pgMTwxaId9jLc6bN6RvuFRy3Wr6E0klyf7Rsx1mRyxH+8vb8KvwFnjyUZT6kE1etVmhkEiq6sOmBjFPmAz7bU7S/jVkYqP75+4Pr3qS8t2gCkMrr6iq+t+HDNvv9Nj+y3wGXjC4jlX0YdFP0rLsdcjmDwSMYpIvvxyjBX6etMk0GDD7wxUb/L1p7XAl6yoPxFRGaM9ZFP4ioKGPxTH4pXlT/non5ioftEJ/wCW6f8AfVZAS9aimPkIpfhm/hHJq15ttBaoyTR3l9IMpCn3UH96T0+gqFE8slz88zdCedv0oAqvDczdSLVPU8mmCwt4VwytM3q5yatZb1b8hUcq46cflQBXCIDkRID/ALoqQEL0QD6CkYY74+mDQ71qApYnuaa8p9T+dLUUjBulAEF5Gl7byxyZYOmMNyCaxPBmovqnhqxunGGda365X4dP/wAUXpn+63/oTUAdI9cR4/JGueEW7PqL/wDopq7d64f4g/LrPgr/ALCLf+inrCRZ4P4onVvitrUqN/y3b9OlesftDASaB4ff/pu//or/AOsK8Y1Obz/iHrDlQP8ASZf/AEKvavj4N/gvQZcf8t15+sXNfL57/wAi+qexlv8AvMTweiiiv55P0094/ZvH/En149zPEp+ux69u0Q4s3/66NXi37NwH9ga2cc/ak5/7ZV7R4f8AnsXbt5r1/RnD3/ItpH5hmX++SLNoc2UOefv06m2f/Hon+84p24elfURPJGR83Fv/AL1P/jpkf/H1b/7/AP7LT/46ZAUyaZII9znFKxADMxwFqjDbyavMxfK2qdD60AD3k94dtrGQn95qmi0vUe90YvqxX+VWNQ1S00WFUB3v/DCnV/qe1c+/i6735jWCAejrupcwG8ltrK8R61Io9POb/GppNP8AEMQ3Jrcc30nYf+y1zS+OdTjOCbVx6m2U/wBKtW/xH1WIYFvYyD0+yYqeYDTz4lijRDqUjc54kHWqGpeHtT1CZJriJZZh/wAtMDd+dA+JuqD71pYj/dgIqsvxDvrgsJrCBWX7pVWwaOYCJ/BdyG/49z+YqP8A4RW5/wCeDfpU3/CcTH/l0h/77NM/4TaX/n2h/wC+zRzAQ/8ACLXB/wCXc/pQPDFwOkY/4FUx8ZzDpawH/gZpD4vuZesMI/4EakCaDStQtFIgkMYJySFAyfWlOmamB812SPYmqj+KLwjGyPHptb/GoR4kvx0Cf9+2oAujR789blx/wM0w+Hpj1u8/8CNUn8Q6l/z0X/vgVUfXdQf/AJbsv0WgDSn8N3iJm3uArem81QfVtR0aXy9TtneNPvOi/OfoOlVT4xvrGba7i4T+4w2H8xW7pXiS18QQGGWNX2nD20vUj1XNAFq3v4bqFJ4nV4T0cdfxFOxu6VzV5af8IdqkdxbyGTR7ptrKw5i/wro1fIJXlW6GtQCuU+G4B8Eaf/wP/wBDeur/AIq5H4agnwdaDJwGlwP+2r1nIDpHeuJ+IpP9ueCj2/tF+P8AtlXauK4X4jkpq/gxsnH9ov8A+imrGRZ85NKZfF+pMSSzzynJPP3693+OKl/hzoUnbz4v/RVeBWj7/E1ye++U/jvr6C+LpE/wj0iTGdj2z/mjZr57OffwNX/Cetl/+8xPAqKKK/nU/Tz6A/ZyAHhnWH/6fP8A2lXsfhtx/Zf/AG1evIf2dAF8Fak+Pv3zf+il/wDr1674bT/iV/8AbV6/pDIfcy2l/hPyzMP95kXLX/j1T/fanYptt/x5p/vPTq+gPNIEYeenzfOG4FT1UZPKbzRy1Wc04kFfUjttgF5Z2VcVY1C7XQtLJUKSBtAYdTUDJ5t9aoeU355rF8eSP/o8e44zvxmr5gMM3TzOzs7MX+8Sev1ock9DioLcEnaozUup+Zptk1w6EKPuLxlvzrMCJmCr0BT1JxWdf+IdO08MJrlWb+6hya868Q+LNU1GYRh0toz92NG5/E1ykk8pfftbf/e4z+dZcwHqF78SbaIbbWzaU/7ZrBufiVeyhxElvCD02/Pj86xfCvhLXPGtwPscJS2X795LxEv49TXrug/CTRdFjRruJNSuD995vuD6LQB5xZeOfEOoFRarNdH0t7bzB+YxW7ZTePJvm/smWRPQxop/9Cr1+3tooY2SKKNEXsAFX8qyZ/iF4bivGtJNZtWnXqi7m/UVQHIWV34ki3fbvDdyq/8APSBgf0rZtb03SZMdxbN6TpiuyjaKZPMiMcqHpJGd35g0+RFl++of/eGasDktoPYUeV7CuhutGhk/1f7p/wAxUFvoPnP5fnRof7znigDFdKrzKa6xPDMJ+/qMFNPhiynBVNThy3TdxQBwV5H8zDHFZEs8ttdLLE3lzR8oc549DXZeIPDl5pR8xoxNF/fj5FcJdXCmYovOeDQB6JLdx+JPCVxN1LRMzKeSHXrT/CGp/wBseHbS5BJDr1zWP4Hb/iUX8I+Y4L8++7P51W+Csxf4eaeWJY5kTJOejcUucDt5JFjVnY4VVZia5L4bRyDwNpkrZHmh5PwZ9w/StPx1qf8AY3g7VblRmQwNDGvcyP8AKmPxq3olmNL0DTtP2hRBbrGcDHO2jmLJZG29VLfSuB+KL41Dwiw6DUX/APRT16IOOnFecfFFgreGXI6am+Pb5HpTA+btLJOtXBzzufn8a+hfiQpm+CGnt1/49W/CvnrT1KazN/wOvojxj/pP7Pto46iO3YH23V4GZx5sHV/wnpYH/eIHgVFFFfzi9z9TR9Dfs/8A7rwHeOfuG9lY+3yJXo+n+LtK0XQ1nu7xIkZ9wx8x/KvN/gn+5+F2oyfwtPPj/vhK4rQ/tPiHxJJaQWr38m393bq20Z9XP8Ce45r+kcmjy5fS/wAJ+WY7/eZHp9v8bUknngh0aS4iRvl2S4f/AL4xn9a7Hw/40sdckMWy4sbgfeguozGx+hbIrntK8ILY2yreXlxPI3WGzJtoE+irhm/GtuK3a2QJDNOEHRZJDIP1r2zzToyAydBRFymDyfWqFveyEE8Ej7w/wq8j7h5g4FMgQMEv7Lj/AJaVjeLVE84XAJETY46VrP8A8fNoe/m9axPEl0ttr9hbPyLi3l6/3t3SqAht4rLRNHuNX1BxHaW46Hq7eleQ/GPU9evprfU1kW50OZd0P2Q5SP8A3u9dR8cNdUHSPDkQCqEWaYdmZumfWuR03UmsmKSL51qRgxv8wI+lTIDgfshmUt5z8+1dl8O/hjJ4nuRe3ztHpMTY6Ya4b+6PQe9W9P8AAS69r9rHYMF02b5psHBjH9K9xtLOCytY7eCNUt4l2KgXHy+mPSsQHWVjb6ZZRW1pEsUEX3UVQP5VKykDA4xT++e9HWrA5H4qXd3pngHVZbNvLl2ITIg+ZAW+Yg9sVzvwe8J2I0dLthi5mhW4Y45+90Br0q8sYNUs57O6UNa3MfluhGQR6EVxnhuN/Czf2c8bOIh5SyDg7frVAdmRFbSK8Kqij7yKMA/hVuVNny96y5rkXYhjtbc26fxs7bmP0NbEzAvVgVwcVBKoYcgH61ZcYpmAewqQI7O0tbiUxznYT9xu341V8Wx6L4d0o3d/dfZ2AxHGPndz/dA/rVoxA4yAcVhReFYb3xPca1qsp1EQhVs7abpEPQjvVAUNH1bUtO8Mz3uszG0s7hP9GsXGZG/289vpXkOl6vL9tuLacETRH5S/JZfWvU/i3pFx9ghvLuRiS+VjB4B+leRakjPqljfKQC6tFLnvUyA9F8C6zHZWmt3N1KsUCIoBY9Pl/wDrmuN8MfFO08F+ALKyiU3GpSPIyRHomX+XJ9657xpqM1tof2WFtkM7Ym5wWrgpCZY4FAZsqM5746VyVKsi4nXa58S9e8Q3Akvb1/JjZZltY1CoWU5X247elPsfip4rvLoJHq1xLcH7sSqrg/hXHwwPeXMdpDG0ssjqkcY6szdBXs/hDwLLba2/hrSZjbXFiqSa5r0ahpo2P3ba3/u+7jmsYylI25Tb8NeMvF7ssGu6da20T/IZ5riO2mQepVmFaHxF0661Ox0GaxtZNQjt7/fKYBvYLs64GK7HR/Cuh6DCFtNMtY3/AOesv72Zv95zyfzrUiiRcukZQnqYwBmusg+JbY7NXlJGSrMpAyGH1Br6D1Vxdfs5x7eNltF97/rrWV+0F4Js7b7D4is7eK3nkkMF0YxtExHRjjoT61oWMovP2b2Zv4bVlOfUS8flXmY+P+y1f8J24WX7+B4TRRRX81vc/VVsfQvwhDR/CO6IG8PLdFVHU/5xVf8AZ502VdH1bULqCW3vGvmt2jnXDqqKuMZ9dwq98GpvI+E5mCglHumxit/wn4qh1nWNaUOGMlwsjMTwrFBlT78D8hX9KZV/uNL/AAn5Vjv94kcd+0R8brf4HeFLXUZIvtdxdyNFbQZOJW27sH04rjv2WP2mNS+Omoa7pWr6XBaXunwx3cU9mxeOWJmKbTno24ofoT6V638U/hL4c+Mnhd9E8R2rXFsG86CeF9ktvLjG+NupGOMVl/Br4E+FvgXpl9a+Ho55Zbwg3V7eTLLLKBnCkr8qgbm4HqfWvYPPkejqwjdG6ANWpbAKzREZ9qx2DSSpGoyScn2X1rStZ1l12WAOM+TvoIFmBju7RQSf3tcn8SZzZ+IdBlIxt35rsbgbL+y/661xHxdBXUdJYkn92xpgeW/E6+fVPHZncgjZGq49VqARFOpNU/ERLa9bknJ25ya1hCZSoH3mbbisrgei/DjQP7O06S4bar3J3qAP4fT6Vj+NvjPZ+GtQNjYQpq00JYTylyqxt6DHWu/srRLezijGVMabBjtXxh4+S+8LarqsDhxNaCYmL++y9wf4j71hiJyhHmNon014W+NnhvWx9n1LULPQtTX5Tb3l5GglP+xlj+tegJKkgJWRCh+6wYEN9CK/OzWoNNvfhtrHiPQ9atLbxbpcq2esQXKpKt3HJhoprVmG0SKoYSDHBHFfR/7Gur3mo+HtV0m9e51C0tba2urW6uUBKvLv3ovsMLwfWuDD491pcsjWVKPKfQ2w5pJLSG5ffLEJH/vd6chylG/d0r2jnJUS3gClI1yvQgDiuX+I/jL/AIQ3w5LfRIJLt2EECNyN56k+wro81w/xd8MSeLPCFzHA/lXNpItwjHoc9V+lOp8IHidx8dPEmgF9TvdWBtIzmRZ4FZSfRVWu38M/tYeEdWmhi1SDUPDzGXyHuNQhBt0fb0JU5Ue7Zr5H+JEk12ot2VrpLK7xeW7yFWXc21DkdgVOfrUVp4QN94d0jXfBPhC902HTEFtruoax5k0VxKWyWVmHlq2OAoOMV8+8ZKMuU6OT3T9Jop4rqIPDKkqFVbdGcj5uhB7ipLdhBd287ciN9p+nrXDfAqxu9P8Ag54Qi1BSt2tlld3URM7lAfoCAPTAruCARg8j0r3Y+/HmOeRz3xrkV9Dtyhyvn4zXhV6rGKxYjIWXpXsvxYkz4VssnOZa8enJNvb55/e0SIMjxzA82lQuiE+VId7dhu6VxLSmC1ifGCU2gj1r3PR9Eg8QaF4htJxkC2aVGx90joR6EV4jqFu/9iWMygmPzCrvjhc/dz9a46kTaJ2vwD06LVPiNazTrvWzjNyA4z84G0fkWFevfBW3b+w9cubg+Zez67dtNu+8GEu0DPsoB/GvKPgLdx6f4gmvJ28uB8Wxdj0DHOfzAr3CKKPwjr9y0gEel6tO0zMq8Q3B/wBYD9cDDVrSiFzhP2pPiXr3wu+HTah4fs45Lm4l+zSXzIXW0G375Qd/bpXln7C3xN8X/ELV/GVvrmoXGsaZapFNDc3DFxHKxw0ak9gATgf3fevq67toL21e2uY47m2lTy2jlUSRyL/dIPBHtUOlaTpui2z2+m6baabbu/mNFaQLErNjG4hQATgDmukDA+KXhm98XfD7WdM06JZ9Rki8y1jkOA8oO5RntkVxXhC0uV/ZzurW9iMd3Fb3CPE4GMpK3OR9K2/jz41vPA/w2vtVsj5G2eCOS5B5Xcdgx6NWZ8OphqnwP1MqxcyQ3ZJc5ySuSfzya4sbHmw84/3TSh/GieBUUUV/M0l7zP1hbH0R8If+SRSL3ZroVH8INEjsNW8U2Wobohf3MV1BM/qE2kqexJq78F7UTfDCCNjhWnuBn23V6I3hSDUvDltcxRlLq3DRqV4OPXNf0jlX+40v8J+YY7+PIrLDqFqdjot5GDlJ0OCT71cs4rqeRla1aEquVY4IJrMS9vrVwm5ZEXrkYNSvq94Y9oAFeqeYaErQ6JbPNK/mTsMAdePSuf0K8mfWTcygBpTjjsvp9Pan3BluzmUFj6tzU+iWX+mocHC9RQB0t4/+n6f/ANda4z4vfPfaUv8AsP8A+hV2U4zqWn55/e1yvxGiFxr2hwkBg+/k/wC/QB4t4mtWttehRxh1XkVq6dze2uefnU1q/FvSfsni+1dFASW1V8gYrLt/3Jil/wCeZVjUge25r50/ab8L32ofDufXtJUHUNF1p3dwuXeBpcMvrtx26V9FQnzIVdWB3LxWSNAjvbfVrK+QvDc3ExJUdUY5H61nOPtIcsiz4y8LfDT/AIRzxBqdxcaZpC2bwyTT6ZrKQzoq7TtI3yDy8b+N3Svbf2U7VNKfWUtJdPubGeBMNYThyJN38YAGB9K6XUf2cPB2oao2oumqG6ki8iV1uiDIn+0dvI4HWum8D/C/w38P4z/YVi1oxGHLOXOPbNeRQwM4T5jf2i5TsVDCPcwwKajBulSyEmPaTmo405A+VWP3VCnJ/M17pgLWL4pYjwzqpycCHdW0zY+8pFZut2L6npF9ZxELJNCyAnpVgfH/AMTfhUfC/wATPFt1dXsdr4evtOS9guJk3K5Mx3R+vDNnHpWtpd/8MvC2hxvfaxLf6jqEyiFJ2dnyEz5vkRjkKeAx5FfUes+FdM8TQRf2ppi3LqMR+dG2APf8hTNJ8H6Xo+37LpVnahQQqJaoCM9cECvIq4FVZ8yN4yLHhe4S48P6bDEwaGGyt0VuSw+X0NajfI1Ja2vk3O9Y2DEDeCo27R0AHoKWf5peK9SlHkXKYSOM+Ko3+HbYDoJ2wK8dulaJIckY31698QZTeeHI3A+VryUofb0ryXWI8RRf9dKkg7fwGw8jXE/vWL4rjfhj4Ui8aeCdd0iUgSSFGikI+5Iu7b9B0rsfAY2z6mD0NjLxWN+zvJtg1VD/AHU/TpUFnF+F9Lm0/wAMMLiJo7rzjG0bDlSnc17V4S8Z2et6Qml668bSsgjEknAnA6E/7XvVDxx4cNvd/a4o8wXJJm2jkSnqfoa5y205o8YUHByOO9XED1eHQLuxkH2G/c238MdyA2Poa1ho8kkMRlvAHb7yxKBj8a87sby7toRHHO8aj+FXIFS3upahdIInupzEfujJAH1qizy39unxbbaf8M9N8L2ZH2vUdWgd1U7vLWM5JY/xcsDXZ/A6FW+D2o2x5KC4Tn/rlXgPxr0i+8VeOoYpYXGn6aFijz/E7fMz/kBzX0L8DoivgzW4AuFWdwu7vmLmsa38NmtP+Ij58ooor+YK/wDFl6n6xD4UfTHwW+X4aWWf+e9x/wCh165oEoTSovQ15H8Hvk+GFk//AE1l/wDQ2r0/Rptul29f0nlX+40v8J+WYz+PILnw7LKq3G5ZRJ8xUcECs+XTCOAhB9hXQ2dwTZxEk52etNklDnIAzXqnEc4mlTTdMr9a07W1W0j4wW9e9WXk96iklRF3NwKCCG4k239j/wBda57xh++8UaH/ALCvWwXae9tp3G1A+UT/ABqpq9uJtatZWUfu4nAOOhoA5v4s6PJPPYXu3cttaKjY71wLRsYZgoyNnSvf7zTI9WtpIJ1Vla1QdM8+teQX2kSaTez2sybdvy5x94eoqAOz8L3i3mkwgNllVee9b1pOYGzjcuMY9q4PQpH0O78p8/Z2+6ew+tdtG64JzlW6EUFlyS8kY8AbcYx2qN71/U/nUdRdadyDP8X+IR4Z8L6pqyx+Y9rC0sakZycbcH8a8e8AeHtf+J93Lqeq6zdxwfMy+RIyBR/s4PHVfyNez61o8Wv6NeaZcE+RdQvGT3yxyK5D4YWx8N6Ha6VcsUubceXISfvH/JNIs7G2tpdOtUje7lvYlG1ZJTlyfcnmrgTbUNzCiR73kjKvyu05zV9wNq8D7tWBHHfzRR7RzQb2RhwcVBjFHl4rUkeZ3PUk9qq398um2E9y/IhTcM9z6VYrkvG+o+Zs0uB92ZMy89T6VkIr+L4ntfAmhLJ/rHJlbPqx3Y/KvLdWj3xJ/wBda9m+LEK2+g6XCDkLhc+4TivINQH7pP8AfqAOq+H8bSatdw5G2W0dAax/gbaHTdS12zm+WaMmNvTKt2rY+HvGvcf88GqPwdYvN4j8Wi2fZe2mpExZ6MD1Q+ufWgD0tvLuomSRN0L9mGawpfCSRSFrdyUboH61Y0/U/tg2tuimT70bHkVppNuILcEd6CzIg8OsPvKB+NZnjzSjD4O1WaCeSC5jjyHjGSPxrq/NU9jXP+Pn8zwTrank/ZmegDwLx1cBfEEwKhx5UfUZ6oufzr134Gky6PrEZOVEq8HpynNeJ+P5SdXt5QSPNtIn4PX5K9e+AF408WqoeMLASPc7s1zVPhZotzwm6j8ueVAANsjCina8hh1e+jBIKXMqnHs1FfzXiaX76XqfrFD+HE+lPhSAnwp0tcDJMrn/AL7evQ9K/wCQRb/7teffDVPK+FukZ/ihdh/329d/pxMWkQ5/u1/ReWR/2Ol/hPy3Ffx5l62kxa2/+7R5lQwP/otsvdVXNN8yvVOIPOYbvMH5VHEBdvvcZgTse9R3U3yFUPLfKD71If3SJEOCOuO9AA+6S6tchV/edhVfUPnvR7LUhffeWi997f8AoNR3n/HxnvtoA6K2UmTaOP3SdK5z4ieHzd2q6hCoLwfK+B1X1FdNYKftTf8AXBKvTWqXEMkLgGNhjB6YoA8i1CNXgiDLhSvJ9aseHtYaFhZXhCAfclP9TV7xJpR0sfZ2Yt5fygnuvrXLXEsM5MNw/lqThJPQ/wB1v8aCz0Lvu7UYHoK8+0rxje6M5tNbDgLJsUv/AKwe5PRhXcWN/BqMfm2syTr6o2f0NQQWU6571Q1DQYLyc3EQ8ubOTxgZ9av9KmXnrzQWQ2mn+RbW8Um3fFu5A4qy7CmbwRTSjuQFVmZV5CjNWBG6Z6cfSgtt5Klj6CrE0BgiZ52EIXq0hCn8hXM6r4sVFaPTlLH/AJ7t/hQBZ17WU0mBlRg1y/QDkLXLeHdObWPEEcj/AL8I/msx7n0qqDLcOxfLyP8AnXa+DtMFvJkLtIXJIHU0AUPi782lWKjgrJtP1ryHUButmI7NxXr3xaKmwt8nH73NeRXXzWr4/vVBB0vw/wDl8QRZ7xODU3gV9njzxnGevn5/D0qp4Kk8vxBbc/eR6l8LHy/ir4uQcBxG+B77c0FnW69A0YGoQDNzH88oHWRfQ+prSsJI72xFyjZjP3T602QZrC8NXZtpNV0ZyR9iuCI+f+WbLwaAOheZWXgEVgeKVLeGdchJ3k2MrLnnIrXaRY13E4H90cms/VYnudM1F3Ty1kt3iRc5wu3qaAPnDx4waLw/cgYWXTk/9Cx/KvUv2dpt9zqyesMTn/vp68t8YjzfBnhS5PDeVJD+XQfhXf8A7N9wP7T1FctzZpnn/b/+vXM9i1uedeJU2eK9bjdQCt3Lxj/bairPxCUReO9fGB/x+yfzor+acyTWMqrzZ+pYf+FE+g/AXyfC7Ql7/Zf/AGd67gPs0pF7+VXF+Ck8r4aaEp6/Y1rsZmH9nJx/yyr+k8BHlwtL/Cfmdf8AizLcLDyIuP8AlktRO9Bfy0QdtlI5HoK7TjIkGbmIY4zuxUkj5OT19ajRh9qTj+BqdjNbgCAfbbc98t/6BUd44+0M3bbToztuYJDyA3ze1JeJ+9rIDqbL5Lp/+uCVfllCJyKyYJ1W7lY5x5S0PdmdiSSgH3iTwK1Ao+LNPW/sHlIHmxrkgnHHpmvEfEFx5/8Ao0JDGTkkcgj0rqfH3jW68RajH4b8Pl5lZ/LmdM/O390N2HvT4vCFt4Z8PNYgHUNWA3y3Kjds/wBlfQVkWcg2pLbAWN5DHf2iLs2ynDp/ut2/CrdnBhzLpF9u29YJj5cyfl1rGvY2juHLDHOaWMYII4I6H0oA7GDxdq+nMy3cJk/66pj9RWlb/EQBcyW6b/8ApnICP1FcnZa1fWK7Y7mRY/8Anmxyv5VpjxFcOMMlu31t1/wqAOki8fRMcR2qs3ozg/0qSHxdrN1I8enQtA/rAuP/AB41zUWt3DNkQ26H1ECj+lPm1S6n+/cSsv8AcPyj8hVgaGp208bl9Su0M56wxyq0n+FZKTJFKqhCIi3JJ5puAKVY/OZU2hnbkAjNAGxYae63Bcr8v8JFd7ptr9htgxPzvXKaLqiaLeR6fq0YSKQZt52GP+Ak/wBaseOvGDaJEIEjeKV1/dyMvyfgRQBx/wAUtb+3XsVorZSM5JU964KZ/wDR3qS+vZLiUyytud/eq0j749tQQb3hKbHiGx/4HVjw7Nv+MXikIcqIkVj6H5Kp+FJYra+k1CYhLWygkmlZvf7oHuak+EEM2oX2veIrpCDfzhI93OVVsn9Rigs9KzmuT877L8VZoeovNKEh/u7lbH8mFdXXG6t+7+KWhOOPM06fKjofn/8ArCgDrFUI2VAU+opsuJIZFPO+PZT6ZQB82+JImn+F2jzOo/0W+lhJH/Av8K7H9nKUDxDcp62LZ98PxXPX8HnfC7XoOc2WqO/0+b/69an7O9wB4qjUcFraVD71zz3N4GH8VY1g+IniBdp/4+if/HVoqz8ZVMHxK1rODvdH/ONaK/nfNaX+3VfVn6Lhan7mPoe6eFDt+HGhKev2OKutvv3dh6fJXIeECLn4d+Hyhyv2VFz/ALo2n9a6/VPlsdp67a/oTA+/h4f4T87rfxZFiQg9QKg8zNOmf5tveoq7znH27A3XPP7pqc5xUVt/x8f7sT5p+8Gggd6+9Kz+eMHiTbnNM3imOcpwcduKkDntW+KUuh6nLbXGnOkyoFdWPyjb1we9c/4j+LV1q+nGxs4vsDzt80ueV/Gup13TIdXtAmoaY+pRxZxPAQJ4c9cA15Zr3hixgSUWWvRWqnpHqsDwkfjzQB0+n+LdB8Caa0Olzi/1adf9JvI1yF/2Vz0HtWjoXxCFlC0i24N1J99pOfzrym08NfZpTnV9Hk5z8t6p5/Fa3JLfehVtX0gE91vk/wAagsi8Z+Kle+aeCzREb/WIpwF+g7ViwePbHH7yOVG9Ixu/nVy98Pyywuz6lpLe39oR5/nXET6BPcSskCl5FbnZkmgDvIPG+kN0uCv1Sr8PjTRSf+P1fyryw+ENb/hgnP8AvRmkTwf4ix/x6Sf98UAeuReMdHdtv25M/SpJfG+i24yL5ZG9IQTXkkfhHxCBkWrg+u01Yg8Ga65y9pIp+hoA9EvfijpdpHmKKa4k9AKXRfiFe3F/9o+yQ28S/dV/mrjrLwHcW0a3F/cW1gm7b/pTsh/VDXQ2ljZ20SBtZsEPqpkP/slAG/4r8ZX3ia3ijuW3mMbQyqAQPT6VkT+OdTbSI9IvJzJaxtlCy5fHpuqKWCyH3tXtR9I5T/7JVK606wuVCNqitjp5NrMcfmlUBI0ocAryB0NLCk90/lQqu49WY4CfU02x02REMVnZatqmOgFsYkP/AAJ+a6Cx+HOuaxsTVHTRNPY7jBane7j/AGj3/GpIMEi68VzJ4Z0LP2IFZNS1Jxw390j2/ur3717FpGlW2h6XBY2gIghUgE9SSck/nzVfQtCsvDmnraWMCwxgne+BukY9ST3NaMhPrQWDnFcZ4lPl/ELwnJ0LxXUee+Pl4/Wuz61xXjd/L8W+D3HB+0TJke68/wAhVAdhmkoqPzKAPE0KpoPxItGAYR3MrgEcCqP7Pc2PHFqnqkuf++aj1bUkgHxHZW+SeVYUx3Ytz+dWP2cLBrjxw7lSVtrZ5SR6t0Fc8i0HxwRE+JV+Wwd8EDcj1SiofjbN9q+I+qFCrCLZDkf7KL/jRX4Fms6f16rr1P0LC/wI+h6p8DdYGteBJbFj+806cqFPXYxyPwr0q9dbm2ibBwV5r5h+FXjX/hDfFEb3EhGn3eILoDoAOj/X3r6Wd8woySAwnkMnII9q/XeHMdDG4GCT96J8nmeG+r13L+YszlTKSpyrdDTN4quJQihD2p2/d0r6s8YkiYRzuzMQmzbmnb8DJ4X1HNVpGDjGOPSs2fTpPMzb6jdWg/uK67fybNAG7TWfFYH9n6rGcLrcgHq0EZ/pSPBrX/QYgH/XSxA/k1AG+gGaJGEow43j/a5rEji1wnC6rZAepsT/APF0j2+vSf6vV9OX62Tf/F1AGmdPtZeXs7dz/tRKf6VXv4dK02OSW8gsbOJfvNIioE+mQSax7nRtcuC63HiGSJW6LaWixsPxai28H6dBIs1wj38y9Jb2QzY/Bs1IGRPq3/CQI1v4c0a1WMnbJqt1aqI1HqgIy341r+HfCtn4dtVWNBLcMcNcyjaZG9RjoK2AoUKAAAowAOwqTqc98Y/CgBd7f3j+dJnFG4elG4elBYu9h/Efzo3sf4j+dR5pfxNADZwJFCuN65zhuRmopLg2/WGPZ/sqM1JvBqMjd15+tBA+G4gum2wOmfQcH9akLGJs5IX1HNUbiygvDmWFZH/56YwfzqlLou5f9H1HULP/AGUnDD/x/NHMBsfNgDJwOgxQBjopHaslPD1wIfNfxJqa7zu2RmNio/FKqzaDMW48QasPo6f/ABFAG80eOgx3pwhcjLIdvqVx/WuYbwszL+81rWG+l0yfyWoj4IsMbZbjUJx6S38gH86OYDodSvrbSIWnvrhLWFerzOqL/U159b3U3xA8aWWo2qSJoGlhzDJKu03MvqB2Fb8XgTQhIXNgkjnr5+5wfzrdijWCJY41Eca9EQYA/CjmAXzfc1i+LPEEPhrRbi7kcLKEZIVb+KT/AApfEHirTvDVk1zdzhAv8AAZvyrwHx143uvFl75twTHapzFag5UVlKZcTCvtTmayeCQ/Pcz+fcEHkn0r3j9nvQl8M+FdR8S3oKC6O4FuMQJ0b8a8i+H3w/vfiJ4hWFVeHT4W33V10Cp/dU92r2D43+MrXQdEg8IaSEjkMKR3EcRwI4F+6nHQn+Id+9eRmGMhgaEq0zqw+HnXqRpwPFNdv5dc1m+v5iRJczvKQp4wcY/QUVVBK9CR9KK/nypinUm5Nbn6dCjyxUR2NwIPPavW/hP8Vo7COLQtduWFtn/Rr08+T/sN6r/tda8kBxRJ82M8kHI9j6125ZmlbKq3taWxli8JDGR5Zbn1rqM0+mQrP5El9Zsu4mDDTJ9PWqlh4t0+6j3Q3UV0i/fCnY4/3o2+YfhXhfgT4t6t4MaK3cnUNOUYFs7Heo/6Zsa9Rj8RfD/4jopuhDDe/wATznyJ4/8AgS9a/c8tz7B5jCKT5ZH57isur4R2kuaJ0T+O9AQ4OpW6t6NmqM3xR8NW8eRfqw/uheawb74FabqMpl03XrpA3TIS5T8xzVZf2fJxJlteAP8A15H/ABr6DmPNNef4yaBEFAFw49BGKzJvjfpp+eHT7p/Y4FRx/s9xlfm1yY/9crcf41MP2d7Zfv61efjAv+NZ88hmfN8dFIUR6SPxc1Vb45XjL8mlwD6yGt//AIZ+0wddavz9Yo6Y37P+ip9/W9Q/76j/APiaLyA5t/jbqjDAsrbHpvNR/wDC7dYzn7Pa59dr/wCNdWfgT4fA3Nq9+B/11j/+JpP+FF+Gv+gpqH/f9P8A4movIDjf+Fza9/zztf8Av21V2+L/AIgTrJD/AN813i/A3wsn39Qvv/AlP/iakPwN8Jnrf3p/7e1/+JpgeeP8XvELdJoh9IxTP+Fu+Iv+e8X/AH7FehH4KeDE27tQuB/2+rT1+C3gpvu3ly//AG/KKC+ZHnX/AAt3xF/z3i/79ij/AIXF4hj/AOWtu31jr0IfBzwMZGjN5cCT+79vXH505/gn4LH/AC+3H/gwWgOZHnn/AAufX/8Aph/3wKlT4z68Ootz/wBsxXff8KS8Ff8AP5cf+DBf8aYfgl4KP/MQuU/7icZoIOLT42auPvW9s/0GKUfHLUwcixtgf96uzf4E+EX+5qOoD63a/wDxNN/4UV4Q/wCgre/+BkNUByP/AAvTUc5/s+3z0++acvxwnP39Ki/CQ11qfAXwm/3dUvh9bpP/AImpR+z94YPXUdQX6XSf/E1IHM2/xugiiQSaXJ5o67X4NWf+F46bIMtYXMR9Aa2/+GffDP8A0ENQ/wDApP8A4mkP7PvhpeV1O/B/2p0/+JpAYFx8cbAJm3sJpD6HiuZ1r4y6zfROtmsVgh6Mq72H4mvQ/wDhnrw1/wBBPUP+/wBH/wDE08fAfwbafvLm8vXA6LLeKgP5LQB8+3uoz6hcNPdXDXNw33iWDE/QYrtvBPwS1vxfJDLeJ/ZWmO+d78TSj/YTp+derQ33w5+H5V7WG0a6TvCrTSf99HmuN8Z/H7UL15bbRIBYQyHabqQ7p2Hqo/hrysbmOFwMf3szrw+Fq15e5E6vxT4r0P4PeG49F0SKAX4XekQO7yT/AM9JD/E315r59vL2fUbye5uJjcXM7GSSRupPck96jupZbqd5ppHlmkbe8jsSzN6knqfegn8ulfjOc51UzSpbaB+g4DARwsbLcSiiivlT1gzRnNFFAAeQQeQevvQRkAHkDoKKKuM5Qd4uwnFS0aLFrf3WnsGtrmW2Yd4ZCp/Stg+N9XbrqN4frcN/jRRX0+F4gzKnGyqnkYjLsNKV3Ea/jG/k+9dXTfWdj/WpIPFYR83T3lxHt/huWU/zoor24cRZg/t/gefLK8N/KRnxGx/5bz/9/DTZdcEnWSU/VjRRXowz/H/zfgcP1Ch2GHWI2GCZCPQk0o1G2brkfQUUV1LP8d/MvuJ+oUOwNfwN1JP1Wj7db+//AHzRRXo/2tifL7iPqFDsI17bv94lvqtAuoB0BFFFP+18T5fcR9QodgN1ARgrx6YpDcwH76IPotFFL+1sT5fcX9Qodhv2u2/uf+O00X1svRcfRaKK5P7bxndfcX9QodgOoWp9f++BTv7Rt/f8qKK43n+O/mX3FfUKHYj/ALRt/wC435CmvqMf+3RRXmy4izD+f8Dq/s3DfyiSal/dVv8AvqnJq88bb2QS87sOxIxRRXFU4hzD+f8AA6VleF/lFvNbllnZ1t44A/8ADHyB9M1HJq9ywALA49RRRXi1s/zGbs6rOuGXYaO0Sm7tIxLsWJ7k5poGM4HUYPuKKK8atWqVtZyuepGMY/CrBRRRXOaBRRRQB//Z;" vertex="1" parent="1">
                    <mxGeometry x="570" y="235" width="221.9" height="210" as="geometry"/>
                </mxCell>
                <mxCell id="5" value="" style="shape=image;verticalLabelPosition=bottom;labelBackgroundColor=default;verticalAlign=top;aspect=fixed;imageAspect=0;image=data:image/jpeg,/9j/4AAQSkZJRgABAQAAAQABAAD/4QBoRXhpZgAASUkqAAgAAAADABIBAwABAAAAAQAAADEBAgAQAAAAMgAAAGmHBAABAAAAQgAAAAAAAABTaG90d2VsbCAwLjMyLjYAAgACoAkAAQAAAAUBAAADoAkAAQAAAPcAAAAAAAAA/+EJ9Gh0dHA6Ly9ucy5hZG9iZS5jb20veGFwLzEuMC8APD94cGFja2V0IGJlZ2luPSLvu78iIGlkPSJXNU0wTXBDZWhpSHpyZVN6TlRjemtjOWQiPz4gPHg6eG1wbWV0YSB4bWxuczp4PSJhZG9iZTpuczptZXRhLyIgeDp4bXB0az0iWE1QIENvcmUgNC40LjAtRXhpdjIiPiA8cmRmOlJERiB4bWxuczpyZGY9Imh0dHA6Ly93d3cudzMub3JnLzE5OTkvMDIvMjItcmRmLXN5bnRheC1ucyMiPiA8cmRmOkRlc2NyaXB0aW9uIHJkZjphYm91dD0iIiB4bWxuczpleGlmPSJodHRwOi8vbnMuYWRvYmUuY29tL2V4aWYvMS4wLyIgeG1sbnM6dGlmZj0iaHR0cDovL25zLmFkb2JlLmNvbS90aWZmLzEuMC8iIGV4aWY6UGl4ZWxYRGltZW5zaW9uPSIyNjEiIGV4aWY6UGl4ZWxZRGltZW5zaW9uPSIyNDciIHRpZmY6SW1hZ2VXaWR0aD0iMjYxIiB0aWZmOkltYWdlTGVuZ3RoPSIyNDciIHRpZmY6T3JpZW50YXRpb249IjEiLz4gPC9yZGY6UkRGPiA8L3g6eG1wbWV0YT4gICAgICAgICAgICAgICAgICAgICAgICAgICAgICAgICAgICAgICAgICAgICAgICAgICAgICAgICAgICAgICAgICAgICAgICAgICAgICAgICAgICAgICAgICAgICAgICAgICAgICAgICAgICAgICAgICAgICAgICAgICAgICAgICAgICAgICAgICAgICAgICAgICAgICAgICAgICAgICAgICAgICAgICAgICAgICAgICAgICAgICAgICAgICAgICAgICAgICAgICAgICAgICAgICAgICAgICAgICAgICAgICAgICAgICAgICAgICAgICAgICAgICAgICAgICAgICAgICAgICAgICAgICAgICAgICAgICAgICAgICAgICAgICAgICAgICAgICAgICAgICAgICAgICAgICAgICAgICAgICAgICAgICAgICAgICAgICAgICAgICAgICAgICAgICAgICAgICAgICAgICAgICAgICAgICAgICAgICAgICAgICAgICAgICAgICAgICAgICAgICAgICAgICAgICAgICAgICAgICAgICAgICAgICAgICAgICAgICAgICAgICAgICAgICAgICAgICAgICAgICAgICAgICAgICAgICAgICAgICAgICAgICAgICAgICAgICAgICAgICAgICAgICAgICAgICAgICAgICAgICAgICAgICAgICAgICAgICAgICAgICAgICAgICAgICAgICAgICAgICAgICAgICAgICAgICAgICAgICAgICAgICAgICAgICAgICAgICAgICAgICAgICAgICAgICAgICAgICAgICAgICAgICAgICAgICAgICAgICAgICAgICAgICAgICAgICAgICAgICAgICAgICAgICAgICAgICAgICAgICAgICAgICAgICAgICAgICAgICAgICAgICAgICAgICAgICAgICAgICAgICAgICAgICAgICAgICAgICAgICAgICAgICAgICAgICAgICAgICAgICAgICAgICAgICAgICAgICAgICAgICAgICAgICAgICAgICAgICAgICAgICAgICAgICAgICAgICAgICAgICAgICAgICAgICAgICAgICAgICAgICAgICAgICAgICAgICAgICAgICAgICAgICAgICAgICAgICAgICAgICAgICAgICAgICAgICAgICAgICAgICAgICAgICAgICAgICAgICAgICAgICAgICAgICAgICAgICAgICAgICAgICAgICAgICAgICAgICAgICAgICAgICAgICAgICAgICAgICAgICAgICAgICAgICAgICAgICAgICAgICAgICAgICAgICAgICAgICAgICAgICAgICAgICAgICAgICAgICAgICAgICAgICAgICAgICAgICAgICAgICAgICAgICAgICAgICAgICAgICAgICAgICAgICAgICAgICAgICAgICAgICAgICAgICAgICAgICAgICAgICAgICAgICAgICAgICAgICAgICAgICAgICAgICAgICAgICAgICAgICAgICAgICAgICAgICAgICAgICAgICAgICAgICAgICAgICAgICAgICAgICAgICAgICAgICAgICAgICAgICAgICAgICAgICAgICAgICAgICAgICAgICAgICAgICAgICAgICAgICAgICAgICAgICAgICAgICAgICAgICAgICAgICAgICAgICAgICAgICAgICAgICAgICAgICAgICAgICAgICAgICAgICAgICAgICAgICAgICAgICAgICAgICAgICAgICAgICAgICAgICAgICAgICAgICAgICAgICAgICAgICAgICAgICAgICAgICAgICAgICAgICAgICAgICAgICAgICAgICAgICAgICAgICAgICAgICAgICAgICAgICAgICAgICAgICAgICAgICAgICAgICAgICAgICAgICAgICAgICAgICAgICAgICAgICAgICAgICAgICAgICAgICAgICAgICAgICAgICAgICAgICAgICAgICAgICAgICAgICAgICAgICAgICAgICAgICAgICAgICAgICAgICAgICAgICAgICAgICAgICAgICAgICAgICAgICAgICAgICAgICAgICAgICAgICAgICAgICAgICAgICAgICAgICAgICAgICAgICAgICAgICAgICAgICAgICAgICAgICAgICAgICAgICAgICAgICAgICAgICAgICAgICAgICAgICAgICAgICAgICAgICAgICAgICAgICAgICAgICAgICAgICAgICAgICAgICAgICAgICAgICAgICAgICAgICAgICAgICAgICAgICAgICAgICAgICAgICAgICAgICAgICAgICAgICAgICAgICAgICAgICAgICAgICAgICAgICAgICAgICAgICAgICAgICAgICAgICAgICAgICAgICAgICAgICAgICAgICAgICAgICAgICAgICAgICAgICAgICAgICAgICAgICAgICAgICAgICAgICAgICAgICAgICAgICAgICAgICAgICAgICAgICAgICAgICAgICAgICAgICAgICAgICAgICAgICAgICAgICAgICAgICAgICAgICAgICAgICAgICAgICAgICAgICAgICAgICAgICAgICAgICAgICAgICAgICAgICAgICAgICAgICAgICAgICAgICAgICAgICAgICAgICAgICA8P3hwYWNrZXQgZW5kPSJ3Ij8+/9sAQwADAgIDAgIDAwMDBAMDBAUIBQUEBAUKBwcGCAwKDAwLCgsLDQ4SEA0OEQ4LCxAWEBETFBUVFQwPFxgWFBgSFBUU/9sAQwEDBAQFBAUJBQUJFA0LDRQUFBQUFBQUFBQUFBQUFBQUFBQUFBQUFBQUFBQUFBQUFBQUFBQUFBQUFBQUFBQUFBQU/8AAEQgA9wEFAwEiAAIRAQMRAf/EAB8AAAEFAQEBAQEBAAAAAAAAAAABAgMEBQYHCAkKC//EALUQAAIBAwMCBAMFBQQEAAABfQECAwAEEQUSITFBBhNRYQcicRQygZGhCCNCscEVUtHwJDNicoIJChYXGBkaJSYnKCkqNDU2Nzg5OkNERUZHSElKU1RVVldYWVpjZGVmZ2hpanN0dXZ3eHl6g4SFhoeIiYqSk5SVlpeYmZqio6Slpqeoqaqys7S1tre4ubrCw8TFxsfIycrS09TV1tfY2drh4uPk5ebn6Onq8fLz9PX29/j5+v/EAB8BAAMBAQEBAQEBAQEAAAAAAAABAgMEBQYHCAkKC//EALURAAIBAgQEAwQHBQQEAAECdwABAgMRBAUhMQYSQVEHYXETIjKBCBRCkaGxwQkjM1LwFWJy0QoWJDThJfEXGBkaJicoKSo1Njc4OTpDREVGR0hJSlNUVVZXWFlaY2RlZmdoaWpzdHV2d3h5eoKDhIWGh4iJipKTlJWWl5iZmqKjpKWmp6ipqrKztLW2t7i5usLDxMXGx8jJytLT1NXW19jZ2uLj5OXm5+jp6vLz9PX29/j5+v/aAAwDAQACEQMRAD8A5c0AZpQM1YsLG41O8itbWFp7hzhVQdW9fpX8vUacqkuSn8R+xylGMeaRXbCEDK7t23a2cn6Yrr/Dfwp8R+KLfz4bVbOxf7t3dkqP+Ajqfxr1nwL8IdO8LQQ32rxrfayxysZAMUP+yoPDN/tGu8luZpn3qSGP8QPNfqWV8IQlDnxju+x8fjM7tLloHldh+z1YwR51DVriaT/p3jCD/wAerZh+CXg2Fdsq3sj+rXQUfpXeRaXcXCZSIMPQjFEnhu//AIbYn8RX3FLIcBSjyqimfPyx+KltI4UfBfwSfux3X43ppv8AwpLwd/zzvP8AwMP/AMTXay6Pfp1tn/AA1XaxnTrC/wD3xW39i4H/AJ8Ij69iP5zlv+FI+Df+ed3/AOBLf40z/hSvgz0u/wDwLP8A8RXTG3/3V+qmgxr3Cn6DFH9i4H/nwg+vYj+c5f8A4Ul4M/vXX/gZQfgh4NHWS7X/ALeQa6XYv90flShFHRQPwqP7GwH/AD5iL69iP5zmf+FHeD/+fi9/8Cl/+IpB8D/B56TXTf8Ab4g/pXT7F/uj8qCoPUA0f2NgP+fMSPr+I/nOcb4L+DrYMRa3twvql5moh8KvBUX/ADDrqT63Tiutt7u5syTA2B/czx+VX119tvz2lvJ9Bitf7HwX/PqIfXsR/OcF/wAK08E/9Aq5/wDAp6S1+HHge8u2thpc8RVeXa8eu0vNVe53IkEEH+1EuaomBSSSoJPU460f2PhP+fUSfrmI/nMo/CfwKvWzDfS8ej/hVvgT/oHj/wACZf8AGtQIV6cfSk8kehqv7LwX/PtfcivrmI/nMv8A4Vr4DXrpqn/t5l/xpyfDjwMvXS4z/wBtZP8AGr5gz2/Sg24P3Rn/AIDR/ZeD/wCfa+4n65iP5yofAHgZuujwH6s9O/4QfwR/0A7b/vlqtrA5+6M/nUi2so6IzfVav+zcL/z7X3C+tVf5n95T/wCEJ8E/9AG2/wC/D0P4M8Fj/mAWv/gO1aA0mc/dgI+tTQ6BcSf8s1H+9R/ZuF/59r7g+uVf5n95hv4G8FXC7f7EiX/ajidf61kXfwY8I6uhaxmnsnbo6XAcfka7J/DdwBjbF+dULzQL6IBzCJMf3azlleCmuV019yNI4zEQ95TPHfFPwR1vQopJtPZdZhT73kf62P8A3l6flXnhI3MvRlO0gggj6g19Lw+I7/RyAQ0qp/yzlHzj6E9KpeKfAOjfEzTmv7EJp+soPnfAG9v7sg9f9qvhM24Spyj7XA6PsfQYLPJ83JV2PnXFJVzVNJudFv5rK8iaGeJijxt1XHRge4NVcV+U1qU6M5U6itI+0p1I1I80RtFFFcxoFfQ3we+Hy+GNHi1q9jH9q3SK0asvMEI6AejH2ryH4Y+GU8V+M7C0lUvaI3n3A65VBnH0JAH419PzvJe3f2eM7cY4HC8dOK/VOEsrjPmxdTp8J8dnWNlFxoQFtoJ9TlKIpwepboPrW/aaXDZxYKiU/wB5+lWbe3hsLVyG2r/y0kP8X4VloZ9bkJBMdqOgx1r9ZR8d5lyfVLW3ODJvHooqumvWwODFNj1VatQaXawfcXd/vDNWBBGBgRoB7KK05SCrD4jsB1lkh+q5q5D4hsZfvXaH/roNv8qYIIG6wxn6qKc+n2E33reNP9ziq5SC/BqOmyPmW4s2HowzWhbQeHr1trLpsp/66qv9K5p9C0phnyCx9FcitLSvA+hao5Ba+s9y7g5ZWRfqetHKB0y+DvC1yu8W9ln0F0oqpdfD/wAOpH8sKM3+zcChPg1YzOVhv7lcfeJKkH6VQ1D4SwWD4TV5nb1EQFQBWuPA+iQ7cW7/AIXGay5vC+kx/cjLf9tDUsngswfc1Gb8BVSXw7MvTUZB9Ca05QsRv4Y03f8A6uT/AL+VD/wjth/zzf8A76ofQLtD/wAf7t9RUX9kXn/P8361PIgsSf2BYjqjHPq1N/sOx/uN/wB9VEdIuj/y/GmjRZl630tRZAT/ANjWKf8ALDd9WoGlWi9YV/76qv8A2JJ/z9y0v9gKOtxKfrTAlFlaBuI4f+BAUpWyj/hi/IVAdBhbrLIfqxpf+EftB94OfqaAHm9sous0X/AaifWLSPoxP+6KP7Jt0fHkhl9Sxp0dnbYysQB9DTuBC2uW56bz/wABpjatu6W7n8K0BEi9EUfQUMwXoMfSi4GQ+tToNzWeR7E0tr4otfM8uffan/a6VqvIcYycelUruytdRXy7iBGX++vDfnSAZqemWOuwYkAZT0uI+orz7VbC/wDCOpxzxtu38Rvj5JE9G9DXRXVte+E5DPbSG804nDL/ABIPUela1yLTXNMeGQfabO4Xrno3r9amRZwXxJ8L2/xC8JprmnJH/alqoZsDlk7xEd2HrXz6ckkYKsvY19F+CdUm0bxLdaXcNlJWdRz/AMtV/oe/rXj/AMUNCTw343v7aBSlrIyz2+4fwOMkfQEkfhX5NxflkYcuMhuz7PJcVd+wkclRRRX5UfZHsv7N9mo1TW7w/eiijhU/Vxn/ANBr3Lw7ZiSa6uSoIQbVBHevGP2cwGsNfYfeWWLnv/HXu+hJ5emEjgs7civ6G4bhy5bTPzPNJf7XIbcKdQvVts4ij+d29/StDaqqBGdgHZeKrWCZgmn7zSsfqKkB29a+rjE8YlprvTWkwGLcKveqz6lEG4Dv7heK0JLuMUvmVRGrwj7ySD/gNOOq2gGfN2n0KmmIuopz7103hO/axuUYrv3jDKe4965ODVrN0x56KfcVv6Re2Fs0TvcieZm+S2hbG7/gXaqIkdp/bT6dcXFghyI2LI4POxugPvWfrF9JOjHzV3/Wn2Ng04lnuWj+1XLhiqDcFx0xzVHVdJ8pndhs/wB8j+lKyGZM1171mzPVi5XHVh/wGqMhqwGOKifinuahc1mUMphANLmmZrEBzqB2FNkoc03OaADNI/3d3am5qNrpE+R2FACO+enH0qDZ++3Y4202fUbYDIlUn0UVGdTgXrvb6LWoFrNMeqz6ko+7BK/6Ux76VvuWr/jQBZeo3Y+pqldaubEqby1lgj/57dQPqKuth1VgQQ3TbQAjAOjIw3IwwVPIIrltHH9kard6Rybcr9pty3UL/d+tdO5xXI+KLg2XinQJdxH2h5IG57heK5yzgtU15dP+Lt5DnASSGVADxgqufzzSftG2Krq2j3ITLSQuhbPJ2Of/AIquO8aXePjRqLRktsdE6+mzFd9+0bGBYaFIAMmSYA+gKoT+tfK8SQ58tqM9nK3y4mJ4hRRRX8+H6Ye5/s3gf2d4j/66xf8As9e8aP8A8glP9968J/ZvH/Es8R/9d4v/AEF69z0U77HGeNz8V/RnD3/ItpH5hmX++SLEHy2Vvjj5c8UdaIP+PO3/AOBUV9RE8kinBmaGHJUSt82Ktb1C7YgUX06Cq/W6tf8Af/8AZakyS3U0yBxkc9QD9aXKuctGjH3UGo6OlAFhbO3f/l1i/wC+RTDpFjJuVrSNlbqVOM0gkx04pwlkYYA3D2pgMTwxaId9jLc6bN6RvuFRy3Wr6E0klyf7Rsx1mRyxH+8vb8KvwFnjyUZT6kE1etVmhkEiq6sOmBjFPmAz7bU7S/jVkYqP75+4Pr3qS8t2gCkMrr6iq+t+HDNvv9Nj+y3wGXjC4jlX0YdFP0rLsdcjmDwSMYpIvvxyjBX6etMk0GDD7wxUb/L1p7XAl6yoPxFRGaM9ZFP4ioKGPxTH4pXlT/non5ioftEJ/wCW6f8AfVZAS9aimPkIpfhm/hHJq15ttBaoyTR3l9IMpCn3UH96T0+gqFE8slz88zdCedv0oAqvDczdSLVPU8mmCwt4VwytM3q5yatZb1b8hUcq46cflQBXCIDkRID/ALoqQEL0QD6CkYY74+mDQ71qApYnuaa8p9T+dLUUjBulAEF5Gl7byxyZYOmMNyCaxPBmovqnhqxunGGda365X4dP/wAUXpn+63/oTUAdI9cR4/JGueEW7PqL/wDopq7d64f4g/LrPgr/ALCLf+inrCRZ4P4onVvitrUqN/y3b9OlesftDASaB4ff/pu//or/AOsK8Y1Obz/iHrDlQP8ASZf/AEKvavj4N/gvQZcf8t15+sXNfL57/wAi+qexlv8AvMTweiiiv55P0094/ZvH/En149zPEp+ux69u0Q4s3/66NXi37NwH9ga2cc/ak5/7ZV7R4f8AnsXbt5r1/RnD3/ItpH5hmX++SLNoc2UOefv06m2f/Hon+84p24elfURPJGR83Fv/AL1P/jpkf/H1b/7/AP7LT/46ZAUyaZII9znFKxADMxwFqjDbyavMxfK2qdD60AD3k94dtrGQn95qmi0vUe90YvqxX+VWNQ1S00WFUB3v/DCnV/qe1c+/i6735jWCAejrupcwG8ltrK8R61Io9POb/GppNP8AEMQ3Jrcc30nYf+y1zS+OdTjOCbVx6m2U/wBKtW/xH1WIYFvYyD0+yYqeYDTz4lijRDqUjc54kHWqGpeHtT1CZJriJZZh/wAtMDd+dA+JuqD71pYj/dgIqsvxDvrgsJrCBWX7pVWwaOYCJ/BdyG/49z+YqP8A4RW5/wCeDfpU3/CcTH/l0h/77NM/4TaX/n2h/wC+zRzAQ/8ACLXB/wCXc/pQPDFwOkY/4FUx8ZzDpawH/gZpD4vuZesMI/4EakCaDStQtFIgkMYJySFAyfWlOmamB812SPYmqj+KLwjGyPHptb/GoR4kvx0Cf9+2oAujR789blx/wM0w+Hpj1u8/8CNUn8Q6l/z0X/vgVUfXdQf/AJbsv0WgDSn8N3iJm3uArem81QfVtR0aXy9TtneNPvOi/OfoOlVT4xvrGba7i4T+4w2H8xW7pXiS18QQGGWNX2nD20vUj1XNAFq3v4bqFJ4nV4T0cdfxFOxu6VzV5af8IdqkdxbyGTR7ptrKw5i/wro1fIJXlW6GtQCuU+G4B8Eaf/wP/wBDeur/AIq5H4agnwdaDJwGlwP+2r1nIDpHeuJ+IpP9ueCj2/tF+P8AtlXauK4X4jkpq/gxsnH9ov8A+imrGRZ85NKZfF+pMSSzzynJPP3693+OKl/hzoUnbz4v/RVeBWj7/E1ye++U/jvr6C+LpE/wj0iTGdj2z/mjZr57OffwNX/Cetl/+8xPAqKKK/nU/Tz6A/ZyAHhnWH/6fP8A2lXsfhtx/Zf/AG1evIf2dAF8Fak+Pv3zf+il/wDr1674bT/iV/8AbV6/pDIfcy2l/hPyzMP95kXLX/j1T/fanYptt/x5p/vPTq+gPNIEYeenzfOG4FT1UZPKbzRy1Wc04kFfUjttgF5Z2VcVY1C7XQtLJUKSBtAYdTUDJ5t9aoeU355rF8eSP/o8e44zvxmr5gMM3TzOzs7MX+8Sev1ock9DioLcEnaozUup+Zptk1w6EKPuLxlvzrMCJmCr0BT1JxWdf+IdO08MJrlWb+6hya868Q+LNU1GYRh0toz92NG5/E1ykk8pfftbf/e4z+dZcwHqF78SbaIbbWzaU/7ZrBufiVeyhxElvCD02/Pj86xfCvhLXPGtwPscJS2X795LxEv49TXrug/CTRdFjRruJNSuD995vuD6LQB5xZeOfEOoFRarNdH0t7bzB+YxW7ZTePJvm/smWRPQxop/9Cr1+3tooY2SKKNEXsAFX8qyZ/iF4bivGtJNZtWnXqi7m/UVQHIWV34ki3fbvDdyq/8APSBgf0rZtb03SZMdxbN6TpiuyjaKZPMiMcqHpJGd35g0+RFl++of/eGasDktoPYUeV7CuhutGhk/1f7p/wAxUFvoPnP5fnRof7znigDFdKrzKa6xPDMJ+/qMFNPhiynBVNThy3TdxQBwV5H8zDHFZEs8ttdLLE3lzR8oc549DXZeIPDl5pR8xoxNF/fj5FcJdXCmYovOeDQB6JLdx+JPCVxN1LRMzKeSHXrT/CGp/wBseHbS5BJDr1zWP4Hb/iUX8I+Y4L8++7P51W+Csxf4eaeWJY5kTJOejcUucDt5JFjVnY4VVZia5L4bRyDwNpkrZHmh5PwZ9w/StPx1qf8AY3g7VblRmQwNDGvcyP8AKmPxq3olmNL0DTtP2hRBbrGcDHO2jmLJZG29VLfSuB+KL41Dwiw6DUX/APRT16IOOnFecfFFgreGXI6am+Pb5HpTA+btLJOtXBzzufn8a+hfiQpm+CGnt1/49W/CvnrT1KazN/wOvojxj/pP7Pto46iO3YH23V4GZx5sHV/wnpYH/eIHgVFFFfzi9z9TR9Dfs/8A7rwHeOfuG9lY+3yJXo+n+LtK0XQ1nu7xIkZ9wx8x/KvN/gn+5+F2oyfwtPPj/vhK4rQ/tPiHxJJaQWr38m393bq20Z9XP8Ce45r+kcmjy5fS/wAJ+WY7/eZHp9v8bUknngh0aS4iRvl2S4f/AL4xn9a7Hw/40sdckMWy4sbgfeguozGx+hbIrntK8ILY2yreXlxPI3WGzJtoE+irhm/GtuK3a2QJDNOEHRZJDIP1r2zzToyAydBRFymDyfWqFveyEE8Ej7w/wq8j7h5g4FMgQMEv7Lj/AJaVjeLVE84XAJETY46VrP8A8fNoe/m9axPEl0ttr9hbPyLi3l6/3t3SqAht4rLRNHuNX1BxHaW46Hq7eleQ/GPU9evprfU1kW50OZd0P2Q5SP8A3u9dR8cNdUHSPDkQCqEWaYdmZumfWuR03UmsmKSL51qRgxv8wI+lTIDgfshmUt5z8+1dl8O/hjJ4nuRe3ztHpMTY6Ya4b+6PQe9W9P8AAS69r9rHYMF02b5psHBjH9K9xtLOCytY7eCNUt4l2KgXHy+mPSsQHWVjb6ZZRW1pEsUEX3UVQP5VKykDA4xT++e9HWrA5H4qXd3pngHVZbNvLl2ITIg+ZAW+Yg9sVzvwe8J2I0dLthi5mhW4Y45+90Br0q8sYNUs57O6UNa3MfluhGQR6EVxnhuN/Czf2c8bOIh5SyDg7frVAdmRFbSK8Kqij7yKMA/hVuVNny96y5rkXYhjtbc26fxs7bmP0NbEzAvVgVwcVBKoYcgH61ZcYpmAewqQI7O0tbiUxznYT9xu341V8Wx6L4d0o3d/dfZ2AxHGPndz/dA/rVoxA4yAcVhReFYb3xPca1qsp1EQhVs7abpEPQjvVAUNH1bUtO8Mz3uszG0s7hP9GsXGZG/289vpXkOl6vL9tuLacETRH5S/JZfWvU/i3pFx9ghvLuRiS+VjB4B+leRakjPqljfKQC6tFLnvUyA9F8C6zHZWmt3N1KsUCIoBY9Pl/wDrmuN8MfFO08F+ALKyiU3GpSPIyRHomX+XJ9657xpqM1tof2WFtkM7Ym5wWrgpCZY4FAZsqM5746VyVKsi4nXa58S9e8Q3Akvb1/JjZZltY1CoWU5X247elPsfip4rvLoJHq1xLcH7sSqrg/hXHwwPeXMdpDG0ssjqkcY6szdBXs/hDwLLba2/hrSZjbXFiqSa5r0ahpo2P3ba3/u+7jmsYylI25Tb8NeMvF7ssGu6da20T/IZ5riO2mQepVmFaHxF0661Ox0GaxtZNQjt7/fKYBvYLs64GK7HR/Cuh6DCFtNMtY3/AOesv72Zv95zyfzrUiiRcukZQnqYwBmusg+JbY7NXlJGSrMpAyGH1Br6D1Vxdfs5x7eNltF97/rrWV+0F4Js7b7D4is7eK3nkkMF0YxtExHRjjoT61oWMovP2b2Zv4bVlOfUS8flXmY+P+y1f8J24WX7+B4TRRRX81vc/VVsfQvwhDR/CO6IG8PLdFVHU/5xVf8AZ502VdH1bULqCW3vGvmt2jnXDqqKuMZ9dwq98GpvI+E5mCglHumxit/wn4qh1nWNaUOGMlwsjMTwrFBlT78D8hX9KZV/uNL/AAn5Vjv94kcd+0R8brf4HeFLXUZIvtdxdyNFbQZOJW27sH04rjv2WP2mNS+Omoa7pWr6XBaXunwx3cU9mxeOWJmKbTno24ofoT6V638U/hL4c+Mnhd9E8R2rXFsG86CeF9ktvLjG+NupGOMVl/Br4E+FvgXpl9a+Ho55Zbwg3V7eTLLLKBnCkr8qgbm4HqfWvYPPkejqwjdG6ANWpbAKzREZ9qx2DSSpGoyScn2X1rStZ1l12WAOM+TvoIFmBju7RQSf3tcn8SZzZ+IdBlIxt35rsbgbL+y/661xHxdBXUdJYkn92xpgeW/E6+fVPHZncgjZGq49VqARFOpNU/ERLa9bknJ25ya1hCZSoH3mbbisrgei/DjQP7O06S4bar3J3qAP4fT6Vj+NvjPZ+GtQNjYQpq00JYTylyqxt6DHWu/srRLezijGVMabBjtXxh4+S+8LarqsDhxNaCYmL++y9wf4j71hiJyhHmNon014W+NnhvWx9n1LULPQtTX5Tb3l5GglP+xlj+tegJKkgJWRCh+6wYEN9CK/OzWoNNvfhtrHiPQ9atLbxbpcq2esQXKpKt3HJhoprVmG0SKoYSDHBHFfR/7Gur3mo+HtV0m9e51C0tba2urW6uUBKvLv3ovsMLwfWuDD491pcsjWVKPKfQ2w5pJLSG5ffLEJH/vd6chylG/d0r2jnJUS3gClI1yvQgDiuX+I/jL/AIQ3w5LfRIJLt2EECNyN56k+wro81w/xd8MSeLPCFzHA/lXNpItwjHoc9V+lOp8IHidx8dPEmgF9TvdWBtIzmRZ4FZSfRVWu38M/tYeEdWmhi1SDUPDzGXyHuNQhBt0fb0JU5Ue7Zr5H+JEk12ot2VrpLK7xeW7yFWXc21DkdgVOfrUVp4QN94d0jXfBPhC902HTEFtruoax5k0VxKWyWVmHlq2OAoOMV8+8ZKMuU6OT3T9Jop4rqIPDKkqFVbdGcj5uhB7ipLdhBd287ciN9p+nrXDfAqxu9P8Ag54Qi1BSt2tlld3URM7lAfoCAPTAruCARg8j0r3Y+/HmOeRz3xrkV9Dtyhyvn4zXhV6rGKxYjIWXpXsvxYkz4VssnOZa8enJNvb55/e0SIMjxzA82lQuiE+VId7dhu6VxLSmC1ifGCU2gj1r3PR9Eg8QaF4htJxkC2aVGx90joR6EV4jqFu/9iWMygmPzCrvjhc/dz9a46kTaJ2vwD06LVPiNazTrvWzjNyA4z84G0fkWFevfBW3b+w9cubg+Zez67dtNu+8GEu0DPsoB/GvKPgLdx6f4gmvJ28uB8Wxdj0DHOfzAr3CKKPwjr9y0gEel6tO0zMq8Q3B/wBYD9cDDVrSiFzhP2pPiXr3wu+HTah4fs45Lm4l+zSXzIXW0G375Qd/bpXln7C3xN8X/ELV/GVvrmoXGsaZapFNDc3DFxHKxw0ak9gATgf3fevq67toL21e2uY47m2lTy2jlUSRyL/dIPBHtUOlaTpui2z2+m6baabbu/mNFaQLErNjG4hQATgDmukDA+KXhm98XfD7WdM06JZ9Rki8y1jkOA8oO5RntkVxXhC0uV/ZzurW9iMd3Fb3CPE4GMpK3OR9K2/jz41vPA/w2vtVsj5G2eCOS5B5Xcdgx6NWZ8OphqnwP1MqxcyQ3ZJc5ySuSfzya4sbHmw84/3TSh/GieBUUUV/M0l7zP1hbH0R8If+SRSL3ZroVH8INEjsNW8U2Wobohf3MV1BM/qE2kqexJq78F7UTfDCCNjhWnuBn23V6I3hSDUvDltcxRlLq3DRqV4OPXNf0jlX+40v8J+YY7+PIrLDqFqdjot5GDlJ0OCT71cs4rqeRla1aEquVY4IJrMS9vrVwm5ZEXrkYNSvq94Y9oAFeqeYaErQ6JbPNK/mTsMAdePSuf0K8mfWTcygBpTjjsvp9Pan3BluzmUFj6tzU+iWX+mocHC9RQB0t4/+n6f/ANda4z4vfPfaUv8AsP8A+hV2U4zqWn55/e1yvxGiFxr2hwkBg+/k/wC/QB4t4mtWttehRxh1XkVq6dze2uefnU1q/FvSfsni+1dFASW1V8gYrLt/3Jil/wCeZVjUge25r50/ab8L32ofDufXtJUHUNF1p3dwuXeBpcMvrtx26V9FQnzIVdWB3LxWSNAjvbfVrK+QvDc3ExJUdUY5H61nOPtIcsiz4y8LfDT/AIRzxBqdxcaZpC2bwyTT6ZrKQzoq7TtI3yDy8b+N3Svbf2U7VNKfWUtJdPubGeBMNYThyJN38YAGB9K6XUf2cPB2oao2oumqG6ki8iV1uiDIn+0dvI4HWum8D/C/w38P4z/YVi1oxGHLOXOPbNeRQwM4T5jf2i5TsVDCPcwwKajBulSyEmPaTmo405A+VWP3VCnJ/M17pgLWL4pYjwzqpycCHdW0zY+8pFZut2L6npF9ZxELJNCyAnpVgfH/AMTfhUfC/wATPFt1dXsdr4evtOS9guJk3K5Mx3R+vDNnHpWtpd/8MvC2hxvfaxLf6jqEyiFJ2dnyEz5vkRjkKeAx5FfUes+FdM8TQRf2ppi3LqMR+dG2APf8hTNJ8H6Xo+37LpVnahQQqJaoCM9cECvIq4FVZ8yN4yLHhe4S48P6bDEwaGGyt0VuSw+X0NajfI1Ja2vk3O9Y2DEDeCo27R0AHoKWf5peK9SlHkXKYSOM+Ko3+HbYDoJ2wK8dulaJIckY31698QZTeeHI3A+VryUofb0ryXWI8RRf9dKkg7fwGw8jXE/vWL4rjfhj4Ui8aeCdd0iUgSSFGikI+5Iu7b9B0rsfAY2z6mD0NjLxWN+zvJtg1VD/AHU/TpUFnF+F9Lm0/wAMMLiJo7rzjG0bDlSnc17V4S8Z2et6Qml668bSsgjEknAnA6E/7XvVDxx4cNvd/a4o8wXJJm2jkSnqfoa5y205o8YUHByOO9XED1eHQLuxkH2G/c238MdyA2Poa1ho8kkMRlvAHb7yxKBj8a87sby7toRHHO8aj+FXIFS3upahdIInupzEfujJAH1qizy39unxbbaf8M9N8L2ZH2vUdWgd1U7vLWM5JY/xcsDXZ/A6FW+D2o2x5KC4Tn/rlXgPxr0i+8VeOoYpYXGn6aFijz/E7fMz/kBzX0L8DoivgzW4AuFWdwu7vmLmsa38NmtP+Ij58ooor+YK/wDFl6n6xD4UfTHwW+X4aWWf+e9x/wCh165oEoTSovQ15H8Hvk+GFk//AE1l/wDQ2r0/Rptul29f0nlX+40v8J+WYz+PILnw7LKq3G5ZRJ8xUcECs+XTCOAhB9hXQ2dwTZxEk52etNklDnIAzXqnEc4mlTTdMr9a07W1W0j4wW9e9WXk96iklRF3NwKCCG4k239j/wBda57xh++8UaH/ALCvWwXae9tp3G1A+UT/ABqpq9uJtatZWUfu4nAOOhoA5v4s6PJPPYXu3cttaKjY71wLRsYZgoyNnSvf7zTI9WtpIJ1Vla1QdM8+teQX2kSaTez2sybdvy5x94eoqAOz8L3i3mkwgNllVee9b1pOYGzjcuMY9q4PQpH0O78p8/Z2+6ew+tdtG64JzlW6EUFlyS8kY8AbcYx2qN71/U/nUdRdadyDP8X+IR4Z8L6pqyx+Y9rC0sakZycbcH8a8e8AeHtf+J93Lqeq6zdxwfMy+RIyBR/s4PHVfyNez61o8Wv6NeaZcE+RdQvGT3yxyK5D4YWx8N6Ha6VcsUubceXISfvH/JNIs7G2tpdOtUje7lvYlG1ZJTlyfcnmrgTbUNzCiR73kjKvyu05zV9wNq8D7tWBHHfzRR7RzQb2RhwcVBjFHl4rUkeZ3PUk9qq398um2E9y/IhTcM9z6VYrkvG+o+Zs0uB92ZMy89T6VkIr+L4ntfAmhLJ/rHJlbPqx3Y/KvLdWj3xJ/wBda9m+LEK2+g6XCDkLhc+4TivINQH7pP8AfqAOq+H8bSatdw5G2W0dAax/gbaHTdS12zm+WaMmNvTKt2rY+HvGvcf88GqPwdYvN4j8Wi2fZe2mpExZ6MD1Q+ufWgD0tvLuomSRN0L9mGawpfCSRSFrdyUboH61Y0/U/tg2tuimT70bHkVppNuILcEd6CzIg8OsPvKB+NZnjzSjD4O1WaCeSC5jjyHjGSPxrq/NU9jXP+Pn8zwTrank/ZmegDwLx1cBfEEwKhx5UfUZ6oufzr134Gky6PrEZOVEq8HpynNeJ+P5SdXt5QSPNtIn4PX5K9e+AF408WqoeMLASPc7s1zVPhZotzwm6j8ueVAANsjCina8hh1e+jBIKXMqnHs1FfzXiaX76XqfrFD+HE+lPhSAnwp0tcDJMrn/AL7evQ9K/wCQRb/7teffDVPK+FukZ/ihdh/329d/pxMWkQ5/u1/ReWR/2Ol/hPy3Ffx5l62kxa2/+7R5lQwP/otsvdVXNN8yvVOIPOYbvMH5VHEBdvvcZgTse9R3U3yFUPLfKD71If3SJEOCOuO9AA+6S6tchV/edhVfUPnvR7LUhffeWi997f8AoNR3n/HxnvtoA6K2UmTaOP3SdK5z4ieHzd2q6hCoLwfK+B1X1FdNYKftTf8AXBKvTWqXEMkLgGNhjB6YoA8i1CNXgiDLhSvJ9aseHtYaFhZXhCAfclP9TV7xJpR0sfZ2Yt5fygnuvrXLXEsM5MNw/lqThJPQ/wB1v8aCz0Lvu7UYHoK8+0rxje6M5tNbDgLJsUv/AKwe5PRhXcWN/BqMfm2syTr6o2f0NQQWU6571Q1DQYLyc3EQ8ubOTxgZ9av9KmXnrzQWQ2mn+RbW8Um3fFu5A4qy7CmbwRTSjuQFVmZV5CjNWBG6Z6cfSgtt5Klj6CrE0BgiZ52EIXq0hCn8hXM6r4sVFaPTlLH/AJ7t/hQBZ17WU0mBlRg1y/QDkLXLeHdObWPEEcj/AL8I/msx7n0qqDLcOxfLyP8AnXa+DtMFvJkLtIXJIHU0AUPi782lWKjgrJtP1ryHUButmI7NxXr3xaKmwt8nH73NeRXXzWr4/vVBB0vw/wDl8QRZ7xODU3gV9njzxnGevn5/D0qp4Kk8vxBbc/eR6l8LHy/ir4uQcBxG+B77c0FnW69A0YGoQDNzH88oHWRfQ+prSsJI72xFyjZjP3T602QZrC8NXZtpNV0ZyR9iuCI+f+WbLwaAOheZWXgEVgeKVLeGdchJ3k2MrLnnIrXaRY13E4H90cms/VYnudM1F3Ty1kt3iRc5wu3qaAPnDx4waLw/cgYWXTk/9Cx/KvUv2dpt9zqyesMTn/vp68t8YjzfBnhS5PDeVJD+XQfhXf8A7N9wP7T1FctzZpnn/b/+vXM9i1uedeJU2eK9bjdQCt3Lxj/bairPxCUReO9fGB/x+yfzor+acyTWMqrzZ+pYf+FE+g/AXyfC7Ql7/Zf/AGd67gPs0pF7+VXF+Ck8r4aaEp6/Y1rsZmH9nJx/yyr+k8BHlwtL/Cfmdf8AizLcLDyIuP8AlktRO9Bfy0QdtlI5HoK7TjIkGbmIY4zuxUkj5OT19ajRh9qTj+BqdjNbgCAfbbc98t/6BUd44+0M3bbToztuYJDyA3ze1JeJ+9rIDqbL5Lp/+uCVfllCJyKyYJ1W7lY5x5S0PdmdiSSgH3iTwK1Ao+LNPW/sHlIHmxrkgnHHpmvEfEFx5/8Ao0JDGTkkcgj0rqfH3jW68RajH4b8Pl5lZ/LmdM/O390N2HvT4vCFt4Z8PNYgHUNWA3y3Kjds/wBlfQVkWcg2pLbAWN5DHf2iLs2ynDp/ut2/CrdnBhzLpF9u29YJj5cyfl1rGvY2juHLDHOaWMYII4I6H0oA7GDxdq+nMy3cJk/66pj9RWlb/EQBcyW6b/8ApnICP1FcnZa1fWK7Y7mRY/8Anmxyv5VpjxFcOMMlu31t1/wqAOki8fRMcR2qs3ozg/0qSHxdrN1I8enQtA/rAuP/AB41zUWt3DNkQ26H1ECj+lPm1S6n+/cSsv8AcPyj8hVgaGp208bl9Su0M56wxyq0n+FZKTJFKqhCIi3JJ5puAKVY/OZU2hnbkAjNAGxYae63Bcr8v8JFd7ptr9htgxPzvXKaLqiaLeR6fq0YSKQZt52GP+Ak/wBaseOvGDaJEIEjeKV1/dyMvyfgRQBx/wAUtb+3XsVorZSM5JU964KZ/wDR3qS+vZLiUyytud/eq0j749tQQb3hKbHiGx/4HVjw7Nv+MXikIcqIkVj6H5Kp+FJYra+k1CYhLWygkmlZvf7oHuak+EEM2oX2veIrpCDfzhI93OVVsn9Rigs9KzmuT877L8VZoeovNKEh/u7lbH8mFdXXG6t+7+KWhOOPM06fKjofn/8ArCgDrFUI2VAU+opsuJIZFPO+PZT6ZQB82+JImn+F2jzOo/0W+lhJH/Av8K7H9nKUDxDcp62LZ98PxXPX8HnfC7XoOc2WqO/0+b/69an7O9wB4qjUcFraVD71zz3N4GH8VY1g+IniBdp/4+if/HVoqz8ZVMHxK1rODvdH/ONaK/nfNaX+3VfVn6Lhan7mPoe6eFDt+HGhKev2OKutvv3dh6fJXIeECLn4d+Hyhyv2VFz/ALo2n9a6/VPlsdp67a/oTA+/h4f4T87rfxZFiQg9QKg8zNOmf5tveoq7znH27A3XPP7pqc5xUVt/x8f7sT5p+8Gggd6+9Kz+eMHiTbnNM3imOcpwcduKkDntW+KUuh6nLbXGnOkyoFdWPyjb1we9c/4j+LV1q+nGxs4vsDzt80ueV/Gup13TIdXtAmoaY+pRxZxPAQJ4c9cA15Zr3hixgSUWWvRWqnpHqsDwkfjzQB0+n+LdB8Caa0Olzi/1adf9JvI1yF/2Vz0HtWjoXxCFlC0i24N1J99pOfzrym08NfZpTnV9Hk5z8t6p5/Fa3JLfehVtX0gE91vk/wAagsi8Z+Kle+aeCzREb/WIpwF+g7ViwePbHH7yOVG9Ixu/nVy98Pyywuz6lpLe39oR5/nXET6BPcSskCl5FbnZkmgDvIPG+kN0uCv1Sr8PjTRSf+P1fyryw+ENb/hgnP8AvRmkTwf4ix/x6Sf98UAeuReMdHdtv25M/SpJfG+i24yL5ZG9IQTXkkfhHxCBkWrg+u01Yg8Ga65y9pIp+hoA9EvfijpdpHmKKa4k9AKXRfiFe3F/9o+yQ28S/dV/mrjrLwHcW0a3F/cW1gm7b/pTsh/VDXQ2ljZ20SBtZsEPqpkP/slAG/4r8ZX3ia3ijuW3mMbQyqAQPT6VkT+OdTbSI9IvJzJaxtlCy5fHpuqKWCyH3tXtR9I5T/7JVK606wuVCNqitjp5NrMcfmlUBI0ocAryB0NLCk90/lQqu49WY4CfU02x02REMVnZatqmOgFsYkP/AAJ+a6Cx+HOuaxsTVHTRNPY7jBane7j/AGj3/GpIMEi68VzJ4Z0LP2IFZNS1Jxw390j2/ur3717FpGlW2h6XBY2gIghUgE9SSck/nzVfQtCsvDmnraWMCwxgne+BukY9ST3NaMhPrQWDnFcZ4lPl/ELwnJ0LxXUee+Pl4/Wuz61xXjd/L8W+D3HB+0TJke68/wAhVAdhmkoqPzKAPE0KpoPxItGAYR3MrgEcCqP7Pc2PHFqnqkuf++aj1bUkgHxHZW+SeVYUx3Ytz+dWP2cLBrjxw7lSVtrZ5SR6t0Fc8i0HxwRE+JV+Wwd8EDcj1SiofjbN9q+I+qFCrCLZDkf7KL/jRX4Fms6f16rr1P0LC/wI+h6p8DdYGteBJbFj+806cqFPXYxyPwr0q9dbm2ibBwV5r5h+FXjX/hDfFEb3EhGn3eILoDoAOj/X3r6Wd8woySAwnkMnII9q/XeHMdDG4GCT96J8nmeG+r13L+YszlTKSpyrdDTN4quJQihD2p2/d0r6s8YkiYRzuzMQmzbmnb8DJ4X1HNVpGDjGOPSs2fTpPMzb6jdWg/uK67fybNAG7TWfFYH9n6rGcLrcgHq0EZ/pSPBrX/QYgH/XSxA/k1AG+gGaJGEow43j/a5rEji1wnC6rZAepsT/APF0j2+vSf6vV9OX62Tf/F1AGmdPtZeXs7dz/tRKf6VXv4dK02OSW8gsbOJfvNIioE+mQSax7nRtcuC63HiGSJW6LaWixsPxai28H6dBIs1wj38y9Jb2QzY/Bs1IGRPq3/CQI1v4c0a1WMnbJqt1aqI1HqgIy341r+HfCtn4dtVWNBLcMcNcyjaZG9RjoK2AoUKAAAowAOwqTqc98Y/CgBd7f3j+dJnFG4elG4elBYu9h/Efzo3sf4j+dR5pfxNADZwJFCuN65zhuRmopLg2/WGPZ/sqM1JvBqMjd15+tBA+G4gum2wOmfQcH9akLGJs5IX1HNUbiygvDmWFZH/56YwfzqlLou5f9H1HULP/AGUnDD/x/NHMBsfNgDJwOgxQBjopHaslPD1wIfNfxJqa7zu2RmNio/FKqzaDMW48QasPo6f/ABFAG80eOgx3pwhcjLIdvqVx/WuYbwszL+81rWG+l0yfyWoj4IsMbZbjUJx6S38gH86OYDodSvrbSIWnvrhLWFerzOqL/U159b3U3xA8aWWo2qSJoGlhzDJKu03MvqB2Fb8XgTQhIXNgkjnr5+5wfzrdijWCJY41Eca9EQYA/CjmAXzfc1i+LPEEPhrRbi7kcLKEZIVb+KT/AApfEHirTvDVk1zdzhAv8AAZvyrwHx143uvFl75twTHapzFag5UVlKZcTCvtTmayeCQ/Pcz+fcEHkn0r3j9nvQl8M+FdR8S3oKC6O4FuMQJ0b8a8i+H3w/vfiJ4hWFVeHT4W33V10Cp/dU92r2D43+MrXQdEg8IaSEjkMKR3EcRwI4F+6nHQn+Id+9eRmGMhgaEq0zqw+HnXqRpwPFNdv5dc1m+v5iRJczvKQp4wcY/QUVVBK9CR9KK/nypinUm5Nbn6dCjyxUR2NwIPPavW/hP8Vo7COLQtduWFtn/Rr08+T/sN6r/tda8kBxRJ82M8kHI9j6125ZmlbKq3taWxli8JDGR5Zbn1rqM0+mQrP5El9Zsu4mDDTJ9PWqlh4t0+6j3Q3UV0i/fCnY4/3o2+YfhXhfgT4t6t4MaK3cnUNOUYFs7Heo/6Zsa9Rj8RfD/4jopuhDDe/wATznyJ4/8AgS9a/c8tz7B5jCKT5ZH57isur4R2kuaJ0T+O9AQ4OpW6t6NmqM3xR8NW8eRfqw/uheawb74FabqMpl03XrpA3TIS5T8xzVZf2fJxJlteAP8A15H/ABr6DmPNNef4yaBEFAFw49BGKzJvjfpp+eHT7p/Y4FRx/s9xlfm1yY/9crcf41MP2d7Zfv61efjAv+NZ88hmfN8dFIUR6SPxc1Vb45XjL8mlwD6yGt//AIZ+0wddavz9Yo6Y37P+ip9/W9Q/76j/APiaLyA5t/jbqjDAsrbHpvNR/wDC7dYzn7Pa59dr/wCNdWfgT4fA3Nq9+B/11j/+JpP+FF+Gv+gpqH/f9P8A4movIDjf+Fza9/zztf8Av21V2+L/AIgTrJD/AN813i/A3wsn39Qvv/AlP/iakPwN8Jnrf3p/7e1/+JpgeeP8XvELdJoh9IxTP+Fu+Iv+e8X/AH7FehH4KeDE27tQuB/2+rT1+C3gpvu3ly//AG/KKC+ZHnX/AAt3xF/z3i/79ij/AIXF4hj/AOWtu31jr0IfBzwMZGjN5cCT+79vXH505/gn4LH/AC+3H/gwWgOZHnn/AAufX/8Aph/3wKlT4z68Ootz/wBsxXff8KS8Ff8AP5cf+DBf8aYfgl4KP/MQuU/7icZoIOLT42auPvW9s/0GKUfHLUwcixtgf96uzf4E+EX+5qOoD63a/wDxNN/4UV4Q/wCgre/+BkNUByP/AAvTUc5/s+3z0++acvxwnP39Ki/CQ11qfAXwm/3dUvh9bpP/AImpR+z94YPXUdQX6XSf/E1IHM2/xugiiQSaXJ5o67X4NWf+F46bIMtYXMR9Aa2/+GffDP8A0ENQ/wDApP8A4mkP7PvhpeV1O/B/2p0/+JpAYFx8cbAJm3sJpD6HiuZ1r4y6zfROtmsVgh6Mq72H4mvQ/wDhnrw1/wBBPUP+/wBH/wDE08fAfwbafvLm8vXA6LLeKgP5LQB8+3uoz6hcNPdXDXNw33iWDE/QYrtvBPwS1vxfJDLeJ/ZWmO+d78TSj/YTp+derQ33w5+H5V7WG0a6TvCrTSf99HmuN8Z/H7UL15bbRIBYQyHabqQ7p2Hqo/hrysbmOFwMf3szrw+Fq15e5E6vxT4r0P4PeG49F0SKAX4XekQO7yT/AM9JD/E315r59vL2fUbye5uJjcXM7GSSRupPck96jupZbqd5ppHlmkbe8jsSzN6knqfegn8ulfjOc51UzSpbaB+g4DARwsbLcSiiivlT1gzRnNFFAAeQQeQevvQRkAHkDoKKKuM5Qd4uwnFS0aLFrf3WnsGtrmW2Yd4ZCp/Stg+N9XbrqN4frcN/jRRX0+F4gzKnGyqnkYjLsNKV3Ea/jG/k+9dXTfWdj/WpIPFYR83T3lxHt/huWU/zoor24cRZg/t/gefLK8N/KRnxGx/5bz/9/DTZdcEnWSU/VjRRXowz/H/zfgcP1Ch2GHWI2GCZCPQk0o1G2brkfQUUV1LP8d/MvuJ+oUOwNfwN1JP1Wj7db+//AHzRRXo/2tifL7iPqFDsI17bv94lvqtAuoB0BFFFP+18T5fcR9QodgN1ARgrx6YpDcwH76IPotFFL+1sT5fcX9Qodhv2u2/uf+O00X1svRcfRaKK5P7bxndfcX9QodgOoWp9f++BTv7Rt/f8qKK43n+O/mX3FfUKHYj/ALRt/wC435CmvqMf+3RRXmy4izD+f8Dq/s3DfyiSal/dVv8AvqnJq88bb2QS87sOxIxRRXFU4hzD+f8AA6VleF/lFvNbllnZ1t44A/8ADHyB9M1HJq9ywALA49RRRXi1s/zGbs6rOuGXYaO0Sm7tIxLsWJ7k5poGM4HUYPuKKK8atWqVtZyuepGMY/CrBRRRXOaBRRRQB//Z;" vertex="1" parent="1">
                    <mxGeometry x="570" y="654" width="221.9" height="210" as="geometry"/>
                </mxCell>
                <mxCell id="7" value="" style="endArrow=none;html=1;strokeWidth=11;entryX=0.796;entryY=0.459;entryDx=0;entryDy=0;entryPerimeter=0;" edge="1" parent="1" target="15">
                    <mxGeometry width="50" height="50" relative="1" as="geometry">
                        <mxPoint x="699" y="767" as="sourcePoint"/>
                        <mxPoint x="699" y="117" as="targetPoint"/>
                        <Array as="points">
                            <mxPoint x="710" y="200"/>
                            <mxPoint x="530" y="200"/>
                        </Array>
                    </mxGeometry>
                </mxCell>
                <mxCell id="8" value="" style="endArrow=none;html=1;strokeWidth=11;strokeColor=#FF0000;" edge="1" parent="1">
                    <mxGeometry width="50" height="50" relative="1" as="geometry">
                        <mxPoint x="289" y="554" as="sourcePoint"/>
                        <mxPoint x="659" y="554" as="targetPoint"/>
                    </mxGeometry>
                </mxCell>
                <mxCell id="9" value="" style="endArrow=none;html=1;strokeWidth=11;strokeColor=#FF0000;" edge="1" parent="1">
                    <mxGeometry width="50" height="50" relative="1" as="geometry">
                        <mxPoint x="287" y="620" as="sourcePoint"/>
                        <mxPoint x="667" y="760" as="targetPoint"/>
                        <Array as="points">
                            <mxPoint x="437" y="620"/>
                            <mxPoint x="437" y="760"/>
                        </Array>
                    </mxGeometry>
                </mxCell>
                <mxCell id="11" value="" style="endArrow=none;html=1;strokeWidth=11;strokeColor=#FF0000;" edge="1" parent="1">
                    <mxGeometry width="50" height="50" relative="1" as="geometry">
                        <mxPoint x="290" y="485.9999999999998" as="sourcePoint"/>
                        <mxPoint x="660" y="340" as="targetPoint"/>
                        <Array as="points">
                            <mxPoint x="440" y="486"/>
                            <mxPoint x="440" y="340"/>
                        </Array>
                    </mxGeometry>
                </mxCell>
                <mxCell id="12" value="" style="endArrow=none;html=1;strokeWidth=11;strokeColor=#FF0000;entryX=0.808;entryY=0.528;entryDx=0;entryDy=0;entryPerimeter=0;" edge="1" parent="1" target="15">
                    <mxGeometry width="50" height="50" relative="1" as="geometry">
                        <mxPoint x="264" y="637" as="sourcePoint"/>
                        <mxPoint x="430" y="130" as="targetPoint"/>
                        <Array as="points">
                            <mxPoint x="270" y="200"/>
                            <mxPoint x="460" y="200"/>
                        </Array>
                    </mxGeometry>
                </mxCell>
                <mxCell id="15" value="" style="verticalLabelPosition=bottom;shadow=0;dashed=0;align=center;html=1;verticalAlign=top;shape=mxgraph.electrical.logic_gates.logic_gate;operation=and;rotation=90;strokeWidth=7;strokeColor=#007FFF;" vertex="1" parent="1">
                    <mxGeometry x="450" y="50" width="100" height="60" as="geometry"/>
                </mxCell>
            </root>
        </mxGraphModel>
    </diagram>
</mxfile>